<svg width="25" height="24" viewBox="0 0 25 24" fill="none" xmlns="http://www.w3.org/2000/svg">
<path d="M22.9551 12.0607C22.9551 6.504 18.4784 2 12.9551 2C7.43175 2 2.95508 6.504 2.95508 12.0607C2.95508 17.0833 6.61108 21.2453 11.3924 22L11.3924 14.9693H8.85374V12.06H11.3924V9.844C11.3924 7.32267 12.8851 5.92933 15.1697 5.92933C16.2631 5.92933 17.4084 6.126 17.4084 6.126V8.602L16.1464 8.602C14.9044 8.602 14.5177 9.378 14.5177 10.174V12.0607H17.2911L16.8477 14.9687H14.5177L14.5177 22C19.2991 21.2453 22.9551 17.0833 22.9551 12.0607Z" fill="white"/>
</svg>
