<svg width="21" height="20" viewBox="0 0 21 20" fill="none" xmlns="http://www.w3.org/2000/svg">
<path d="M2.96562 3.28152C2.89839 3.3398 2.84437 3.41177 2.80718 3.4926C2.77 3.57344 2.7505 3.66129 2.75 3.75027V16.8753C2.75 17.041 2.81585 17.2 2.93306 17.3172C3.05027 17.4344 3.20924 17.5003 3.375 17.5003C3.54076 17.5003 3.69973 17.4344 3.81694 17.3172C3.93415 17.2 4 17.041 4 16.8753V13.4198C6.09297 11.7667 7.89609 12.6581 9.97266 13.6862C11.2539 14.3198 12.6336 15.0026 14.1133 15.0026C15.2016 15.0026 16.343 14.6315 17.5367 13.5964C17.604 13.5381 17.658 13.4661 17.6952 13.3853C17.7323 13.3044 17.7518 13.2166 17.7523 13.1276V3.75027C17.7521 3.63031 17.7173 3.51296 17.6521 3.41224C17.5869 3.31151 17.4942 3.23168 17.3848 3.18225C17.2755 3.13283 17.1543 3.11591 17.0356 3.13351C16.917 3.15111 16.8059 3.20249 16.7156 3.28152C14.5281 5.17449 12.675 4.2573 10.5273 3.19402C8.30234 2.09089 5.77969 0.843238 2.96562 3.28152ZM16.5 12.8323C14.407 14.4854 12.6039 13.5932 10.5273 12.5659C8.57422 11.6011 6.40156 10.5245 4 11.9096V4.04636C6.09297 2.39324 7.89609 3.28464 9.97266 4.31199C11.9258 5.27683 14.0992 6.35339 16.5 4.96824V12.8323Z" fill="#FBE54D"/>
</svg>
