<svg width="21" height="20" viewBox="0 0 21 20" fill="none" xmlns="http://www.w3.org/2000/svg">
<path d="M3.46562 3.28152C3.39839 3.3398 3.34437 3.41177 3.30718 3.4926C3.27 3.57344 3.2505 3.66129 3.25 3.75027V16.8753C3.25 17.041 3.31585 17.2 3.43306 17.3172C3.55027 17.4344 3.70924 17.5003 3.875 17.5003C4.04076 17.5003 4.19973 17.4344 4.31694 17.3172C4.43415 17.2 4.5 17.041 4.5 16.8753V13.4198C6.59297 11.7667 8.39609 12.6581 10.4727 13.6862C11.7539 14.3198 13.1336 15.0026 14.6133 15.0026C15.7016 15.0026 16.843 14.6315 18.0367 13.5964C18.104 13.5381 18.158 13.4661 18.1952 13.3853C18.2323 13.3044 18.2518 13.2166 18.2523 13.1276V3.75027C18.2521 3.63031 18.2173 3.51296 18.1521 3.41224C18.0869 3.31151 17.9942 3.23168 17.8848 3.18225C17.7755 3.13283 17.6543 3.11591 17.5356 3.13351C17.417 3.15111 17.3059 3.20249 17.2156 3.28152C15.0281 5.17449 13.175 4.2573 11.0273 3.19402C8.80234 2.09089 6.27969 0.843238 3.46562 3.28152ZM17 12.8323C14.907 14.4854 13.1039 13.5932 11.0273 12.5659C9.07422 11.6011 6.90156 10.5245 4.5 11.9096V4.04636C6.59297 2.39324 8.39609 3.28464 10.4727 4.31199C12.4258 5.27683 14.5992 6.35339 17 4.96824V12.8323Z" fill="#848484"/>
</svg>
