<svg width="48" height="48" viewBox="0 0 48 48" fill="none" xmlns="http://www.w3.org/2000/svg">
<circle cx="24" cy="24" r="24" fill="#242529"/>
<path d="M28.375 26.6248C28.375 26.8569 28.2828 27.0795 28.1187 27.2436C27.9546 27.4077 27.7321 27.4998 27.5 27.4998H20.5C20.2679 27.4998 20.0454 27.4077 19.8813 27.2436C19.7172 27.0795 19.625 26.8569 19.625 26.6248C19.625 26.3928 19.7172 26.1702 19.8813 26.0061C20.0454 25.842 20.2679 25.7498 20.5 25.7498H27.5C27.7321 25.7498 27.9546 25.842 28.1187 26.0061C28.2828 26.1702 28.375 26.3928 28.375 26.6248ZM27.5 22.2498H20.5C20.2679 22.2498 20.0454 22.342 19.8813 22.5061C19.7172 22.6702 19.625 22.8928 19.625 23.1248C19.625 23.3569 19.7172 23.5795 19.8813 23.7436C20.0454 23.9077 20.2679 23.9998 20.5 23.9998H27.5C27.7321 23.9998 27.9546 23.9077 28.1187 23.7436C28.2828 23.5795 28.375 23.3569 28.375 23.1248C28.375 22.8928 28.2828 22.6702 28.1187 22.5061C27.9546 22.342 27.7321 22.2498 27.5 22.2498ZM33.625 15.2498V33.6248C33.625 34.089 33.4406 34.5341 33.1124 34.8623C32.7842 35.1905 32.3391 35.3748 31.875 35.3748H16.125C15.6609 35.3748 15.2158 35.1905 14.8876 34.8623C14.5594 34.5341 14.375 34.089 14.375 33.6248V15.2498C14.375 14.7857 14.5594 14.3406 14.8876 14.0124C15.2158 13.6842 15.6609 13.4998 16.125 13.4998H20.0909C20.5826 12.9494 21.1849 12.509 21.8586 12.2074C22.5322 11.9059 23.2619 11.75 24 11.75C24.7381 11.75 25.4678 11.9059 26.1414 12.2074C26.8151 12.509 27.4174 12.9494 27.9091 13.4998H31.875C32.3391 13.4998 32.7842 13.6842 33.1124 14.0124C33.4406 14.3406 33.625 14.7857 33.625 15.2498ZM20.5 16.9998H27.5C27.5 16.0716 27.1313 15.1813 26.4749 14.525C25.8185 13.8686 24.9283 13.4998 24 13.4998C23.0717 13.4998 22.1815 13.8686 21.5251 14.525C20.8687 15.1813 20.5 16.0716 20.5 16.9998ZM31.875 15.2498H28.9492C29.1483 15.8118 29.25 16.4036 29.25 16.9998V17.8748C29.25 18.1069 29.1578 18.3295 28.9937 18.4936C28.8296 18.6577 28.6071 18.7498 28.375 18.7498H19.625C19.3929 18.7498 19.1704 18.6577 19.0063 18.4936C18.8422 18.3295 18.75 18.1069 18.75 17.8748V16.9998C18.75 16.4036 18.8517 15.8118 19.0508 15.2498H16.125V33.6248H31.875V15.2498Z" fill="#FBE54D"/>
</svg>
