<svg width="48" height="48" viewBox="0 0 48 48" fill="none" xmlns="http://www.w3.org/2000/svg">
<circle cx="24" cy="24" r="24" fill="#242529"/>
<path d="M12.625 21.3754H15.25V28.3754H13.5C13.2679 28.3754 13.0454 28.4676 12.8813 28.6317C12.7172 28.7958 12.625 29.0184 12.625 29.2504C12.625 29.4825 12.7172 29.7051 12.8813 29.8692C13.0454 30.0332 13.2679 30.1254 13.5 30.1254H34.5C34.7321 30.1254 34.9546 30.0332 35.1187 29.8692C35.2828 29.7051 35.375 29.4825 35.375 29.2504C35.375 29.0184 35.2828 28.7958 35.1187 28.6317C34.9546 28.4676 34.7321 28.3754 34.5 28.3754H32.75V21.3754H35.375C35.5654 21.3752 35.7505 21.313 35.9023 21.198C36.0541 21.0831 36.1642 20.9218 36.2161 20.7386C36.2679 20.5554 36.2586 20.3603 36.1895 20.1829C36.1204 20.0055 35.9953 19.8555 35.8333 19.7556L24.4583 12.7556C24.3204 12.6708 24.1618 12.626 24 12.626C23.8382 12.626 23.6796 12.6708 23.5417 12.7556L12.1667 19.7556C12.0047 19.8555 11.8796 20.0055 11.8105 20.1829C11.7414 20.3603 11.7321 20.5554 11.7839 20.7386C11.8358 20.9218 11.9459 21.0831 12.0977 21.198C12.2495 21.313 12.4346 21.3752 12.625 21.3754ZM17 21.3754H20.5V28.3754H17V21.3754ZM25.75 21.3754V28.3754H22.25V21.3754H25.75ZM31 28.3754H27.5V21.3754H31V28.3754ZM24 14.5275L32.2841 19.6254H15.7159L24 14.5275ZM37.125 32.7504C37.125 32.9825 37.0328 33.2051 36.8687 33.3692C36.7046 33.5332 36.4821 33.6254 36.25 33.6254H11.75C11.5179 33.6254 11.2954 33.5332 11.1313 33.3692C10.9672 33.2051 10.875 32.9825 10.875 32.7504C10.875 32.5184 10.9672 32.2958 11.1313 32.1317C11.2954 31.9676 11.5179 31.8754 11.75 31.8754H36.25C36.4821 31.8754 36.7046 31.9676 36.8687 32.1317C37.0328 32.2958 37.125 32.5184 37.125 32.7504Z" fill="#FBE54D"/>
</svg>
