<svg width="25" height="24" viewBox="0 0 25 24" fill="none" xmlns="http://www.w3.org/2000/svg">
<path d="M12.9928 3.29004C8.05269 3.29004 4.0323 7.16236 4.03056 11.9213C4.0294 13.4432 4.44282 14.9285 5.22669 16.2367L3.95508 20.7094L8.7065 19.5092C10.0282 20.2006 11.4978 20.5612 12.9893 20.5602H12.9928C17.9329 20.5602 21.9533 16.6873 21.9551 11.9283C21.9562 9.62314 21.0249 7.45327 19.3323 5.82223C17.6403 4.19062 15.3903 3.29062 12.9928 3.29004ZM12.9928 19.1022H12.9899C11.6533 19.1022 10.3422 18.7561 9.1983 18.1023L8.9254 17.9467L6.10695 18.6586L6.85947 16.0108L6.68237 15.7397C5.93851 14.6052 5.54252 13.2779 5.54314 11.9213C5.54488 7.96539 8.88708 4.74804 12.9957 4.74804C14.985 4.74862 16.8553 5.49591 18.2622 6.85172C19.6691 8.20752 20.4431 10.0104 20.4419 11.9277C20.4402 15.8837 17.0986 19.1022 12.9922 19.1022H12.9928ZM17.0788 13.7283C16.8547 13.6209 15.7538 13.0989 15.5482 13.0263C15.3433 12.9549 15.194 12.9177 15.0448 13.1337C14.8962 13.3497 14.4665 13.8357 14.3364 13.9791C14.2052 14.1231 14.0746 14.1406 13.8504 14.0331C13.6263 13.9251 12.9046 13.6975 12.0499 12.9624C11.3839 12.3911 10.9344 11.685 10.8038 11.4684C10.6731 11.253 10.7899 11.1363 10.9019 11.0289C11.0024 10.9331 11.126 10.7775 11.2375 10.6515C11.349 10.5255 11.3862 10.4355 11.4617 10.2915C11.536 10.148 11.4988 10.0215 11.4425 9.91404C11.3862 9.80546 10.9391 8.74404 10.7515 8.31262C10.5704 7.89223 10.3857 7.94856 10.2481 7.94159C10.1175 7.93578 9.96882 7.93404 9.81843 7.93404C9.67037 7.93404 9.42708 7.98804 9.22153 8.20404C9.01656 8.42004 8.43766 8.94146 8.43766 10.0029C8.43766 11.0649 9.24011 12.0903 9.35217 12.2343C9.46424 12.3777 10.9315 14.5569 13.178 15.4917C13.7122 15.7129 14.1291 15.8459 14.4549 15.9458C14.9914 16.1101 15.4797 16.0863 15.8653 16.0311C16.2949 15.969 17.1903 15.5097 17.3761 15.0063C17.5631 14.5029 17.5631 14.0709 17.5073 13.9809C17.4528 13.8909 17.3029 13.8369 17.0788 13.7283Z" fill="white"/>
</svg>
