<svg width="81" height="72" viewBox="0 0 81 72" fill="none" xmlns="http://www.w3.org/2000/svg">
<g clip-path="url(#clip0_3293_299825)">
<path d="M59.8284 22.1137C62.2579 21.6408 64.7073 21.2822 66.9158 21.2822C68.1414 21.2822 69.2896 21.395 70.3205 21.6546C72.4733 22.2063 74.0466 23.6343 74.0435 25.5089C74.0435 26.4207 73.6804 27.4639 72.7948 28.6014C70.0377 32.1389 64.9764 34.3288 52.2713 34.3397H52.245C48.7029 34.3397 45.4373 34.0554 42.5704 33.6457C47.5792 27.6277 53.4612 19.9097 58.3805 13.575C65.5498 4.34094 69.2634 2.9206 71.2555 2.88044C71.2803 2.87894 71.3019 2.87894 71.3266 2.87894C72.4161 2.89902 73.4238 3.42912 73.4315 4.84162C73.4377 5.98988 72.7207 7.77797 70.6435 10.3017C68.3996 13.0279 65.321 15.955 62.805 18.1989C61.445 19.4136 60.2473 20.4258 59.4373 21.0997C59.4373 21.0997 58.8177 21.6128 58.5426 21.826C58.266 22.0409 58.1732 22.149 58.2303 22.2911C58.2922 22.4333 58.5302 22.3885 58.6941 22.353C58.8626 22.3161 59.8284 22.1137 59.8284 22.1137ZM20.3901 22.2373C26.694 24.7827 24.8967 32.7989 24.3495 37.8324C23.8688 42.2493 24.3231 46.1532 29.3721 45.1857C34.2481 44.2522 41.1995 35.2809 41.1995 35.2809C44.9055 36.0428 48.5435 36.4864 51.9033 36.7059C52.8955 36.7708 54.1875 36.8156 55.6757 36.8156C60.0138 36.8156 66.0008 36.4216 70.9988 34.9039C75.9907 33.3955 80.6517 30.7034 80.9701 26.115C80.9824 25.9172 80.9901 25.7255 80.9901 25.5385C80.9979 23.0457 79.808 21.4246 78.0553 20.4864C76.3027 19.5422 73.4113 19.264 71.0914 19.2625C67.8692 19.2625 64.6068 19.8653 62.7708 20.2732C64.3148 19.3846 66.9188 17.85 69.5429 16.0757C69.5429 16.0757 71.8486 14.5581 74.1206 12.8256C76.3955 11.0932 78.6117 8.6081 78.6936 6.35486C78.7817 3.94238 76.9812 1.20693 72.0559 0.99057C67.1228 0.772712 63.1047 2.67516 58.9691 5.62236C54.8318 8.57105 51.2788 13.0545 51.2788 13.0545C49.075 15.8116 45.2084 21.0058 42.0185 25.483C42.0093 25.4907 39.5675 28.9524 36.9433 32.6508C32.5171 31.6865 31.4044 31.161 31.2591 31.1177L31.256 31.1161C31.2127 31.1069 31.0737 31.0559 31.0118 31.0559C30.7955 31.0482 30.5853 31.2305 30.4833 31.5256C30.4463 31.6138 30.4308 31.7018 30.4308 31.7806C30.4417 32.15 30.8325 32.2783 30.7724 32.2613C32.936 33.1576 33.718 33.4373 35.9419 34.0633C30.1077 42.1352 29.0384 43.7039 27.5532 43.4426C26.5534 43.2649 26.1654 42.0872 26.6738 39.2359C27.2317 36.1342 29.1775 29.9045 29.074 24.7628C28.9643 19.3877 24.9724 15.6678 18.2621 16.5796C18.2621 16.5796 14.8373 16.9382 10.6213 19.3212C6.39908 21.7059 1.88026 25.4335 1.4382 25.8446C1.00237 26.2541 0.884899 26.6436 1.08429 26.8306C1.30227 27.033 1.93276 26.7487 2.67461 26.3097C3.41334 25.8709 8.07282 22.9129 12.1822 21.9795C16.29 21.0473 18.7843 21.5913 20.3901 22.2373Z" fill="#E0E0E0"/>
<path d="M39.2988 52.4073L39.1194 53.6576C38.9093 55.0932 38.4209 55.8196 37.9758 55.8476C37.8243 55.8521 37.6915 55.7812 37.6018 55.6481L34.9499 51.8556H32.6225C32.3041 51.8556 32.4402 51.9778 32.6179 52.2312C32.7972 52.4831 34.786 55.3052 34.786 55.3052L34.6903 55.3421C33.0228 55.9959 32.0662 57.359 31.788 59.3016C31.7817 59.3217 31.7817 59.3464 31.7787 59.3696L31.6427 60.351H33.2437C33.2437 60.351 33.9114 60.3695 33.9979 59.6972L34.1587 58.5458C34.372 57.0776 34.8696 56.3791 35.3426 56.3574C35.4909 56.3591 35.5914 56.4425 35.6764 56.5537L38.3315 60.3509H40.6744C40.8692 60.3509 40.9403 60.32 40.8136 60.1438C40.6868 59.9661 38.4923 56.9029 38.4923 56.9029L38.5881 56.8612C40.282 56.1998 41.2386 54.8119 41.5214 52.8369L41.6575 51.8555H39.9219C39.3606 51.8556 39.2988 52.4073 39.2988 52.4073ZM52.636 51.8556H47.0724C47.026 52.0551 46.9859 52.2838 46.9518 52.5155C46.9518 52.5155 46.8375 53.191 47.5484 53.191H51.4892C52.8987 53.191 53.3222 54.3269 53.1552 55.4675C52.7597 58.152 50.5497 58.9247 50.3209 58.9974C50.0906 59.0715 49.7706 59.1348 49.6501 59.6015C49.5325 60.0683 49.5295 60.4732 49.5295 60.4732V60.4825C52.0703 60.3203 55.0467 58.5414 55.4919 55.3825C55.7949 53.1352 54.7224 51.8618 52.636 51.8556ZM70.3886 55.6188C70.6622 53.5727 70.0316 51.8603 67.4137 51.8556H63.3909C63.3461 52.0551 63.3059 52.2838 63.2704 52.5155C63.2704 52.5155 63.156 53.1754 63.8685 53.1754H66.2145C67.8155 53.1754 68.1664 54.4582 67.9453 56.0517C67.7444 57.4889 67.0057 59.0219 65.3939 59.0282C65.3939 59.0282 63.085 59.0265 62.7001 59.0265C62.3137 59.0265 62.1639 59.2693 62.0897 59.5505C62.0154 59.8319 61.983 60.3511 61.983 60.3511C61.983 60.3511 69.3889 60.3511 69.7104 60.3511C70.0317 60.3511 70.2326 60.0558 70.2759 59.7545C70.3208 59.4516 70.3392 59.0313 70.3392 59.0313H68.0799L68.3997 58.8967C69.5 58.3727 70.2356 56.7222 70.3886 55.6188ZM59.518 51.8556H57.2648C57.2215 52.0551 57.1797 52.2838 57.1458 52.5155C57.1458 52.5155 57.0314 53.191 57.7422 53.191H57.9803H57.9895H58.1811C58.6973 53.1879 58.9755 53.3749 59.0991 53.6438C59.2197 53.9082 59.1965 54.242 59.1547 54.5372L58.5582 58.7886C58.5488 58.8458 58.5304 58.9108 58.4762 58.9601C58.4221 59.0111 58.348 59.0282 58.2629 59.0282H56.9323V59.025H56.2849C55.8984 59.025 55.75 59.2678 55.6759 59.5507C55.6002 59.8304 55.5677 60.3496 55.5677 60.3496H56.8612H59.6446C60.3261 60.3404 60.6568 60.0359 60.7574 59.3899L61.5006 54.1061C61.7078 52.5711 60.9846 51.8618 59.518 51.8556ZM46.8746 55.6651C46.7865 56.1921 45.8608 62.8606 45.8608 62.8606C45.8608 62.8606 46.6058 62.8623 47.1821 62.8623C47.7586 62.8623 48.0028 62.5702 48.094 61.9751C48.1867 61.3802 49.1402 54.5771 49.1402 54.5771C48.8944 54.5939 48.1017 54.71 47.6812 54.8459C47.2641 54.9836 46.9612 55.1396 46.8746 55.6651ZM21.336 52.6284C21.2943 52.9064 20.2526 60.3494 20.2526 60.3494H21.9325C22.5321 60.3494 22.6173 59.8826 22.6605 59.5766C22.7007 59.2985 23.7453 51.8556 23.7453 51.8556H22.064C21.4643 51.8556 21.3809 52.3222 21.336 52.6284ZM28.3401 51.8556H25.8164C25.7731 52.0551 25.7298 52.2838 25.6958 52.5155C25.6958 52.5155 25.5814 53.191 26.294 53.191H27.3834C27.8439 53.191 28.1313 53.2976 28.2891 53.5079C28.4421 53.7195 28.4498 54.0163 28.4034 54.3656L28.1793 55.9465C27.9461 57.5832 26.4531 59.1131 25.0235 59.1163C24.8396 59.1163 24.5398 59.0747 24.3544 59.0282C24.2229 59.3033 23.9695 60.0188 23.8722 60.3696C24.0931 60.4469 24.3698 60.5721 24.7221 60.5721C26.5025 60.5675 27.2583 59.4671 27.9166 58.2277L28.0031 58.0655C28.0031 58.0655 27.9336 59.8335 28.0541 60.3496H29.8067C30.2116 60.3496 30.2735 60.1395 30.2456 59.9061C30.2147 59.6712 30.1019 58.4409 30.2456 57.3592L30.7031 54.1061C30.9441 52.3038 30.0323 51.871 28.3401 51.8556ZM11.2411 52.5154C11.2411 52.5154 11.1268 53.1909 11.8393 53.1909H15.8884L14.8777 60.351H16.6115C17.1339 60.351 17.2112 59.8795 17.2112 59.8795L18.1508 53.1909H19.1122C19.2975 53.1909 19.4768 53.1476 19.5633 52.8508C19.6499 52.5543 19.7149 51.8556 19.7149 51.8556H11.3601C11.3168 52.055 11.2768 52.2837 11.2411 52.5154Z" fill="#ACACAC"/>
<path d="M70.1493 64.6723H68.3474L65.7417 67.1419L66.0478 65.1854L66.1297 64.6723H65.156C64.8717 64.6723 64.7218 64.7898 64.68 65.0694C64.6754 65.0973 64.6662 65.1623 64.6537 65.2518L63.9397 70.324L63.8624 70.882C63.8624 70.882 64.5146 70.882 64.8422 70.882C65.1699 70.882 65.2749 70.6749 65.3089 70.4245C65.343 70.1725 65.5006 68.8558 65.5006 68.8558L66.2099 68.2345L67.8093 70.8819H69.5727L67.2191 67.2885L70.1493 64.6723ZM61.8689 65.0694C61.8658 65.0973 61.8565 65.1623 61.8425 65.2518L61.4345 68.6194L58.8243 64.6723H57.6714L56.8802 70.2993L56.7966 70.8821H57.758C58.0454 70.8821 58.1907 70.7631 58.2323 70.4848C58.237 70.4539 58.2493 70.389 58.2618 70.2994H58.2586L58.6805 66.9318L61.2815 70.8821H62.4329L63.2241 65.252L63.3045 64.6725H62.3449C62.0604 64.6724 61.9137 64.7897 61.8689 65.0694ZM52.4648 68.5931L53.6641 66.1482L54.1757 68.5931H52.4648ZM54.5465 64.561H53.6517C53.3193 64.561 53.1911 64.6383 53.0443 64.9042C52.9021 65.17 49.8236 70.8821 49.8236 70.8821H51.3381L51.9608 69.6256H54.3903L54.6623 70.8821H55.8043C56.132 70.8821 56.1475 70.7676 56.0547 70.3922C55.9621 70.0196 54.5465 64.561 54.5465 64.561ZM48.4853 66.5082C48.4389 66.8575 48.2936 67.1188 47.694 67.1188H46.3324L46.5009 65.9009H47.915C48.4728 65.9009 48.5332 66.1744 48.4853 66.5082ZM48.3616 68.9068C48.306 69.3024 48.1329 69.6501 47.4621 69.6501H45.9753L46.1855 68.1604H47.6352C48.306 68.1604 48.4172 68.5097 48.3616 68.9068ZM49.2054 67.4248C49.5146 67.2532 49.8529 66.8575 49.9318 66.3134C50.0771 65.2797 49.6011 64.6722 48.0773 64.6722H45.7019C45.4175 64.6769 45.2676 64.7897 45.2274 65.0693C45.2228 65.0972 45.2136 65.1622 45.1998 65.2517V65.2547L44.4115 70.8819H47.402C49.0293 70.8819 49.6815 70.0226 49.8408 68.8912C49.9286 68.2716 49.6953 67.638 49.2054 67.4248ZM40.3716 65.0694C40.3686 65.0973 40.3577 65.1623 40.3453 65.2518L39.9372 68.6194L37.3255 64.6723H36.171L35.3828 70.2993L35.2993 70.8821H36.2589C36.545 70.8821 36.6933 70.7631 36.735 70.4848C36.7396 70.4539 36.7489 70.389 36.7613 70.2994L37.1832 66.9318L39.7811 70.8821H40.934L41.7252 65.252L41.8055 64.6725H40.8473C40.5632 64.6724 40.4148 64.7897 40.3716 65.0694ZM26.1612 65.0694C26.1566 65.0973 26.1473 65.1623 26.1349 65.2518L25.4208 70.3504L25.3466 70.882H26.3203C26.6046 70.882 26.7499 70.763 26.7932 70.4847C26.7963 70.4601 26.8025 70.4137 26.8134 70.3504L26.8196 70.3055C26.8196 70.3024 26.8196 70.3008 26.8196 70.2992L27.5289 65.2518L27.6107 64.6723H26.6357C26.3512 64.6723 26.2028 64.7897 26.1612 65.0694ZM23.3532 65.0694C23.3485 65.0942 23.3408 65.1436 23.3315 65.2132H23.3298L23.3268 65.2502C23.3268 65.2518 23.3268 65.2518 23.3252 65.2518L22.9172 68.6194L20.3053 64.6723H19.1494L18.3581 70.3348L18.2808 70.882H19.2405C19.525 70.882 19.6716 70.763 19.7149 70.4847C19.7196 70.4601 19.7272 70.4105 19.7366 70.3425L19.7397 70.318C19.7427 70.3116 19.7427 70.3056 19.7427 70.2993L20.1646 66.9317L22.7626 70.882H23.9155L24.7067 65.2518L24.787 64.6723H23.8288C23.5432 64.6723 23.3948 64.7897 23.3532 65.0694ZM16.4543 65.0694C16.411 65.3476 15.9411 68.7182 15.9411 68.7182C15.8329 69.4616 15.2704 69.7723 14.3617 69.7723C13.4546 69.7723 12.977 69.4618 13.0851 68.7182C13.0851 68.7182 13.5641 65.3013 13.6012 65.0216C13.6399 64.7433 13.4159 64.6723 13.2211 64.6723H12.2629L11.6787 68.8312C11.4839 70.2111 12.2908 71.0272 14.1856 71.0272C16.0865 71.0272 17.1204 70.2111 17.3135 68.8312L17.8977 64.6723H16.938C16.6521 64.6723 16.4976 64.7897 16.4543 65.0694ZM33.1528 67.7754C32.9751 69.0414 32.4681 69.8232 31.1653 69.8232C29.861 69.8232 29.5719 69.0414 29.7512 67.7754C29.9305 66.5082 30.4375 65.7262 31.7418 65.7262C33.0462 65.7262 33.3337 66.5082 33.1528 67.7754ZM31.9087 64.5225C29.7374 64.5225 28.6354 65.7263 28.348 67.7754C28.0605 69.8232 28.824 71.0272 30.9969 71.0272C33.1682 71.0272 34.2702 69.8232 34.553 67.7754C34.8419 65.7263 34.0816 64.5225 31.9087 64.5225Z" fill="#ACACAC"/>
</g>
<defs>
<clipPath id="clip0_3293_299825">
<rect width="80" height="70.0537" fill="white" transform="translate(0.990234 0.973633)"/>
</clipPath>
</defs>
</svg>
