<svg width="151" height="42" viewBox="0 0 151 42" fill="none" xmlns="http://www.w3.org/2000/svg">
<g clip-path="url(#clip0_3293_290875)">
<path d="M0.990234 24.6644H150.989V42H0.990234V24.6644Z" fill="#ACACAC"/>
<path fill-rule="evenodd" clip-rule="evenodd" d="M0.990234 22.8318V-0.000137329H150.989V22.8318H146.564H95.4335H69.888H60.4183C53.8956 22.8318 51.5707 18.6293 44.2736 18.6293C36.9776 18.6293 34.8138 22.8644 28.1294 22.8318H18.752H0.990234Z" fill="#E0E0E0"/>
<path fill-rule="evenodd" clip-rule="evenodd" d="M98.9035 31.7673C98.9035 31.1584 98.5347 30.4118 97.9442 30.0573C97.384 29.7172 96.8092 29.5759 95.8201 29.5759C92.6486 29.5759 91.1582 32.2258 91.1582 34.3942C91.1582 36.2219 92.264 38.6162 95.3334 38.6162C96.8238 38.6162 97.9004 37.8942 98.8743 36.8028L98.3281 36.25C97.709 36.9166 96.794 37.5117 95.8201 37.5117C94.8316 37.5117 93.9172 36.8354 93.5921 35.3478C97.8858 34.6824 98.9035 33.0422 98.9035 31.7673ZM96.794 31.7307C96.794 33.1754 95.6287 33.8374 93.4743 34.4468C93.4597 34.2764 93.4597 34.2101 93.4597 34.0255C93.4597 31.8016 94.5812 30.4975 95.5843 30.4975C96.3073 30.4975 96.794 30.9366 96.794 31.7307Z" fill="#242529"/>
<path d="M127.83 26.4868H130.043V28.2373H127.83V26.4868Z" fill="#242529"/>
<path d="M87.2715 26.4867H89.4843V38.4746H87.2715V26.4867Z" fill="#242529"/>
<path d="M106.83 38.4744V34.2936C106.21 35.7823 104.086 38.6162 101.961 38.6162C100.885 38.6162 100.5 38.0634 100.5 36.9726V29.7172H102.713V36.2597C102.713 36.5146 102.861 36.6987 103.112 36.6987C104.248 36.6987 106.83 33.3829 106.83 31.1727V29.7172H109.042V38.4744H106.83Z" fill="#242529"/>
<path d="M123.393 38.4746V31.9327C123.393 31.5782 123.187 31.493 122.995 31.493C121.859 31.493 119.543 34.7243 119.543 36.935V38.4746H117.329V31.9327C117.329 31.5782 117.123 31.493 116.931 31.493C115.795 31.493 113.48 34.7243 113.48 36.935V38.4746H111.266V29.7173H113.48V33.7558C114.084 32.2677 115.943 29.5761 118.082 29.5761C119.233 29.5761 119.543 30.1004 119.543 31.2192V33.7558C120.162 32.254 122.006 29.5761 124.145 29.5761C125.297 29.5761 125.607 30.1004 125.607 31.2192V38.4746H123.393Z" fill="#242529"/>
<path d="M127.83 29.7173H130.043V38.4746H127.83V29.7173Z" fill="#242529"/>
<path fill-rule="evenodd" clip-rule="evenodd" d="M112.471 13.6774L109.701 9.96081L113.029 9.95738L116.649 14.8734C116.649 14.8734 116.704 14.8408 116.841 14.627C117.151 14.0965 117.109 13.435 117.109 12.8422V9.95281L119.897 9.95566V11.3375C119.897 12.7861 119.697 13.8775 118.653 14.7734C118.318 15.0484 117.903 15.2982 117.451 15.5131L117.216 15.6332L120.291 19.7243L116.968 19.7266L113.114 14.4892C113.114 14.4892 113.083 14.4869 112.976 14.6396C112.625 15.1444 112.686 15.7921 112.686 16.3861V19.7266H109.866V17.8931C109.866 16.4439 110.096 15.3525 111.14 14.4572C111.475 14.1817 111.858 13.9621 112.311 13.7466L112.471 13.6774Z" fill="#242529"/>
<path fill-rule="evenodd" clip-rule="evenodd" d="M87.2994 16.0723L87.293 9.95337H90.1208L90.1196 15.157C90.1196 15.157 89.3389 15.5057 88.6847 15.7264C88.03 15.9471 87.2994 16.0723 87.2994 16.0723Z" fill="#242529"/>
<path fill-rule="evenodd" clip-rule="evenodd" d="M98.4094 19.8818C97.8661 19.8818 97.534 19.8613 97.2954 19.831C97.1863 19.8172 97.0935 19.8029 97.0165 19.7864L97.1682 18.8276C97.275 18.8482 97.3718 18.8534 97.5072 18.8534C97.9297 18.8534 98.3183 18.739 98.6282 18.4509C99.3319 17.8797 99.6062 16.6746 99.6062 14.8663C99.6062 13.0615 99.2672 11.8746 98.5984 11.3086C98.3364 11.0874 98.0231 10.9753 97.6712 10.9753C97.3421 10.9753 97.0602 11.0708 96.8011 11.2904C96.1499 11.8655 95.7601 12.8499 95.5185 14.712L95.026 19.7269H92.0879L92.5868 15.1019C92.7625 13.6646 92.9591 12.7407 94.0311 11.8558C94.3684 11.5768 94.6193 11.3933 94.9367 11.2126L94.998 11.1783L94.9986 10.9782H92.2886C92.2886 10.9782 92.2898 9.95429 92.2886 9.95429L98.3849 9.95372C99.5794 9.95372 100.504 10.2487 101.193 10.8324C102.055 11.5808 102.555 12.8648 102.555 14.8046C102.555 16.8233 102.007 18.1936 101.117 18.9854C100.449 19.5691 99.5251 19.8818 98.4094 19.8818Z" fill="#242529"/>
<path fill-rule="evenodd" clip-rule="evenodd" d="M104.779 9.95378H107.643L107.645 19.7275L104.775 19.727L104.779 9.95378Z" fill="#242529"/>
<path fill-rule="evenodd" clip-rule="evenodd" d="M123.774 19.8447C123.785 19.8453 123.785 18.8614 123.773 18.8477C124.292 18.7288 124.849 18.4767 125.308 18.1085C126.4 17.2304 127.223 15.7302 127.223 13.7098C127.223 12.5327 126.945 11.9101 126.469 11.4819C125.987 11.048 125.312 10.9531 124.801 10.9531H122.647C122.152 10.9531 121.858 10.9119 121.68 10.745C121.525 10.5998 121.453 10.394 121.453 10.1361V7.41372H124.301L124.301 9.48555C124.301 10.0207 124.824 9.95377 125.124 9.95377H126.588C127.745 9.95377 128.55 10.1939 129.113 10.6347C129.862 11.2132 130.197 12.1948 130.197 13.6481C130.197 15.5038 129.43 17.0743 128.129 18.1759C127.026 19.109 125.513 19.7041 123.774 19.8447Z" fill="#242529"/>
</g>
<defs>
<clipPath id="clip0_3293_290875">
<rect width="150" height="42" fill="white" transform="translate(0.990234)"/>
</clipPath>
</defs>
</svg>
