<svg width="141" height="48" viewBox="0 0 141 48" fill="none" xmlns="http://www.w3.org/2000/svg">
<g clip-path="url(#clip0_3293_290907)">
<path d="M69.7168 38.9611C88.2549 38.9611 121.449 36.4283 136.24 25.6572C136.373 25.5593 136.726 25.364 136.991 25.4942C137.148 25.5704 137.201 25.6713 137.278 25.8176C137.62 26.4679 137.745 27.1682 137.797 28.0622C137.849 28.9442 137.866 29.48 137.553 30.3145C137.437 30.6263 137.346 30.7927 137.151 31.0657C136.997 31.2816 136.805 31.4905 136.698 31.5813C136.312 31.9078 135.233 32.6494 135.138 32.715C118.873 43.8454 89.6084 47.2207 69.7354 47.2207H69.1969C49.3234 47.2207 20.0591 43.8454 3.79532 32.715C3.69935 32.6494 2.62058 31.9078 2.23449 31.5813C2.12699 31.4905 1.93559 31.2816 1.78093 31.0657C1.58569 30.7927 1.4952 30.6263 1.37838 30.3145C1.06578 29.48 1.08278 28.9442 1.13543 28.0622C1.18753 27.1682 1.31257 26.4679 1.65425 25.8176C1.73157 25.6713 1.78477 25.5704 1.94053 25.4942C2.20597 25.364 2.56025 25.5593 2.69133 25.6572C17.4831 36.4283 50.6763 38.9611 69.2155 38.9611H69.7168Z" fill="#E0E0E0"/>
<path d="M27.0961 13.3573V7.25558C27.0961 2.39243 26.1829 0.66795 22.5781 0.66795H14.4076V6.45994H16.7148C17.9642 6.45994 18.1084 6.9463 18.1084 9.68791V14.1091C18.1084 16.4526 16.955 17.9556 14.5995 17.9556C12.1968 17.9556 10.947 16.5414 10.947 14.1091V0.66795H2.10352V13.3573C2.10352 21.007 7.15018 23.8369 14.5995 23.8369C22.1937 23.8369 27.0961 21.0953 27.0961 13.3573Z" fill="#E0E0E0"/>
<path d="M41.6649 17.4692V8.71465C41.6649 2.92266 40.992 0.667921 36.955 0.667921H28.7839V6.45991H31.2354C32.533 6.45991 32.629 7.69802 32.629 9.20152V15.2589C32.629 17.2926 32.3888 17.4692 31.7641 17.4692H27.4863V23.2617H38.733C40.7035 23.2617 41.6649 22.1124 41.6649 17.4692Z" fill="#E0E0E0"/>
<path d="M53.2512 23.2617V5.04521C53.2512 2.43629 51.8094 0.667923 48.3965 0.667923H43.0137V6.45991C43.8791 6.45991 44.263 6.90188 44.263 7.74242V23.2617H53.2512Z" fill="#E0E0E0"/>
<path fill-rule="evenodd" clip-rule="evenodd" d="M79.5933 10.1736C79.5933 2.30349 77.5263 0.667812 72.8174 0.667812H54.6973V6.4598H67.8662C69.8844 6.4598 70.3654 6.94617 70.3654 11.102C70.3654 15.5237 68.3949 17.4691 65.6078 17.4691V23.2616H68.3472C73.1536 23.2616 79.5933 20.52 79.5933 10.1736ZM54.8898 31.3164H63.6855V10.3462H54.8898V31.3164Z" fill="#E0E0E0"/>
<path fill-rule="evenodd" clip-rule="evenodd" d="M105.983 13.534V5.48674C105.983 1.68411 104.205 0.667488 101.994 0.667488H84.9315C82.5766 0.667488 80.8945 1.77241 80.8945 5.48674V13.534C80.8945 21.5363 87.3348 23.8359 93.5348 23.8359C100.023 23.8359 105.983 21.7134 105.983 13.534ZM97.0914 14.1086C97.0914 16.5849 95.8903 17.9547 93.5348 17.9547C91.1798 17.9547 89.7863 16.5405 89.7863 14.1086V8.80301C89.7863 6.94584 89.9777 6.45947 91.2281 6.45947H95.6972C96.9471 6.45947 97.0914 6.94584 97.0914 8.80301V14.1086Z" fill="#E0E0E0"/>
<path d="M117.523 13.7109V5.04465C117.523 2.43624 116.562 0.667358 113.149 0.667358H107.334V6.45935C108.295 6.45935 108.535 6.90182 108.535 7.74186V13.7109H117.523Z" fill="#E0E0E0"/>
<path d="M140.99 6.45991V0.667921H118.785V6.45991H130.897C129.551 7.25555 127.868 9.2893 127.868 12.5617V23.2617H136.809V10.8816C136.809 8.58247 137.289 7.03456 138.251 6.45991H140.99Z" fill="#E0E0E0"/>
<path d="M69.7168 38.9611C88.2549 38.9611 121.449 36.4283 136.24 25.6572C136.373 25.5593 136.726 25.364 136.991 25.4942C137.148 25.5704 137.201 25.6713 137.278 25.8176C137.62 26.4679 137.745 27.1682 137.797 28.0622C137.849 28.9442 137.866 29.48 137.553 30.3145C137.437 30.6263 137.346 30.7927 137.151 31.0657C136.997 31.2816 136.805 31.4905 136.698 31.5813C136.312 31.9078 135.233 32.6494 135.138 32.715C118.873 43.8454 89.6084 47.2207 69.7354 47.2207H69.1969C49.3234 47.2207 20.0591 43.8454 3.79532 32.715C3.69935 32.6494 2.62058 31.9078 2.23449 31.5813C2.12699 31.4905 1.93559 31.2816 1.78093 31.0657C1.58569 30.7927 1.4952 30.6263 1.37838 30.3145C1.06578 29.48 1.08278 28.9442 1.13543 28.0622C1.18753 27.1682 1.31257 26.4679 1.65425 25.8176C1.73157 25.6713 1.78477 25.5704 1.94053 25.4942C2.20597 25.364 2.56025 25.5593 2.69133 25.6572C17.4831 36.4283 50.6763 38.9611 69.2155 38.9611H69.7168Z" fill="#E0E0E0"/>
</g>
<defs>
<clipPath id="clip0_3293_290907">
<rect width="140" height="46.6667" fill="white" transform="translate(0.990234 0.666992)"/>
</clipPath>
</defs>
</svg>
