<svg width="16" height="17" viewBox="0 0 16 17" fill="none" xmlns="http://www.w3.org/2000/svg">
<path d="M8.02516 2.69336C4.73174 2.69336 2.05148 5.27491 2.05032 8.44755C2.04955 9.46213 2.32516 10.4523 2.84774 11.3245L2 14.3063L5.16761 13.5061C6.04873 13.967 7.02845 14.2075 8.02284 14.2068H8.02516C11.3186 14.2068 13.9988 11.6248 14 8.4522C14.0008 6.91542 13.3799 5.46884 12.2515 4.38149C11.1235 3.29375 9.62348 2.69375 8.02516 2.69336ZM8.02516 13.2348H8.02323C7.13213 13.2348 6.25806 13.0041 5.49548 12.5682L5.31355 12.4645L3.43458 12.939L3.93626 11.1739L3.81819 10.9931C3.32229 10.2368 3.0583 9.35197 3.05871 8.44755C3.05987 5.81026 5.288 3.66536 8.0271 3.66536C9.35329 3.66575 10.6001 4.16394 11.5381 5.06781C12.476 5.97168 12.992 7.17362 12.9912 8.45181C12.9901 11.0891 10.7623 13.2348 8.02477 13.2348H8.02516ZM10.7492 9.6522C10.5997 9.58059 9.86581 9.23259 9.72877 9.1842C9.59213 9.13659 9.49265 9.11181 9.39316 9.25581C9.29406 9.39981 9.00761 9.72381 8.9209 9.81942C8.83342 9.91542 8.74632 9.92704 8.5969 9.85542C8.44748 9.78342 7.96632 9.63168 7.39652 9.14162C6.95252 8.76072 6.6529 8.29 6.56581 8.14562C6.47871 8.002 6.55652 7.9242 6.63123 7.85259C6.69819 7.78871 6.78064 7.68497 6.85497 7.60097C6.92929 7.51697 6.95406 7.45697 7.00439 7.36097C7.05394 7.26536 7.02916 7.18097 6.99161 7.10936C6.95406 7.03697 6.656 6.32936 6.53097 6.04175C6.41019 5.76149 6.2871 5.79904 6.19535 5.79439C6.10826 5.79052 6.00916 5.78936 5.9089 5.78936C5.81019 5.78936 5.648 5.82536 5.51097 5.96936C5.37432 6.11336 4.98839 6.46097 4.98839 7.16859C4.98839 7.87659 5.52335 8.5602 5.59806 8.6562C5.67277 8.75181 6.65097 10.2046 8.14864 10.8278C8.50477 10.9753 8.78271 11.0639 8.99987 11.1305C9.35755 11.2401 9.6831 11.2242 9.94013 11.1874C10.2266 11.146 10.8235 10.8398 10.9474 10.5042C11.072 10.1686 11.072 9.88059 11.0348 9.82059C10.9985 9.76059 10.8986 9.72459 10.7492 9.6522Z" fill="#D0D0D0"/>
</svg>
