<svg width="151" height="54" viewBox="0 0 151 54" fill="none" xmlns="http://www.w3.org/2000/svg">
<g clip-path="url(#clip0_3293_291035)">
<path d="M35.4448 24.6101L39.0828 28.0221C39.7088 28.6088 39.4721 28.8274 39.1844 28.8354L34.0032 28.9726C33.6328 28.9802 33.1558 28.7311 32.7665 28.3646L28.9415 24.7646C28.139 24.0099 27.8207 23.058 28.2006 22.5993L31.6765 18.3899C32.0185 17.9766 31.7711 17.0673 31.0149 16.3526L27.5887 13.1113C26.7721 12.338 26.4171 11.3779 26.8077 10.9113L30.3771 6.66327C30.6434 6.34466 30.9711 6.07263 31.4919 6.0673L36.3559 6.01932C36.7477 6.01554 37.1086 6.49794 36.9548 6.68593L33.4067 10.9993C33.0623 11.4193 33.4202 12.3366 34.15 13.0393L37.4447 16.2059C38.2578 16.9873 38.6128 17.9366 38.2258 18.4073L34.8032 22.5606C34.4458 22.9953 34.6943 23.9061 35.4448 24.6101ZM25.165 21.6553C25.978 22.4366 26.3331 23.3846 25.9461 23.8566L22.5247 28.01C22.1637 28.4487 22.4123 29.3553 23.1649 30.0592L26.8562 33.5113C27.3556 33.9793 27.3319 34.2966 26.8864 34.306L21.7241 34.422C21.3513 34.4296 20.8791 34.1805 20.4873 33.8154L16.6623 30.2153C15.8599 29.4606 15.5392 28.51 15.9215 28.0487L19.3997 23.8393C19.7406 23.4233 19.492 22.5166 18.7358 21.802L15.6931 18.922C14.8895 18.1673 14.5712 17.2193 14.9511 16.7567L18.4281 12.5473C18.7725 12.1313 18.5217 11.2246 17.7677 10.51L14.3404 7.26864C13.5203 6.49399 13.1676 5.53665 13.5581 5.06867L17.1275 0.820677C17.3938 0.504708 17.7216 0.229976 18.2423 0.224647L23.1182 0.186123C23.4319 0.167225 23.8756 0.618113 23.6898 0.860758L20.1583 5.15679C19.8116 5.57945 20.1684 6.4941 20.8992 7.19811L24.1952 10.3634C25.0082 11.1448 25.3633 12.0928 24.9763 12.5648L21.5548 16.7181C21.1939 17.1567 21.4659 18.0448 22.1975 18.7674L25.165 21.6553ZM9.78696 24.7046L13.425 28.1167C14.0498 28.7033 13.8143 28.9206 13.528 28.9286L8.34548 29.0658C7.97388 29.0771 7.49818 28.8258 7.1088 28.4592L3.2838 24.8592C2.48024 24.1045 2.16302 23.1525 2.54294 22.6925L6.01878 18.4832C6.36083 18.0698 6.11236 17.1605 5.35839 16.4472L1.93108 13.2058C1.11329 12.4312 0.757045 11.4725 1.15116 11.0058L4.72052 6.75652C4.98555 6.43904 5.31464 6.16721 5.83301 6.16188L10.6971 6.11384C11.0888 6.11006 11.4509 6.59119 11.2959 6.77919L7.74902 11.0938C7.40345 11.5139 7.76244 12.4325 8.48988 13.1338L11.787 16.3005C12.6001 17.0832 12.9551 18.0285 12.5658 18.5005L9.14551 22.6539C8.78693 23.0899 9.03547 23.9993 9.78696 24.7046Z" fill="#ACACAC"/>
<path d="M50.4949 47.3847L49.9292 42.1768H47.502L48.07 47.3847C48.4167 47.5594 48.8345 47.6289 49.2677 47.6289C49.7008 47.6289 50.1281 47.5597 50.4949 47.3847Z" fill="#E0E0E0"/>
<path d="M59.0186 47.9781C58.9951 47.7687 58.9713 47.5421 58.9216 47.3141L58.466 45.0608C58.1027 43.2421 57.3891 42.1768 55.8766 42.1768H51.1309C51.2385 43.1554 51.706 44.1168 52.2339 44.1168L52.0765 50.9488H54.5015L54.5783 44.1168H55.0469C55.4919 44.1168 55.9132 44.4486 56.0671 45.1994L56.5132 47.4714C56.5199 47.5421 56.5368 47.5942 56.5468 47.6634C56.6179 48.3114 56.4026 48.9221 55.8557 48.9567L55.4947 48.9757C55.2106 49.2731 55.0367 50.373 55.0415 50.9504H56.9409C58.2191 50.9504 59.2517 50.1275 59.0186 47.9781Z" fill="#E0E0E0"/>
<path d="M63.1836 50.9489L62.2297 42.2129H59.7207L60.6746 50.9489H63.1836Z" fill="#E0E0E0"/>
<path d="M71.9448 50.9487L69.7116 47.6635C70.953 47.2275 71.1222 45.9861 71.0027 44.8848L70.7068 42.1768H68.2689L68.663 45.7941H68.547L66.1137 42.1768H63.4414L65.5551 45.3394C64.374 45.7941 64.2177 47.1581 64.3361 48.2407L64.632 50.9487H67.0688L66.6853 47.4368L66.7977 47.3846L69.1682 50.9486L71.9448 50.9487Z" fill="#E0E0E0"/>
<path d="M78.0476 43.8905C77.9483 42.9812 77.5553 42.1771 76.6784 42.1771H74.38C74.2415 42.1771 74.1409 42.0199 74.1198 41.8279L73.9104 39.9066C73.6393 39.7837 73.276 39.6787 72.7257 39.6787C72.1742 39.6787 71.818 39.8533 71.5742 40.08L71.8711 42.8067C71.9526 43.5574 72.3575 44.152 72.8144 44.152H75.1695C75.4986 44.152 75.6239 44.344 75.6642 44.7107C75.6742 44.7987 75.6709 44.8853 75.6709 44.9907L75.6944 47.56C75.7078 48.4334 75.4139 48.9587 74.7452 48.9587H73.9132C73.6341 49.3068 73.4328 50.3547 73.4493 50.9494H75.537C77.0719 50.9494 78.1737 49.8667 78.13 47.6467L78.0696 44.2921C78.0662 44.1523 78.0611 44.0292 78.0476 43.8905Z" fill="#E0E0E0"/>
<path d="M83.9766 49.7087L83.4712 45.0781C83.2572 43.1034 82.4984 42.1768 81.128 42.1768H78.9717C78.975 42.2146 78.9683 42.2474 78.9717 42.2822C79.0555 43.0515 79.4237 43.7502 79.7102 44.1169H80.1682C80.6132 44.1169 80.9943 44.5008 81.07 45.1995L81.4546 48.7128C81.4815 48.9581 81.4714 48.9755 81.3647 48.9755H80.1931C79.9009 49.4115 79.7718 50.3729 79.7753 50.9489H83.2796C83.8074 50.9489 84.0701 50.5647 83.9766 49.7087Z" fill="#E0E0E0"/>
<path d="M87.4996 47.3847L86.9316 42.1768H84.5078L85.0735 47.3847C85.4214 47.5594 85.8392 47.6289 86.2724 47.6289C86.7079 47.6289 87.1328 47.5597 87.4996 47.3847Z" fill="#E0E0E0"/>
<path d="M95.3679 48.9577H93.9146C94.5927 48.7309 94.7277 47.7164 94.633 46.843L94.4294 44.9737C94.2626 43.4351 93.3748 42.1777 92.344 42.1777H88.0078C88.1239 42.9284 88.4918 43.627 88.8623 44.1177H90.6434C91.3831 44.1177 91.9488 44.4843 92.0837 45.707L92.2682 47.4017C92.4091 48.6951 91.7226 48.9577 91.1723 48.9577H89.4491C89.0254 49.3777 88.8716 50.2164 88.8219 50.9484H94.918C95.3772 50.443 95.4425 49.6377 95.3679 48.9577Z" fill="#E0E0E0"/>
<path d="M102.924 50.9488L102.302 45.2528C102.057 42.9981 101.193 42.1768 99.9164 42.1768H95.4512C95.6454 43.1034 96.0192 43.7328 96.3199 44.1168L98.9235 44.1357C99.5318 44.1357 99.8016 44.6596 99.8868 45.4463L100.487 50.9504L102.924 50.9488ZM99.0454 50.9488L98.4596 45.5848H98.3529C97.6167 45.5848 96.5659 46.0568 96.2226 46.6674L96.6901 50.9488H99.0454Z" fill="#E0E0E0"/>
<path d="M115.394 50.9487L114.756 45.0954C114.511 42.8421 113.582 42.1768 112.213 42.1768H107.02C107.156 42.9981 107.588 43.7328 107.887 44.1168H108.368L108.85 48.5381C108.885 48.8526 108.781 48.9741 108.569 48.9741H108.147C107.855 49.4114 107.796 50.3727 107.799 50.9487H109.745C110.941 50.9487 111.42 49.9714 111.246 48.3621L110.782 44.1168H111.497C112.024 44.1168 112.275 44.5888 112.36 45.3754L112.969 50.9487H115.394Z" fill="#E0E0E0"/>
<path d="M122.426 44.1862L122.207 42.1769H119.769L120.062 44.8503L119.967 45.0608L118.116 42.1768H115.246L119.676 48.9568H116.91C116.563 49.201 116.322 50.0061 116.284 50.9488H122.062C122.636 50.9488 122.937 50.3715 122.865 49.7088C122.827 49.3766 122.655 48.9741 122.474 48.7115L121.342 47.1395C122.584 46.7021 122.546 45.2876 122.426 44.1862Z" fill="#E0E0E0"/>
<path d="M127.117 50.9489L126.166 42.2129H123.658L124.611 50.9489H127.117Z" fill="#E0E0E0"/>
<path d="M134.688 48.9577H133.235C133.913 48.7309 134.05 47.7164 133.956 46.843L133.752 44.9737C133.583 43.4351 132.695 42.1777 131.664 42.1777H127.328C127.445 42.9284 127.815 43.627 128.185 44.1177H129.966C130.703 44.1177 131.271 44.4843 131.406 45.707L131.59 47.4017C131.731 48.6951 131.043 48.9577 130.493 48.9577H128.772C128.346 49.3777 128.192 50.2164 128.142 50.9484H134.238C134.7 50.443 134.764 49.6377 134.688 48.9577Z" fill="#E0E0E0"/>
<path d="M142.103 43.8194C141.959 42.4914 141.409 42.1768 140.706 42.1768H134.658C134.721 42.7541 135.114 43.6807 135.513 44.1168H139.089C139.486 44.1168 139.676 44.3435 139.727 44.8154C139.74 44.9382 139.754 45.0607 139.747 45.2168L139.717 47.2088C139.703 48.2928 139.567 48.9581 138.816 48.9581C138.646 49.3247 138.608 50.4781 138.577 50.9487H139.772C141.309 50.9487 142.04 50.1274 142.099 47.1221L142.146 44.5541C142.153 44.2914 142.127 44.0287 142.103 43.8194ZM138.68 53.8154L137.747 45.2701C137.701 45.2701 137.641 45.2512 137.582 45.2512C136.902 45.2512 135.804 45.8272 135.532 46.5445L136.325 53.8138L138.68 53.8154Z" fill="#E0E0E0"/>
<path d="M150.955 47.9781C150.931 47.7687 150.908 47.5421 150.86 47.3141L150.402 45.0608C150.039 43.2421 149.328 42.1768 147.815 42.1768H143.068C143.175 43.1554 143.642 44.1168 144.17 44.1168L144.013 50.9488H146.438L146.515 44.1168H146.983C147.428 44.1168 147.852 44.4486 148.003 45.1994L148.452 47.4714C148.459 47.5421 148.475 47.5942 148.486 47.6634C148.555 48.3114 148.341 48.9221 147.794 48.9567L147.433 48.9757C147.148 49.2731 146.975 50.373 146.979 50.9504H148.878C150.155 50.9504 151.188 50.1275 150.955 47.9781Z" fill="#E0E0E0"/>
<path d="M65.5766 6.23047H42.6113C42.9758 8.56512 44.1936 10.0025 45.454 11.2145H52.5146C53.3088 11.2145 53.5975 11.7971 53.7371 12.6958L56.2579 28.7692H64.5091L62.025 12.9198C61.8405 11.7532 62.232 11.2145 63.1836 11.2145H64.4547C65.4855 9.95712 65.5411 8.02646 65.5766 6.23047Z" fill="#E0E0E0"/>
<path d="M91.9181 10.5411C91.5512 8.20644 90.2127 6.23047 87.473 6.23047H68.7528C67.2841 6.23047 66.8663 7.35313 67.0569 8.56511C67.0837 8.74501 67.1196 8.97048 67.1884 9.14914L72.2418 25.4478C72.8903 27.5571 73.8739 28.7704 75.8171 28.7704H85.6541C89.6602 28.7704 91.7963 25.4478 91.8709 21.6304L92.0531 12.1571C92.0464 11.6185 92.0033 11.0797 91.9181 10.5411ZM84.0221 13.0544C84.0586 13.2797 84.0684 13.5945 84.0623 13.8185L84.0925 21.0918C84.106 22.7091 83.0665 23.6518 81.9552 23.6518H80.4475C79.8522 23.6518 79.4652 23.2025 79.1977 22.2598L76.4011 11.7531C76.3944 11.7077 76.3408 11.6185 76.3324 11.5732C76.2911 11.3052 76.3951 11.2145 76.6732 11.2145H82.187C83.3374 11.2145 83.8611 12.0224 84.0221 13.0544Z" fill="#E0E0E0"/>
<path d="M119.409 21.1372C119.324 20.5985 119.233 20.0145 119.061 19.4305L117.44 13.6385C116.154 8.96914 113.7 6.23047 108.583 6.23047H92.5195C92.9148 8.74514 94.5303 11.2145 96.3149 11.2145L96.012 28.7692H104.224L104.248 11.2145H105.835C107.342 11.2145 108.784 12.0665 109.325 13.9972L110.913 19.8345C110.943 20.0144 111.004 20.1493 111.031 20.3278C111.292 21.9905 110.586 23.5612 108.737 23.6518L107.513 23.6957C106.561 24.4597 106.015 27.2876 106.047 28.769H112.473C116.797 28.769 120.273 26.6598 119.409 21.1372Z" fill="#E0E0E0"/>
<path d="M149.376 36.2819H46.7322L46.4102 34.5752H149.054L149.376 36.2819Z" fill="url(#paint0_linear_3293_291035)"/>
</g>
<defs>
<linearGradient id="paint0_linear_3293_291035" x1="149.373" y1="36.2782" x2="50.2573" y2="54.9779" gradientUnits="userSpaceOnUse">
<stop stop-color="white"/>
<stop offset="0.467" stop-color="#D6D6D6"/>
<stop offset="1" stop-color="#D6D6D6"/>
</linearGradient>
<clipPath id="clip0_3293_291035">
<rect width="150" height="53.6297" fill="white" transform="translate(0.990234 0.185547)"/>
</clipPath>
</defs>
</svg>
