<svg width="104" height="47" viewBox="0 0 104 47" fill="none" xmlns="http://www.w3.org/2000/svg">
<g clip-path="url(#clip0_3293_50751)">
<path d="M0.0390625 46.4293L0.044181 36.2344L3.74562 36.2358C4.46295 36.2358 5.0567 36.3553 5.52687 36.5928C5.99705 36.8303 6.34949 37.1511 6.58275 37.5537C6.81601 37.9571 6.93301 38.4107 6.93228 38.9151C6.93228 39.3399 6.85477 39.6976 6.69975 39.9874C6.54473 40.278 6.33853 40.5103 6.08041 40.6843C5.82228 40.8584 5.53784 40.9852 5.22853 41.0649V41.1644C5.56416 41.1814 5.89248 41.2898 6.21276 41.4911C6.53376 41.6925 6.7992 41.9771 7.00979 42.3451C7.22038 42.7139 7.32567 43.1615 7.32494 43.6896C7.32494 44.211 7.20356 44.6778 6.96153 45.0908C6.71949 45.5038 6.34657 45.8305 5.84349 46.0709C5.33968 46.3113 4.69621 46.4315 3.9138 46.4308L0.0390625 46.4293ZM1.56512 45.1107L3.76609 45.1114C4.49658 45.1114 5.02014 44.9691 5.33602 44.6844C5.65191 44.399 5.80985 44.0428 5.81059 43.6143C5.81059 43.2928 5.73015 42.9971 5.56928 42.7279C5.40841 42.4587 5.17881 42.2448 4.8812 42.0855C4.5836 41.9262 4.23042 41.8459 3.8224 41.8459L1.56658 41.8451L1.56512 45.1107ZM1.56731 40.646L3.61034 40.6467C3.95255 40.6467 4.26113 40.5803 4.53607 40.4476C4.81101 40.3156 5.02964 40.1283 5.1927 39.8878C5.35577 39.6474 5.43693 39.3628 5.43766 39.0346C5.43766 38.6135 5.29142 38.2595 4.99893 37.9741C4.70644 37.6887 4.25747 37.5456 3.65202 37.5456L1.56951 37.5449L1.56731 40.646Z" fill="#FBE54D"/>
<path d="M13.7716 36.2437L12.0101 36.2422L8.36719 46.4349L9.98611 46.4364L10.9133 43.7379L14.8634 43.7401L15.7854 46.4386L17.4043 46.4401L13.7716 36.2437ZM11.3579 42.4437L12.8525 38.094H12.9315L14.4188 42.4459L11.3579 42.4437Z" fill="#FBE54D"/>
<path d="M27.0235 36.2466L27.0183 46.4415L25.6166 46.4408L20.482 38.9613H20.3884L20.3847 46.4378L18.8594 46.4371L18.8645 36.2422L20.2758 36.2429L25.4148 43.732H25.5084L25.512 36.2451L27.0235 36.2466Z" fill="#FBE54D"/>
<path d="M29.2344 46.4449L29.2395 36.25L30.7648 36.2507L30.7626 41.1188H30.8862L35.128 36.2522L37.0482 36.2529L32.9694 40.8408L37.0584 46.4479L35.2223 46.4471L31.9574 41.891L30.7626 43.2745L30.7612 46.4457L29.2344 46.4449Z" fill="#FBE54D"/>
<path d="M39.9992 36.2585L39.9941 46.4535L38.4688 46.4527L38.4739 36.2578L39.9992 36.2585Z" fill="#FBE54D"/>
<path d="M42.2231 36.2578L44.0739 36.2586L47.2883 44.185H47.4068L50.6285 36.2615L52.4792 36.2622L52.4741 46.4572L51.0234 46.4564L51.027 39.0794H50.9334L47.9486 46.4402L46.7443 46.4395L43.7667 39.0706H43.6731L43.6695 46.4527L42.2188 46.452L42.2231 36.2578Z" fill="#FBE54D"/>
<path d="M63.4802 41.3641C63.4794 42.4526 63.282 43.3877 62.8864 44.1687C62.4916 44.9497 61.9504 45.5507 61.2646 45.9696C60.5779 46.3892 59.7992 46.5987 58.9276 46.598C58.0523 46.5972 57.2714 46.387 56.5862 45.9674C55.9003 45.547 55.36 44.9453 54.9658 44.1621C54.5717 43.3789 54.3743 42.4445 54.375 41.3589C54.3757 40.2704 54.5732 39.3353 54.9688 38.5543C55.3636 37.7733 55.9047 37.173 56.5906 36.7533C57.2765 36.3337 58.0574 36.1243 58.9327 36.125C59.8043 36.125 60.5838 36.3359 61.2697 36.7555C61.9556 37.1759 62.4959 37.7762 62.8901 38.5587C63.2842 39.3404 63.4809 40.2763 63.4802 41.3641ZM61.9702 41.3633C61.9709 40.5337 61.8386 39.8345 61.5739 39.2652C61.3092 38.6959 60.9472 38.2644 60.4887 37.9702C60.0303 37.6767 59.5111 37.5292 58.932 37.5292C58.3499 37.5292 57.8293 37.6759 57.3723 37.9687C56.9145 38.2622 56.5533 38.6936 56.2886 39.2622C56.0239 39.8308 55.8908 40.5307 55.8901 41.3604C55.8901 42.19 56.0217 42.8892 56.2864 43.4585C56.5511 44.0278 56.9116 44.4593 57.3694 44.7535C57.8264 45.047 58.3463 45.1945 58.929 45.1945C59.5082 45.1945 60.0273 45.0478 60.4865 44.755C60.9458 44.4615 61.3077 44.03 61.5731 43.4614C61.8371 42.8929 61.9695 42.1937 61.9702 41.3633Z" fill="white"/>
<path d="M73.5313 36.27L73.5261 46.465L72.1244 46.4642L66.9898 38.9847H66.8962L66.8925 46.4613L65.3672 46.4605L65.3723 36.2656L66.7836 36.2664L71.9226 43.7555H72.0162L72.0198 36.2686L73.5313 36.27Z" fill="white"/>
<path d="M75.75 46.4684L75.7551 36.2734L77.2804 36.2742L77.2761 45.1446L81.8564 45.1468L81.8557 46.4713L75.75 46.4684Z" fill="white"/>
<path d="M85.1242 36.2742L85.1191 46.4691L83.5938 46.4684L83.5989 36.2734L85.1242 36.2742Z" fill="white"/>
<path d="M95.5 36.2857L95.4949 46.4806L94.0931 46.4799L88.9585 39.0003H88.8649L88.8613 46.4769L87.3359 46.4762L87.3411 36.2812L88.7523 36.282L93.8913 43.7711H93.9849L93.9886 36.2842L95.5 36.2857Z" fill="white"/>
<path d="M97.7188 46.4762L97.7239 36.2812L104.061 36.2842L104.061 37.608L99.2485 37.6058L99.247 40.712L103.729 40.7142L103.728 42.0336L99.2463 42.0314L99.2448 45.1524L104.116 45.1546L104.115 46.4784L97.7188 46.4762Z" fill="white"/>
<path d="M104.137 29.3465L78.7393 0L43.5105 16.0859V19.0845L41.6949 21.5093V12.5711L35.4722 12.5976L35.2624 17.8477L18.5774 10.2738L0 29.3119L0.595945 29.317L18.2483 14.8882L30.761 29.3355H53.208L78.7466 4.87327L99.5549 27.0434L64.2531 29.3406L104.137 29.3465Z" fill="#FBE54D"/>
</g>
<defs>
<clipPath id="clip0_3293_50751">
<rect width="104" height="47" fill="white"/>
</clipPath>
</defs>
</svg>
