<svg width="24" height="24" viewBox="0 0 24 24" fill="none" xmlns="http://www.w3.org/2000/svg">
<path d="M10.7194 11.4694L14.4694 7.71937C14.5391 7.64969 14.6218 7.59442 14.7128 7.5567C14.8039 7.51899 14.9015 7.49958 15 7.49958C15.0985 7.49958 15.1961 7.51899 15.2872 7.5567C15.3782 7.59442 15.4609 7.64969 15.5306 7.71937C15.6003 7.78906 15.6556 7.87178 15.6933 7.96283C15.731 8.05387 15.7504 8.15145 15.7504 8.25C15.7504 8.34855 15.731 8.44613 15.6933 8.53717C15.6556 8.62822 15.6003 8.71094 15.5306 8.78062L13.0603 11.25L21.75 11.25C21.9489 11.25 22.1397 11.329 22.2803 11.4697C22.421 11.6103 22.5 11.8011 22.5 12C22.5 12.1989 22.421 12.3897 22.2803 12.5303C22.1397 12.671 21.9489 12.75 21.75 12.75L13.0603 12.75L15.5306 15.2194C15.6714 15.3601 15.7504 15.551 15.7504 15.75C15.7504 15.949 15.6714 16.1399 15.5306 16.2806C15.3899 16.4214 15.199 16.5004 15 16.5004C14.801 16.5004 14.6101 16.4214 14.4694 16.2806L10.7194 12.5306C10.6496 12.461 10.5943 12.3783 10.5566 12.2872C10.5188 12.1962 10.4994 12.0986 10.4994 12C10.4994 11.9014 10.5188 11.8038 10.5566 11.7128C10.5943 11.6217 10.6496 11.539 10.7194 11.4694ZM6 21L11.25 21C11.4489 21 11.6397 20.921 11.7803 20.7803C11.921 20.6397 12 20.4489 12 20.25C12 20.0511 11.921 19.8603 11.7803 19.7197C11.6397 19.579 11.4489 19.5 11.25 19.5L6 19.5L6 4.5L11.25 4.5C11.4489 4.5 11.6397 4.42098 11.7803 4.28033C11.921 4.13968 12 3.94891 12 3.75C12 3.55109 11.921 3.36032 11.7803 3.21967C11.6397 3.07902 11.4489 3 11.25 3L6 3C5.60218 3 5.22065 3.15803 4.93934 3.43934C4.65804 3.72064 4.5 4.10217 4.5 4.5L4.5 19.5C4.5 19.8978 4.65804 20.2794 4.93934 20.5607C5.22064 20.842 5.60218 21 6 21Z" fill="black"/>
</svg>
