<svg width="26" height="24" viewBox="0 0 26 24" fill="none" xmlns="http://www.w3.org/2000/svg">
<path fill-rule="evenodd" clip-rule="evenodd" d="M21.6093 5.41483C22.5068 5.64589 23.2168 6.32626 23.4579 7.18633C23.9 8.75244 23.9134 12.0002 23.9134 12.0002C23.9134 12.0002 23.9134 15.2608 23.4713 16.8141C23.2302 17.6741 22.5202 18.3545 21.6227 18.5856C20.0019 19.0092 13.4782 19.0092 13.4782 19.0092C13.4782 19.0092 6.9545 19.0092 5.33363 18.5856C4.43612 18.3545 3.72615 17.6741 3.48503 16.8141C3.04297 15.248 3.04297 12.0002 3.04297 12.0002C3.04297 12.0002 3.04297 8.75244 3.47163 7.19917C3.71275 6.33909 4.42272 5.65873 5.32023 5.42767C6.9411 5.00404 13.4648 4.99121 13.4648 4.99121C13.4648 4.99121 19.9885 4.99121 21.6093 5.41483ZM16.8003 12.0002L11.3885 15.004L11.3885 8.99635L16.8003 12.0002Z" fill="white"/>
</svg>
