<svg width="32" height="32" viewBox="0 0 32 32" fill="none" xmlns="http://www.w3.org/2000/svg">
<path d="M29.3307 16.0822C29.3307 8.6733 23.3618 2.66797 15.9974 2.66797C8.63295 2.66797 2.66406 8.6733 2.66406 16.0822C2.66406 22.7791 7.53873 28.3284 13.9138 29.3346V19.9604L10.529 19.9604L10.529 16.0813H13.9138V13.1266C13.9138 9.76486 15.9041 7.90708 18.9503 7.90708C20.4081 7.90708 21.9352 8.1693 21.9352 8.1693V11.4706H20.2525C18.5965 11.4706 18.081 12.5053 18.081 13.5666V16.0822L21.7787 16.0822L21.1876 19.9595H18.081V29.3346C24.4561 28.3284 29.3307 22.7791 29.3307 16.0822Z" fill="white"/>
</svg>
