<svg width="32" height="32" viewBox="0 0 32 32" fill="none" xmlns="http://www.w3.org/2000/svg">
<path fill-rule="evenodd" clip-rule="evenodd" d="M4 16C4 19.2592 4.0136 19.6672 4.072 20.9472C4.1304 22.2248 4.3336 23.0976 4.6304 23.8608C4.9312 24.6608 5.4032 25.3864 6.0144 25.9864C6.61371 26.5966 7.3388 27.0689 8.1392 27.3704C8.9024 27.6656 9.776 27.8696 11.0536 27.928C12.3328 27.9856 12.74 28 16 28C19.26 28 19.6672 27.9864 20.9472 27.928C22.2248 27.8696 23.0976 27.6664 23.8608 27.3696C24.6608 27.0688 25.3864 26.5968 25.9864 25.9856C26.5966 25.3863 27.0689 24.6612 27.3704 23.8608C27.6664 23.0976 27.8696 22.2248 27.928 20.9472C27.9864 19.6672 28 19.2592 28 16C28 12.7408 27.9864 12.3328 27.928 11.0528C27.8696 9.7752 27.6664 8.9024 27.3696 8.1392C27.0688 7.3392 26.5968 6.6136 25.9856 6.0136C25.3863 5.40338 24.6612 4.93109 23.8608 4.6296C23.0976 4.3336 22.2248 4.1304 20.9472 4.072C19.6672 4.0136 19.2592 4 16 4C12.7408 4 12.3328 4.0136 11.0528 4.072C9.7752 4.1304 8.9024 4.3336 8.1392 4.6304C7.33845 4.93167 6.61306 5.40398 6.0136 6.0144C5.40338 6.61371 4.93109 7.33879 4.6296 8.1392C4.3344 8.9024 4.1304 9.776 4.072 11.0536C4.0144 12.3328 4 12.74 4 16ZM6.1624 16C6.1624 12.796 6.1744 12.416 6.232 11.1504C6.2856 9.9808 6.48 9.3456 6.6456 8.9224C6.8624 8.3624 7.1232 7.9624 7.5424 7.5424C7.9624 7.1224 8.3624 6.8624 8.9224 6.6456C9.3456 6.4808 9.9808 6.2856 11.1504 6.232C12.416 6.1744 12.796 6.1624 16 6.1624C19.204 6.1624 19.584 6.1744 20.8496 6.232C22.0192 6.2856 22.6544 6.48 23.0776 6.6456C23.5988 6.83765 24.0704 7.1441 24.4576 7.5424C24.856 7.92953 25.1624 8.40111 25.3544 8.9224C25.5192 9.3456 25.7144 9.9808 25.768 11.1504C25.8256 12.416 25.8376 12.7952 25.8376 16C25.8376 19.2048 25.8256 19.584 25.768 20.8496C25.7144 22.0192 25.52 22.6544 25.3544 23.0776C25.1623 23.5988 24.8559 24.0704 24.4576 24.4576C24.0704 24.8559 23.5988 25.1623 23.0776 25.3544C22.6544 25.5192 22.0192 25.7144 20.8496 25.768C19.584 25.8256 19.204 25.8376 16 25.8376C12.796 25.8376 12.416 25.8256 11.1504 25.768C9.9808 25.7144 9.3456 25.52 8.9224 25.3544C8.3624 25.1376 7.9624 24.8768 7.5424 24.4576C7.14404 24.0704 6.83758 23.5989 6.6456 23.0776C6.4808 22.6544 6.2856 22.0192 6.232 20.8496C6.1744 19.584 6.1624 19.204 6.1624 16Z" fill="white"/>
<path fill-rule="evenodd" clip-rule="evenodd" d="M20.0076 16C20.0076 16.5258 19.9041 17.0464 19.7028 17.5322C19.5016 18.018 19.2067 18.4594 18.8349 18.8312C18.4631 19.203 18.0217 19.498 17.5359 19.6992C17.0501 19.9004 16.5294 20.004 16.0036 20.004C15.4778 20.004 14.9571 19.9004 14.4714 19.6992C13.9856 19.498 13.5442 19.203 13.1724 18.8312C12.8006 18.4594 12.5056 18.018 12.3044 17.5322C12.1032 17.0464 11.9996 16.5258 11.9996 16C11.9996 14.938 12.4215 13.9196 13.1724 13.1687C13.9233 12.4178 14.9417 11.996 16.0036 11.996C17.0656 11.996 18.084 12.4178 18.8349 13.1687C19.5858 13.9196 20.0076 14.938 20.0076 16ZM9.83562 16C9.83562 17.6358 10.4855 19.2047 11.6422 20.3614C12.7989 21.5181 14.3678 22.168 16.0036 22.168C17.6395 22.168 19.2083 21.5181 20.3651 20.3614C21.5218 19.2047 22.1716 17.6358 22.1716 16C22.1716 14.3641 21.5218 12.7953 20.3651 11.6385C19.2083 10.4818 17.6395 9.83197 16.0036 9.83197C14.3678 9.83197 12.7989 10.4818 11.6422 11.6385C10.4855 12.7953 9.83562 14.3641 9.83562 16ZM9.72362 8.03757C10.1103 8.03757 10.4812 8.19118 10.7546 8.46461C11.028 8.73804 11.1816 9.10889 11.1816 9.49557C11.1816 9.88226 11.028 10.2531 10.7546 10.5265C10.4812 10.8 10.1103 10.9536 9.72362 10.9536C9.33694 10.9536 8.96609 10.8 8.69266 10.5265C8.41924 10.2531 8.26562 9.88226 8.26562 9.49557C8.26562 9.10889 8.41923 8.73804 8.69266 8.46461C8.96609 8.19118 9.33694 8.03757 9.72362 8.03757Z" fill="white"/>
</svg>
