<svg width="48" height="48" viewBox="0 0 48 48" fill="none" xmlns="http://www.w3.org/2000/svg">
<circle cx="24" cy="24" r="24" fill="#242529"/>
<path d="M18.75 23.125H29.25C29.4821 23.125 29.7046 23.0328 29.8687 22.8687C30.0328 22.7046 30.125 22.4821 30.125 22.25V17C30.125 16.7679 30.0328 16.5454 29.8687 16.3813C29.7046 16.2172 29.4821 16.125 29.25 16.125H18.75C18.5179 16.125 18.2954 16.2172 18.1313 16.3813C17.9672 16.5454 17.875 16.7679 17.875 17V22.25C17.875 22.4821 17.9672 22.7046 18.1313 22.8687C18.2954 23.0328 18.5179 23.125 18.75 23.125ZM19.625 17.875H28.375V21.375H19.625V17.875ZM31.875 12.625H16.125C15.6609 12.625 15.2158 12.8094 14.8876 13.1376C14.5594 13.4658 14.375 13.9109 14.375 14.375V33.625C14.375 34.0891 14.5594 34.5342 14.8876 34.8624C15.2158 35.1906 15.6609 35.375 16.125 35.375H31.875C32.3391 35.375 32.7842 35.1906 33.1124 34.8624C33.4406 34.5342 33.625 34.0891 33.625 33.625V14.375C33.625 13.9109 33.4406 13.4658 33.1124 13.1376C32.7842 12.8094 32.3391 12.625 31.875 12.625ZM31.875 33.625H16.125V14.375H31.875V33.625ZM20.9375 26.1875C20.9375 26.4471 20.8605 26.7008 20.7163 26.9167C20.5721 27.1325 20.3671 27.3008 20.1273 27.4001C19.8874 27.4994 19.6235 27.5254 19.3689 27.4748C19.1143 27.4241 18.8805 27.2991 18.6969 27.1156C18.5134 26.932 18.3884 26.6982 18.3377 26.4436C18.2871 26.189 18.3131 25.9251 18.4124 25.6852C18.5117 25.4454 18.68 25.2404 18.8958 25.0962C19.1117 24.952 19.3654 24.875 19.625 24.875C19.9731 24.875 20.3069 25.0133 20.5531 25.2594C20.7992 25.5056 20.9375 25.8394 20.9375 26.1875ZM25.3125 26.1875C25.3125 26.4471 25.2355 26.7008 25.0913 26.9167C24.9471 27.1325 24.7421 27.3008 24.5023 27.4001C24.2624 27.4994 23.9985 27.5254 23.7439 27.4748C23.4893 27.4241 23.2555 27.2991 23.0719 27.1156C22.8884 26.932 22.7634 26.6982 22.7127 26.4436C22.6621 26.189 22.6881 25.9251 22.7874 25.6852C22.8867 25.4454 23.055 25.2404 23.2708 25.0962C23.4867 24.952 23.7404 24.875 24 24.875C24.3481 24.875 24.6819 25.0133 24.9281 25.2594C25.1742 25.5056 25.3125 25.8394 25.3125 26.1875ZM29.6875 26.1875C29.6875 26.4471 29.6105 26.7008 29.4663 26.9167C29.3221 27.1325 29.1171 27.3008 28.8773 27.4001C28.6374 27.4994 28.3735 27.5254 28.1189 27.4748C27.8643 27.4241 27.6305 27.2991 27.4469 27.1156C27.2634 26.932 27.1384 26.6982 27.0877 26.4436C27.0371 26.189 27.0631 25.9251 27.1624 25.6852C27.2617 25.4454 27.43 25.2404 27.6458 25.0962C27.8617 24.952 28.1154 24.875 28.375 24.875C28.7231 24.875 29.0569 25.0133 29.3031 25.2594C29.5492 25.5056 29.6875 25.8394 29.6875 26.1875ZM20.9375 30.5625C20.9375 30.8221 20.8605 31.0758 20.7163 31.2917C20.5721 31.5075 20.3671 31.6758 20.1273 31.7751C19.8874 31.8744 19.6235 31.9004 19.3689 31.8498C19.1143 31.7991 18.8805 31.6741 18.6969 31.4906C18.5134 31.307 18.3884 31.0732 18.3377 30.8186C18.2871 30.564 18.3131 30.3001 18.4124 30.0602C18.5117 29.8204 18.68 29.6154 18.8958 29.4712C19.1117 29.327 19.3654 29.25 19.625 29.25C19.9731 29.25 20.3069 29.3883 20.5531 29.6344C20.7992 29.8806 20.9375 30.2144 20.9375 30.5625ZM25.3125 30.5625C25.3125 30.8221 25.2355 31.0758 25.0913 31.2917C24.9471 31.5075 24.7421 31.6758 24.5023 31.7751C24.2624 31.8744 23.9985 31.9004 23.7439 31.8498C23.4893 31.7991 23.2555 31.6741 23.0719 31.4906C22.8884 31.307 22.7634 31.0732 22.7127 30.8186C22.6621 30.564 22.6881 30.3001 22.7874 30.0602C22.8867 29.8204 23.055 29.6154 23.2708 29.4712C23.4867 29.327 23.7404 29.25 24 29.25C24.3481 29.25 24.6819 29.3883 24.9281 29.6344C25.1742 29.8806 25.3125 30.2144 25.3125 30.5625ZM29.6875 30.5625C29.6875 30.8221 29.6105 31.0758 29.4663 31.2917C29.3221 31.5075 29.1171 31.6758 28.8773 31.7751C28.6374 31.8744 28.3735 31.9004 28.1189 31.8498C27.8643 31.7991 27.6305 31.6741 27.4469 31.4906C27.2634 31.307 27.1384 31.0732 27.0877 30.8186C27.0371 30.564 27.0631 30.3001 27.1624 30.0602C27.2617 29.8204 27.43 29.6154 27.6458 29.4712C27.8617 29.327 28.1154 29.25 28.375 29.25C28.7231 29.25 29.0569 29.3883 29.3031 29.6344C29.5492 29.8806 29.6875 30.2144 29.6875 30.5625Z" fill="#FBE54D"/>
</svg>
