<svg width="25" height="24" viewBox="0 0 25 24" fill="none" xmlns="http://www.w3.org/2000/svg">
<path d="M20.9075 7.91974C20.9197 8.09605 20.9197 8.27237 20.9197 8.45031C20.9197 13.8722 16.7922 20.1253 9.24474 20.1253V20.1221C7.0152 20.1253 4.83198 19.4867 2.95508 18.2825C3.27927 18.3215 3.60509 18.341 3.93172 18.3418C5.77937 18.3435 7.57421 17.7235 9.0278 16.5819C7.27196 16.5486 5.73225 15.4038 5.19436 13.7325C5.80944 13.8511 6.4432 13.8267 7.04689 13.6618C5.13261 13.275 3.7554 11.5931 3.7554 9.63983C3.7554 9.62195 3.7554 9.60489 3.7554 9.58783C4.32579 9.90552 4.96442 10.0818 5.61768 10.1013C3.81472 8.89638 3.25896 6.49784 4.34772 4.62256C6.43101 7.18604 9.50474 8.74444 12.8044 8.90938C12.4737 7.48423 12.9254 5.99083 13.9914 4.989C15.6441 3.43548 18.2433 3.51511 19.7968 5.16694C20.7158 4.98575 21.5966 4.64856 22.4026 4.1708C22.0963 5.12063 21.4552 5.92746 20.5988 6.44015C21.4121 6.34428 22.2068 6.12652 22.9551 5.7942C22.4042 6.61972 21.7103 7.33879 20.9075 7.91974Z" fill="white"/>
</svg>
