<svg width="104" height="48" viewBox="0 0 104 48" fill="none" xmlns="http://www.w3.org/2000/svg">
<g clip-path="url(#clip0_3293_51635)">
<path d="M0.0419922 46.9283L0.0471107 36.7334L3.74855 36.7349C4.46588 36.7349 5.05963 36.8543 5.5298 37.0918C5.99998 37.3293 6.35242 37.6501 6.58568 38.0527C6.81894 38.4561 6.93594 38.9097 6.93521 39.4141C6.93521 39.8389 6.8577 40.1966 6.70268 40.4864C6.54766 40.777 6.34146 41.0093 6.08334 41.1833C5.82521 41.3574 5.54077 41.4842 5.23146 41.5639V41.6634C5.56709 41.6804 5.89541 41.7888 6.21569 41.9902C6.53669 42.1915 6.80212 42.4762 7.01272 42.8442C7.22331 43.2129 7.3286 43.6605 7.32787 44.1886C7.32787 44.71 7.20649 45.1768 6.96446 45.5898C6.72242 46.0028 6.3495 46.3295 5.84642 46.5699C5.34261 46.8103 4.69913 46.9305 3.91673 46.9298L0.0419922 46.9283ZM1.56805 45.6097L3.76902 45.6104C4.49951 45.6104 5.02307 45.4681 5.33895 45.1834C5.65484 44.898 5.81278 44.5418 5.81351 44.1134C5.81351 43.7918 5.73308 43.4961 5.57221 43.2269C5.41134 42.9577 5.18174 42.7439 4.88413 42.5846C4.58653 42.4253 4.23335 42.3449 3.82533 42.3449L1.56951 42.3441L1.56805 45.6097ZM1.57024 41.145L3.61327 41.1457C3.95548 41.1457 4.26406 41.0794 4.539 40.9466C4.81394 40.8146 5.03257 40.6273 5.19563 40.3869C5.3587 40.1465 5.43986 39.8618 5.44059 39.5336C5.44059 39.1125 5.29435 38.7585 5.00186 38.4731C4.70937 38.1877 4.2604 38.0446 3.65495 38.0446L1.57244 38.0439L1.57024 41.145Z" fill="#FBE54D"/>
<path d="M13.7731 36.7407L12.0116 36.7393L8.36865 46.932L9.98757 46.9334L10.9148 44.235L14.8648 44.2372L15.7869 46.9357L17.4058 46.9371L13.7731 36.7407ZM11.3593 42.9407L12.854 38.5911H12.9329L14.4202 42.9429L11.3593 42.9407Z" fill="#FBE54D"/>
<path d="M27.0244 36.7466L27.0193 46.9415L25.6176 46.9408L20.4829 39.4613H20.3893L20.3857 46.9378L18.8604 46.9371L18.8655 36.7422L20.2767 36.7429L25.4157 44.232H25.5093L25.513 36.7451L27.0244 36.7466Z" fill="#FBE54D"/>
<path d="M29.2407 46.942L29.2458 36.7471L30.7712 36.7478L30.769 41.6159H30.8925L35.1344 36.7493L37.0545 36.75L32.9758 41.3379L37.0648 46.9449L35.2287 46.9442L31.9638 42.3881L30.769 43.7716L30.7675 46.9427L29.2407 46.942Z" fill="#FBE54D"/>
<path d="M40.0051 36.7527L39.9999 46.9476L38.4746 46.9469L38.4797 36.752L40.0051 36.7527Z" fill="#FBE54D"/>
<path d="M42.2261 36.7539L44.0768 36.7546L47.2912 44.6811H47.4097L50.6314 36.7576L52.4822 36.7583L52.477 46.9532L51.0263 46.9525L51.03 39.5755H50.9364L47.9515 46.9363L46.7472 46.9355L43.7697 39.5667H43.6761L43.6724 46.9488L42.2217 46.9481L42.2261 36.7539Z" fill="#FBE54D"/>
<path d="M63.4816 41.8611C63.4809 42.9496 63.2835 43.8848 62.8879 44.6658C62.493 45.4467 61.9519 46.0478 61.266 46.4667C60.5794 46.8863 59.8007 47.0958 58.929 47.095C58.0538 47.0943 57.2728 46.8841 56.5877 46.4645C55.9018 46.0441 55.3614 45.4423 54.9673 44.6591C54.5732 43.8759 54.3757 42.9415 54.3765 41.856C54.3772 40.7674 54.5746 39.8323 54.9702 39.0513C55.3651 38.2703 55.9062 37.67 56.5921 37.2504C57.2779 36.8308 58.0589 36.6213 58.9342 36.6221C59.8058 36.6221 60.5853 36.833 61.2711 37.2526C61.957 37.673 62.4974 38.2733 62.8915 39.0558C63.2857 39.8375 63.4824 40.7733 63.4816 41.8611ZM61.9717 41.8604C61.9724 41.0307 61.84 40.3316 61.5753 39.7623C61.3106 39.1929 60.9487 38.7615 60.4902 38.4672C60.0317 38.1737 59.5126 38.0262 58.9334 38.0262C58.3514 38.0262 57.8308 38.173 57.3737 38.4658C56.916 38.7593 56.5548 39.1907 56.2901 39.7593C56.0254 40.3279 55.8923 41.0278 55.8916 41.8574C55.8916 42.6871 56.0232 43.3862 56.2879 43.9556C56.5526 44.5249 56.9131 44.9563 57.3708 45.2506C57.8278 45.5441 58.3477 45.6916 58.9305 45.6916C59.5096 45.6916 60.0288 45.5448 60.488 45.2521C60.9472 44.9585 61.3092 44.5271 61.5746 43.9585C61.8386 43.3899 61.9709 42.6908 61.9717 41.8604Z" fill="white"/>
<path d="M73.5381 36.7691L73.533 46.964L72.1312 46.9633L66.9966 39.4837H66.903L66.8993 46.9603L65.374 46.9596L65.3791 36.7646L66.7904 36.7654L71.9294 44.2545H72.023L72.0267 36.7676L73.5381 36.7691Z" fill="white"/>
<path d="M75.7539 46.9644L75.759 36.7695L77.2843 36.7703L77.28 45.6407L81.8603 45.6429L81.8596 46.9674L75.7539 46.9644Z" fill="white"/>
<path d="M85.1261 36.7752L85.121 46.9701L83.5957 46.9693L83.6008 36.7744L85.1261 36.7752Z" fill="white"/>
<path d="M95.5059 36.7798L95.5008 46.9747L94.099 46.974L88.9644 39.4945H88.8708L88.8671 46.971L87.3418 46.9703L87.3469 36.7754L88.7582 36.7761L93.8972 44.2652H93.9908L93.9944 36.7783L95.5059 36.7798Z" fill="white"/>
<path d="M97.7217 46.9752L97.7268 36.7803L104.064 36.7832L104.064 38.107L99.2514 38.1048L99.2499 41.2111L103.732 41.2133L103.731 42.5326L99.2492 42.5304L99.2477 45.6514L104.119 45.6536L104.118 46.9774L97.7217 46.9752Z" fill="white"/>
<path d="M104.137 29.8465L78.7393 0.5L43.5105 16.5859V19.5845L41.6949 22.0093V13.0711L35.4722 13.0976L35.2624 18.3477L18.5774 10.7738L0 29.8119L0.595945 29.817L18.2483 15.3882L30.761 29.8355H53.208L78.7466 5.37327L99.5549 27.5434L64.2531 29.8406L104.137 29.8465Z" fill="#FBE54D"/>
</g>
<defs>
<clipPath id="clip0_3293_51635">
<rect width="104" height="47" fill="white" transform="translate(0 0.5)"/>
</clipPath>
</defs>
</svg>
