<svg width="533" height="1080" viewBox="0 0 533 1080" fill="none" xmlns="http://www.w3.org/2000/svg" style="transform:rotate(180deg)">
    <mask id="path-1-inside-1_10977_7567" fill="white">
        <path fill-rule="evenodd" clip-rule="evenodd" d="M516.239 0H0V1080H516.239V640.696H528C530.761 640.696 533 638.457 533 635.696V426.565C533 423.804 530.761 421.565 528 421.565H516.239V0Z"/>
    </mask>
    <path fill-rule="evenodd" clip-rule="evenodd" d="M516.239 0H0V1080H516.239V640.696H528C530.761 640.696 533 638.457 533 635.696V426.565C533 423.804 530.761 421.565 528 421.565H516.239V0Z" fill="#161616"/>
    <path d="M0 0V-1H-1V0H0ZM516.239 0H517.239V-1H516.239V0ZM0 1080H-1V1081H0V1080ZM516.239 1080V1081H517.239V1080H516.239ZM516.239 640.696V639.696H515.239V640.696H516.239ZM516.239 421.565H515.239V422.565H516.239V421.565ZM0 1H516.239V-1H0V1ZM1 1080V0H-1V1080H1ZM516.239 1079H0V1081H516.239V1079ZM515.239 640.696V1080H517.239V640.696H515.239ZM528 639.696H516.239V641.696H528V639.696ZM532 635.696C532 637.905 530.209 639.696 528 639.696V641.696C531.313 641.696 534 639.01 534 635.696H532ZM532 426.565V635.696H534V426.565H532ZM528 422.565C530.209 422.565 532 424.356 532 426.565H534C534 423.252 531.313 420.565 528 420.565V422.565ZM516.239 422.565H528V420.565H516.239V422.565ZM515.239 0V421.565H517.239V0H515.239Z" fill="#454545" mask="url(#path-1-inside-1_10977_7567)"/>
</svg>
