<svg width="32" height="33" viewBox="0 0 32 33" fill="none" xmlns="http://www.w3.org/2000/svg">
    <g clip-path="url(#clip0_8678_92142)">
        <path d="M16 32.5C24.8366 32.5 32 25.3366 32 16.5C32 7.66344 24.8366 0.5 16 0.5C7.16345 0.5 0 7.66344 0 16.5C0 25.3366 7.16345 32.5 16 32.5Z" fill="#F0F0F0"/>
        <path d="M22.0257 13.0222H18.0092L16.0011 9.54395L13.9931 13.0222H9.97656L11.9849 16.5004L9.97656 19.9787H13.9931L16.0011 23.4569L18.0092 19.9787H22.0257L20.0173 16.5004L22.0257 13.0222ZM18.4683 16.5004L17.2348 18.6372H14.7676L13.5339 16.5004L14.7676 14.3637H17.2348L18.4683 16.5004ZM16.0011 12.2269L16.4603 13.0221H15.5421L16.0011 12.2269ZM12.3002 14.3637H13.2185L12.7594 15.1589L12.3002 14.3637ZM12.3002 18.6372L12.7594 17.8419L13.2186 18.6372H12.3002ZM16.0011 20.7739L15.5421 19.9787H16.4603L16.0011 20.7739ZM19.702 18.6372H18.7837L19.2429 17.8419L19.702 18.6372ZM18.7837 14.3637H19.702L19.2429 15.1589L18.7837 14.3637Z" fill="#0052B4"/>
        <path d="M25.9591 3.97852H6.03947C4.57928 5.14152 3.32703 6.55414 2.34766 8.15245H29.6509C28.6715 6.5542 27.4192 5.14152 25.9591 3.97852Z" fill="#0052B4"/>
        <path d="M6.03947 29.0216H25.959C27.4192 27.8586 28.6715 26.446 29.6508 24.8477H2.34766C3.32709 26.4459 4.57934 27.8586 6.03947 29.0216Z" fill="#0052B4"/>
    </g>
    <defs>
        <clipPath id="clip0_8678_92142">
            <rect width="32" height="32" fill="white" transform="translate(0 0.5)"/>
        </clipPath>
    </defs>
</svg>
