<svg width="68" height="68" viewBox="0 0 68 68" fill="none" xmlns="http://www.w3.org/2000/svg">
<circle cx="34" cy="34" r="34" fill="#35373F"/>
<path d="M43.7075 25.7075L25.7075 43.7075C25.5199 43.8951 25.2654 44.0006 25 44.0006C24.7346 44.0006 24.4801 43.8951 24.2925 43.7075C24.1049 43.5199 23.9994 43.2654 23.9994 43C23.9994 42.7346 24.1049 42.4801 24.2925 42.2925L42.2925 24.2925C42.4801 24.1049 42.7346 23.9994 43 23.9994C43.2654 23.9994 43.5199 24.1049 43.7075 24.2925C43.8951 24.4801 44.0006 24.7346 44.0006 25C44.0006 25.2654 43.8951 25.5199 43.7075 25.7075ZM26 32C26 32.2652 26.1054 32.5196 26.2929 32.7071C26.4804 32.8946 26.7348 33 27 33C27.2652 33 27.5196 32.8946 27.7071 32.7071C27.8946 32.5196 28 32.2652 28 32V28H32C32.2652 28 32.5196 27.8946 32.7071 27.7071C32.8946 27.5196 33 27.2652 33 27C33 26.7348 32.8946 26.4804 32.7071 26.2929C32.5196 26.1054 32.2652 26 32 26H28V22C28 21.7348 27.8946 21.4804 27.7071 21.2929C27.5196 21.1054 27.2652 21 27 21C26.7348 21 26.4804 21.1054 26.2929 21.2929C26.1054 21.4804 26 21.7348 26 22V26H22C21.7348 26 21.4804 26.1054 21.2929 26.2929C21.1054 26.4804 21 26.7348 21 27C21 27.2652 21.1054 27.5196 21.2929 27.7071C21.4804 27.8946 21.7348 28 22 28H26V32ZM46 40H36C35.7348 40 35.4804 40.1054 35.2929 40.2929C35.1054 40.4804 35 40.7348 35 41C35 41.2652 35.1054 41.5196 35.2929 41.7071C35.4804 41.8946 35.7348 42 36 42H46C46.2652 42 46.5196 41.8946 46.7071 41.7071C46.8946 41.5196 47 41.2652 47 41C47 40.7348 46.8946 40.4804 46.7071 40.2929C46.5196 40.1054 46.2652 40 46 40Z" fill="white"/>
</svg>
