<svg width="25" height="24" viewBox="0 0 25 24" fill="none" xmlns="http://www.w3.org/2000/svg">
<path d="M20.5306 9.53104L13.0306 17.031C12.9609 17.1008 12.8782 17.1561 12.7871 17.1938C12.6961 17.2316 12.5985 17.251 12.4999 17.251C12.4014 17.251 12.3038 17.2316 12.2127 17.1938C12.1217 17.1561 12.039 17.1008 11.9693 17.031L4.4693 9.53104C4.32857 9.39031 4.24951 9.19944 4.24951 9.00042C4.24951 8.80139 4.32857 8.61052 4.4693 8.46979C4.61003 8.32906 4.80091 8.25 4.99993 8.25C5.19895 8.25 5.38982 8.32906 5.53055 8.46979L12.4999 15.4401L19.4693 8.46979C19.539 8.40011 19.6217 8.34483 19.7128 8.30712C19.8038 8.26941 19.9014 8.25 19.9999 8.25C20.0985 8.25 20.1961 8.26941 20.2871 8.30712C20.3781 8.34483 20.4609 8.40011 20.5306 8.46979C20.6002 8.53947 20.6555 8.6222 20.6932 8.71324C20.7309 8.80429 20.7503 8.90187 20.7503 9.00042C20.7503 9.09896 20.7309 9.19654 20.6932 9.28759C20.6555 9.37863 20.6002 9.46136 20.5306 9.53104Z" fill="#848484"/>
</svg>
