<svg width="21" height="20" viewBox="0 0 21 20" fill="none" xmlns="http://www.w3.org/2000/svg">
<g clip-path="url(#clip0_3293_189489)">
<path d="M17.0373 14.9164C17.0373 14.7581 17.0373 14.6248 17.0373 14.4998C17.0373 11.0831 17.0373 7.66503 17.0373 4.24559C17.0141 4.04747 17.0505 3.84695 17.1418 3.66959C17.2331 3.49223 17.3751 3.34607 17.5498 3.24976C17.6912 3.17442 17.8491 3.13558 18.0093 3.13674C18.1696 3.13791 18.3269 3.17905 18.4672 3.25644C18.6075 3.33382 18.7263 3.44501 18.8127 3.5799C18.8992 3.7148 18.9506 3.86913 18.9623 4.02892C18.9623 4.12059 18.9623 4.20809 18.9623 4.29559V15.7039C18.9623 16.5039 18.5956 16.8748 17.7914 16.8748C15.8873 16.8748 13.9789 16.8748 12.0706 16.8748C10.8368 16.8912 9.63651 16.4732 8.67978 15.694C7.72306 14.9147 7.07084 13.8239 6.83727 12.6123C6.77292 12.3109 6.73941 12.0037 6.73727 11.6956C6.73727 10.0289 6.73727 8.38726 6.73727 6.73309C6.72582 6.52213 6.7835 6.31319 6.90156 6.13798C7.01962 5.96277 7.19161 5.83086 7.39143 5.76226C7.57695 5.68717 7.78253 5.67763 7.97421 5.73521C8.16588 5.79278 8.33217 5.91404 8.4456 6.07892C8.57861 6.30372 8.65043 6.55942 8.65393 6.82059C8.67477 8.37476 8.65393 9.92892 8.65393 11.4831C8.63043 12.2209 8.85253 12.9457 9.28538 13.5437C9.71823 14.1417 10.3373 14.5791 11.0456 14.7873C11.3735 14.8815 11.7128 14.9306 12.0539 14.9331C13.6331 14.9331 15.2081 14.9331 16.7831 14.9331C16.8581 14.9373 16.9206 14.9248 17.0373 14.9164Z" fill="white"/>
<path d="M3.95843 5.09215C3.95843 5.24215 3.95843 5.37132 3.95843 5.50882C3.95843 8.93104 3.95843 12.3491 3.95843 15.763C3.98772 16.0177 3.91461 16.2736 3.75521 16.4744C3.5958 16.6753 3.36315 16.8045 3.10843 16.8338C2.85371 16.8631 2.59779 16.79 2.39697 16.6306C2.19615 16.4712 2.06688 16.2385 2.0376 15.9838C2.0376 15.8963 2.0376 15.8088 2.0376 15.7213V4.30049C2.0376 3.49632 2.40843 3.12549 3.20426 3.12549C5.10843 3.12549 7.01676 3.12549 8.9251 3.12549C10.1588 3.1087 11.3592 3.52594 12.3165 4.30429C13.2739 5.08265 13.9273 6.17264 14.1626 7.38382C14.2269 7.68519 14.2604 7.99233 14.2626 8.30049C14.2626 9.96715 14.2626 11.6213 14.2626 13.263C14.2731 13.4332 14.238 13.6032 14.1608 13.7554C14.0837 13.9075 13.9674 14.0363 13.8238 14.1285C13.6803 14.2206 13.5147 14.2728 13.3443 14.2796C13.1739 14.2864 13.0047 14.2476 12.8543 14.1672C12.6826 14.0769 12.5417 13.9375 12.4497 13.7668C12.3577 13.5961 12.3186 13.4018 12.3376 13.2088C12.3376 11.6477 12.3376 10.0824 12.3376 8.51299C12.3644 7.72962 12.1142 6.96188 11.6311 6.34465C11.148 5.72741 10.4628 5.30017 9.69593 5.13799C9.43716 5.0826 9.17305 5.05605 8.90843 5.05882C7.35426 5.05882 5.8001 5.05882 4.24593 5.05882C4.15843 5.06299 4.0751 5.07965 3.95843 5.09215Z" fill="white"/>
</g>
<defs>
<clipPath id="clip0_3293_189489">
<rect width="20" height="20" fill="white" transform="translate(0.5)"/>
</clipPath>
</defs>
</svg>
