<svg width="73" height="184" viewBox="0 0 73 184" fill="none" xmlns="http://www.w3.org/2000/svg">
<circle cx="36.5" cy="36.5" r="36.5" transform="matrix(-1 8.74228e-08 8.74228e-08 1 73 111)" fill="white"/>
<path d="M46.26 136.327C46.3478 136.228 46.4544 136.147 46.5736 136.09C46.6928 136.032 46.8222 135.999 46.9543 135.992C47.0865 135.985 47.2187 136.004 47.3434 136.049C47.4681 136.093 47.5827 136.162 47.6806 136.251C47.7785 136.34 47.8578 136.447 47.9139 136.567C47.97 136.687 48.0017 136.817 48.0072 136.949C48.0127 137.081 47.9919 137.213 47.9461 137.337C47.9002 137.461 47.8302 137.575 47.74 137.672L43.8063 142L49 142C49.5304 142 50.0391 142.21 50.4142 142.585C50.7893 142.96 51 143.469 51 144L51 152C51 152.53 50.7893 153.039 50.4142 153.414C50.0391 153.789 49.5304 154 49 154L43.3438 154L34.6138 160.788C34.466 160.903 34.289 160.974 34.1029 160.993C33.9168 161.013 33.729 160.979 33.5609 160.897C33.3928 160.815 33.2511 160.687 33.1519 160.529C33.0528 160.37 33.0001 160.187 33 160L33 153.886L27.74 159.672C27.6522 159.771 27.5456 159.852 27.4264 159.909C27.3072 159.967 27.1778 160 27.0457 160.007C26.9135 160.014 26.7813 159.995 26.6566 159.95C26.5319 159.906 26.4173 159.837 26.3194 159.748C26.2215 159.659 26.1422 159.552 26.0861 159.432C26.03 159.312 25.9983 159.182 25.9928 159.05C25.9873 158.918 26.0081 158.786 26.0539 158.662C26.0998 158.538 26.1698 158.424 26.26 158.327L46.26 136.327ZM49 144L44 144L44 152L49 152L49 144ZM29.75 149.983C29.2677 149.435 29.0016 148.731 29.0016 148.001C29.0016 147.271 29.2677 146.566 29.75 146.018C29.8419 145.921 29.9132 145.805 29.9597 145.68C30.0061 145.554 30.0269 145.42 30.0206 145.286C30.0143 145.152 29.9811 145.021 29.9231 144.9C29.865 144.779 29.7833 144.671 29.6826 144.583C29.582 144.494 29.4646 144.427 29.3374 144.384C29.2102 144.342 29.0757 144.326 28.9421 144.336C28.8084 144.347 28.6783 144.384 28.5594 144.446C28.4405 144.508 28.3353 144.594 28.25 144.697C27.4457 145.61 27.0019 146.785 27.0019 148.002C27.0019 149.219 27.4457 150.394 28.25 151.307C28.4255 151.506 28.6729 151.627 28.9377 151.643C29.2025 151.66 29.463 151.571 29.6619 151.395C29.8608 151.22 29.9818 150.972 29.9983 150.707C30.0149 150.443 29.9255 150.182 29.75 149.983ZM39.7213 140.547C39.8141 140.445 39.8848 140.325 39.9291 140.195C39.9733 140.064 39.9901 139.926 39.9783 139.788C39.9666 139.651 39.9266 139.518 39.8609 139.397C39.7951 139.275 39.705 139.169 39.5962 139.085L34.615 135.21C34.4672 135.094 34.29 135.023 34.1035 135.003C33.9171 134.984 33.729 135.017 33.5606 135.1C33.3922 135.182 33.2504 135.31 33.1513 135.469C33.0521 135.628 32.9997 135.812 33 136L33 145.353C33 145.555 33.0611 145.752 33.1753 145.919C33.2894 146.085 33.4512 146.213 33.6395 146.286C33.8278 146.359 34.0336 146.373 34.2301 146.326C34.4265 146.28 34.6042 146.175 34.74 146.026L39.7213 140.547ZM22 148C21.9986 150.46 22.9053 152.834 24.5463 154.667C24.7244 154.86 24.9712 154.975 25.2333 154.987C25.4955 155 25.752 154.908 25.9476 154.733C26.1432 154.558 26.2621 154.313 26.2787 154.051C26.2952 153.79 26.2082 153.532 26.0363 153.333C24.7245 151.867 23.9993 149.968 23.9993 148C23.9993 146.032 24.7245 144.134 26.0362 142.667C26.1263 142.57 26.196 142.455 26.2414 142.331C26.2869 142.206 26.307 142.074 26.3007 141.941C26.2945 141.808 26.2619 141.679 26.2049 141.559C26.1479 141.439 26.0677 141.332 25.9688 141.243C25.87 141.155 25.7545 141.087 25.6292 141.043C25.5038 141 25.3711 140.982 25.2387 140.99C25.1063 140.999 24.9769 141.033 24.858 141.092C24.7391 141.151 24.6331 141.233 24.5462 141.333C22.9048 143.166 21.998 145.54 22 148Z" fill="#242529"/>
<path d="M47 6V12C47 12.2652 46.8946 12.5196 46.7071 12.7071C46.5196 12.8946 46.2652 13 46 13C45.7348 13 45.4804 12.8946 45.2929 12.7071C45.1054 12.5196 45 12.2652 45 12V8.41375L38.7075 14.7075C38.5199 14.8951 38.2654 15.0006 38 15.0006C37.7346 15.0006 37.4801 14.8951 37.2925 14.7075C37.1049 14.5199 36.9994 14.2654 36.9994 14C36.9994 13.7346 37.1049 13.4801 37.2925 13.2925L43.5863 7H40C39.7348 7 39.4804 6.89464 39.2929 6.70711C39.1054 6.51957 39 6.26522 39 6C39 5.73478 39.1054 5.48043 39.2929 5.29289C39.4804 5.10536 39.7348 5 40 5H46C46.2652 5 46.5196 5.10536 46.7071 5.29289C46.8946 5.48043 47 5.73478 47 6ZM33.2925 17.2925L27 23.5863V20C27 19.7348 26.8946 19.4804 26.7071 19.2929C26.5196 19.1054 26.2652 19 26 19C25.7348 19 25.4804 19.1054 25.2929 19.2929C25.1054 19.4804 25 19.7348 25 20V26C25 26.2652 25.1054 26.5196 25.2929 26.7071C25.4804 26.8946 25.7348 27 26 27H32C32.2652 27 32.5196 26.8946 32.7071 26.7071C32.8946 26.5196 33 26.2652 33 26C33 25.7348 32.8946 25.4804 32.7071 25.2929C32.5196 25.1054 32.2652 25 32 25H28.4137L34.7075 18.7075C34.8951 18.5199 35.0006 18.2654 35.0006 18C35.0006 17.7346 34.8951 17.4801 34.7075 17.2925C34.5199 17.1049 34.2654 16.9994 34 16.9994C33.7346 16.9994 33.4801 17.1049 33.2925 17.2925Z" fill="white"/>
</svg>
