<svg width="17" height="16" viewBox="0 0 17 16" fill="none" xmlns="http://www.w3.org/2000/svg">
<path d="M8.5 1.5C7.21442 1.5 5.95772 1.88122 4.8888 2.59545C3.81988 3.30968 2.98676 4.32484 2.49479 5.51256C2.00282 6.70028 1.87409 8.00721 2.1249 9.26809C2.3757 10.529 2.99477 11.6872 3.90381 12.5962C4.81285 13.5052 5.97104 14.1243 7.23192 14.3751C8.49279 14.6259 9.79973 14.4972 10.9874 14.0052C12.1752 13.5132 13.1903 12.6801 13.9046 11.6112C14.6188 10.5423 15 9.28558 15 8C14.9982 6.27665 14.3128 4.62441 13.0942 3.40582C11.8756 2.18722 10.2234 1.50182 8.5 1.5ZM8.5 13.5C7.41221 13.5 6.34884 13.1774 5.44437 12.5731C4.5399 11.9687 3.83495 11.1098 3.41867 10.1048C3.00238 9.09977 2.89347 7.9939 3.10568 6.927C3.3179 5.86011 3.84173 4.8801 4.61092 4.11091C5.3801 3.34172 6.36011 2.8179 7.42701 2.60568C8.4939 2.39346 9.59977 2.50238 10.6048 2.91866C11.6098 3.33494 12.4687 4.03989 13.0731 4.94436C13.6774 5.84883 14 6.9122 14 8C13.9983 9.45818 13.4184 10.8562 12.3873 11.8873C11.3562 12.9184 9.95819 13.4983 8.5 13.5ZM8 8.5V5C8 4.86739 8.05268 4.74021 8.14645 4.64645C8.24022 4.55268 8.36739 4.5 8.5 4.5C8.63261 4.5 8.75979 4.55268 8.85356 4.64645C8.94732 4.74021 9 4.86739 9 5V8.5C9 8.63261 8.94732 8.75979 8.85356 8.85355C8.75979 8.94732 8.63261 9 8.5 9C8.36739 9 8.24022 8.94732 8.14645 8.85355C8.05268 8.75979 8 8.63261 8 8.5ZM9.25 10.75C9.25 10.8983 9.20602 11.0433 9.1236 11.1667C9.04119 11.29 8.92406 11.3861 8.78701 11.4429C8.64997 11.4997 8.49917 11.5145 8.35368 11.4856C8.2082 11.4566 8.07456 11.3852 7.96967 11.2803C7.86478 11.1754 7.79335 11.0418 7.76441 10.8963C7.73548 10.7508 7.75033 10.6 7.80709 10.463C7.86386 10.3259 7.95999 10.2088 8.08333 10.1264C8.20666 10.044 8.35167 10 8.5 10C8.69892 10 8.88968 10.079 9.03033 10.2197C9.17098 10.3603 9.25 10.5511 9.25 10.75Z" fill="#FBE54D"/>
</svg>
