<svg width="67" height="30" viewBox="0 0 67 30" fill="none" xmlns="http://www.w3.org/2000/svg">
    <path d="M0.0258789 29.5387L0.0291721 23.1299L2.4106 23.1308C2.87212 23.1308 3.25413 23.2059 3.55663 23.3552C3.85913 23.5045 4.08589 23.7061 4.23596 23.9593C4.38604 24.2128 4.46131 24.498 4.46084 24.8151C4.46084 25.0821 4.41097 25.3069 4.31123 25.4891C4.2115 25.6718 4.07883 25.8178 3.91276 25.9272C3.74669 26.0366 3.56368 26.1164 3.36468 26.1665V26.229C3.58062 26.2397 3.79185 26.3079 3.99791 26.4344C4.20444 26.561 4.37522 26.7399 4.51071 26.9713C4.6462 27.2031 4.71394 27.4845 4.71347 27.8164C4.71347 28.1442 4.63538 28.4376 4.47966 28.6972C4.32394 28.9569 4.084 29.1622 3.76033 29.3134C3.43619 29.4645 3.02219 29.5401 2.51881 29.5396L0.0258789 29.5387ZM1.00771 28.7098L2.42378 28.7102C2.89376 28.7102 3.2306 28.6207 3.43384 28.4418C3.63707 28.2624 3.73869 28.0385 3.73916 27.7691C3.73916 27.567 3.68741 27.3811 3.58391 27.2119C3.48041 27.0427 3.33269 26.9082 3.14122 26.8081C2.94974 26.7079 2.72251 26.6574 2.46 26.6574L1.00865 26.6569L1.00771 28.7098ZM1.00913 25.9031L2.32357 25.9036C2.54374 25.9036 2.74227 25.8619 2.91916 25.7784C3.09605 25.6954 3.23672 25.5777 3.34163 25.4266C3.44654 25.2754 3.49876 25.0965 3.49923 24.8902C3.49923 24.6255 3.40514 24.4029 3.21696 24.2235C3.02878 24.0441 2.73992 23.9542 2.35039 23.9542L1.01054 23.9537L1.00913 25.9031Z" fill="#FBE54D"/>
    <path d="M8.86066 23.1254L7.72734 23.1245L5.38354 29.5319L6.42513 29.5328L7.02166 27.8365L9.56305 27.8379L10.1563 29.5342L11.1979 29.5352L8.86066 23.1254ZM7.3077 27.0229L8.2693 24.2886H8.32011L9.27701 27.0243L7.3077 27.0229Z" fill="#FBE54D"/>
    <path d="M17.3854 23.1327L17.3821 29.5415L16.4803 29.541L13.1767 24.8392H13.1165L13.1142 29.5391L12.1328 29.5387L12.1361 23.1299L13.0441 23.1303L16.3504 27.8382H16.4106L16.413 23.1317L17.3854 23.1327Z" fill="#FBE54D"/>
    <path d="M18.8142 29.5387L18.8175 23.1299L19.7989 23.1303L19.7975 26.1906H19.877L22.6061 23.1313L23.8415 23.1317L21.2173 26.0158L23.8481 29.5405L22.6667 29.5401L20.5662 26.676L19.7975 27.5457L19.7965 29.5391L18.8142 29.5387Z" fill="#FBE54D"/>
    <path d="M25.7354 23.1362L25.7321 29.545L24.7507 29.5445L24.754 23.1357L25.7354 23.1362Z" fill="#FBE54D"/>
    <path d="M27.1683 23.1357L28.3591 23.1362L30.4272 28.119H30.5034L32.5762 23.1381L33.7669 23.1385L33.7636 29.5473L32.8302 29.5469L32.8326 24.9095H32.7724L30.852 29.5367L30.0772 29.5362L28.1615 24.9039H28.1013L28.0989 29.5445L27.1655 29.5441L27.1683 23.1357Z" fill="#FBE54D"/>
    <path d="M40.8393 26.354C40.8388 27.0382 40.7118 27.6261 40.4573 28.117C40.2032 28.608 39.8551 28.9858 39.4138 29.2491C38.9721 29.5129 38.471 29.6446 37.9102 29.6441C37.3471 29.6437 36.8447 29.5115 36.4039 29.2477C35.9626 28.9835 35.6149 28.6052 35.3613 28.1129C35.1078 27.6205 34.9807 27.0331 34.9812 26.3507C34.9817 25.6664 35.1087 25.0786 35.3632 24.5876C35.6173 24.0967 35.9654 23.7193 36.4067 23.4555C36.848 23.1917 37.3504 23.0601 37.9135 23.0605C38.4743 23.0605 38.9758 23.1931 39.4171 23.4569C39.8584 23.7212 40.2061 24.0985 40.4596 24.5904C40.7132 25.0818 40.8398 25.6701 40.8393 26.354ZM39.8678 26.3535C39.8683 25.8319 39.7831 25.3924 39.6128 25.0346C39.4425 24.6767 39.2096 24.4054 38.9147 24.2205C38.6197 24.036 38.2857 23.9432 37.9131 23.9432C37.5386 23.9432 37.2036 24.0355 36.9096 24.2195C36.6151 24.4041 36.3827 24.6753 36.2124 25.0327C36.0421 25.3901 35.9565 25.8301 35.956 26.3516C35.956 26.8732 36.0407 27.3127 36.211 27.6706C36.3813 28.0285 36.6132 28.2997 36.9077 28.4847C37.2017 28.6692 37.5362 28.7619 37.9112 28.7619C38.2838 28.7619 38.6178 28.6696 38.9132 28.4856C39.2087 28.3011 39.4416 28.0299 39.6123 27.6724C39.7822 27.315 39.8673 26.8755 39.8678 26.3535Z" fill="white"/>
    <path d="M47.3097 23.1439L47.3064 29.5527L46.4046 29.5522L43.1011 24.8504H43.0408L43.0385 29.5504L42.0571 29.5499L42.0604 23.1411L42.9684 23.1416L46.2747 27.8494H46.335L46.3373 23.143L47.3097 23.1439Z" fill="white"/>
    <path d="M48.7346 29.5499L48.7379 23.1411L49.7193 23.1416L49.7165 28.7177L52.6634 28.7191L52.6629 29.5518L48.7346 29.5499Z" fill="white"/>
    <path d="M54.7693 23.1606L54.766 29.5694L53.7847 29.5689L53.788 23.1602L54.7693 23.1606Z" fill="white"/>
    <path d="M61.4455 23.1629L61.4422 29.5717L60.5403 29.5713L57.2368 24.8694H57.1766L57.1742 29.5694L56.1929 29.5689L56.1962 23.1602L57.1041 23.1606L60.4105 27.8685H60.4707L60.4731 23.162L61.4455 23.1629Z" fill="white"/>
    <path d="M62.8743 29.569L62.8776 23.1602L66.955 23.162L66.9545 23.9942L63.8585 23.9928L63.8575 25.9455L66.7409 25.9469L66.7405 26.7762L63.857 26.7748L63.8561 28.7368L66.9903 28.7382L66.9898 29.5703L62.8743 29.569Z" fill="white"/>
    <path d="M67 18.804L50.6593 0.355957L27.9938 10.468V12.353L26.8257 13.8773V8.25847L22.8221 8.27516L22.6871 11.5755L11.9523 6.81436L0 18.7822L0.383419 18.7854L11.7406 9.7151L19.791 18.797H34.233L50.664 3.41942L64.0517 17.3561L41.3392 18.8002L67 18.804Z" fill="#FBE54D"/>
</svg>
