<svg width="151" height="58" viewBox="0 0 151 58" fill="none" xmlns="http://www.w3.org/2000/svg">
<g clip-path="url(#clip0_3293_299821)">
<path d="M107.878 25.9031C108.403 22.2494 106.472 18.0511 103.285 15.306C98.4951 11.1767 89.8834 9.29455 81.5543 14.3802C81.1253 14.6426 80.7124 14.6799 80.5095 14.5597C80.19 14.3709 80.2392 13.9019 80.4851 13.5977C82.2553 11.4019 89.4936 1.66797 99.8292 1.66797C106.697 1.66797 113.162 6.47943 115.013 13.3772C115.498 15.1848 115.724 16.696 115.736 17.9928C115.736 17.9928 114.76 22.3975 109.66 25.0585C109.078 25.3633 108.483 25.645 107.878 25.9031Z" fill="#E0E0E0"/>
<path d="M71.1698 7.00553C73.6093 9.20944 86.7752 20.8104 88.3635 22.2109C96.9325 29.7677 104.773 27.6068 109.658 25.0577C114.757 22.3977 115.736 17.9919 115.733 17.9919C115.755 19.4543 115.971 28.3753 107.17 34.1816C101.411 37.9846 91.3957 40.9607 80.232 31.2616C78.0047 29.3255 63.8066 17.1453 62.2196 15.7446C53.6493 8.18895 45.2915 10.7709 40.3669 15.0599C38.9196 16.3204 37.0618 18.4907 36.3027 20.4255C36.353 19.5275 36.1757 14.5004 41.3383 8.38383C43.8118 5.45432 48.6257 0.923828 56.7376 0.923828C61.4461 0.925048 65.6827 2.04236 71.1698 7.00553Z" fill="#ACACAC"/>
<path d="M36.9151 26.6178C36.332 24.6046 36.126 22.5008 36.3075 20.4127C37.0726 18.4839 38.9231 16.3171 40.368 15.0612C41.5164 14.0565 42.7904 13.205 44.158 12.5283C43.3148 16.3488 45.2819 20.5444 48.6431 23.44C53.437 27.5695 61.7377 29.461 70.0653 24.3754C70.4946 24.113 70.9295 24.0442 71.1102 24.1959C71.4029 24.4417 71.3924 24.8232 71.137 25.1578C69.4285 27.4027 62.3407 37.1493 52.0014 37.1493C45.1351 37.1493 38.8904 33.483 36.9151 26.6178ZM27.6734 43.8059C27.496 45.4898 26.407 55.7007 26.3182 56.2044C26.2202 56.7537 25.7421 57.0069 25.2536 57.0069H22.2016L23.6046 44.79H21.7397C21.6245 44.7896 21.5108 44.7644 21.4062 44.7162C21.3016 44.668 21.2086 44.598 21.1334 44.5107C21.0582 44.4235 21.0027 44.3211 20.9705 44.2105C20.9383 44.0999 20.9302 43.9837 20.9468 43.8698C21.0085 43.3298 21.5497 42.8542 22.0885 42.8542H26.6051C27.4809 42.8554 27.7316 43.2332 27.6734 43.8059ZM61.3251 49.9317C61.8007 46.0927 58.9448 42.8554 54.4714 42.8554H50.3785C49.267 42.8554 48.1873 43.1422 48.0297 44.2837L47.3999 49.7086C47.3999 49.7425 47.4338 50.0259 47.527 50.1529C47.7182 50.4095 47.9094 50.5029 48.1941 50.5029H51.9724C52.4794 50.5029 52.988 50.0573 53.0499 49.5525C53.1153 48.9171 52.8587 48.6966 52.5099 48.6966H51.4312L51.8358 44.7608H54.0585C56.3429 44.7608 57.5812 47.332 57.2631 50.0283C56.9143 52.7256 55.0438 55.1686 52.8853 55.1686H47.5853C47.0755 55.1686 46.5697 55.6456 46.4738 56.1542C46.4424 56.631 46.7607 57.0088 47.2353 57.0088H52.6287C56.9787 57.0078 60.8807 53.8032 61.3251 49.9317ZM45.2358 47.331C44.9653 49.8232 44.5397 54.0505 44.2736 56.1415C44.2095 56.7722 43.9131 57.0078 43.3909 57.0078H40.137C40.3258 55.4849 40.797 50.7888 41.1155 48.5359C41.4958 45.7115 40.1641 44.7912 37.8773 44.7912H35.4236L34.0695 57.0078H30.0802L31.4982 44.7912H30.3565C29.8809 44.7912 29.5321 44.3154 29.5963 43.8398C29.6595 43.2998 30.1677 42.8554 30.6738 42.8554H40.0685C44.8287 42.8551 45.5224 44.7283 45.2358 47.331ZM19.6592 47.331C19.3795 49.8861 18.9375 54.2476 18.6868 56.272C18.618 56.8281 18.2531 57.0078 17.8821 57.0078H14.6019C14.7929 55.4849 15.2314 50.7888 15.5487 48.5359C15.9929 45.4571 14.246 44.7912 12.3126 44.7912H9.82628L8.53433 56.692C8.50262 57.0078 8.40726 57.0078 8.3114 57.0078H2.15652C1.71238 57.0078 1.30189 56.5322 1.3636 56.0249C1.42774 55.5481 1.9036 55.1361 2.47506 55.1361H4.70116L5.89189 44.7912H4.78994C4.31409 44.7912 3.96409 44.3154 4.02945 43.8398C4.0914 43.2998 4.60091 42.8556 5.13848 42.8556H14.5016C19.2931 42.8554 19.9753 44.7283 19.6592 47.331ZM73.4729 51.3227L74.1795 44.7912H72.3392C72.2234 44.7904 72.109 44.7652 72.0036 44.7172C71.8982 44.6692 71.8041 44.5995 71.7274 44.5127C71.6507 44.4259 71.5932 44.3239 71.5586 44.2134C71.524 44.1029 71.513 43.9863 71.5265 43.8712C71.5777 43.3312 72.1073 42.8554 72.646 42.8554H77.258C78.0931 42.8554 78.2912 43.2834 78.2553 43.8059C78.1995 44.6278 77.5777 50.4017 77.5777 50.4017C77.2487 54.1159 75.1438 57.4905 68.9995 57.0334C65.3553 56.7651 62.7453 54.083 63.0438 50.4017L63.3087 48.0064L63.8358 42.8544C63.8358 42.8544 64.6707 42.8566 65.2841 42.8544C66.9026 42.8544 68.0641 43.709 67.9112 45.3603L67.2536 51.2249C67.0741 53.1934 68.5409 54.8434 70.5387 54.8434C72.3465 54.8447 73.2912 53.0978 73.4729 51.3227ZM150.563 50.1847C151.039 46.313 148.754 42.8554 142.502 42.8554H134.76C134.252 42.8554 133.717 43.2203 133.649 43.759C133.575 44.3456 133.907 44.791 134.442 44.791H135.681L134.257 57.0076H138.46C138.46 57.0076 139.785 44.791 139.817 44.791H142.589C144.685 44.791 146.777 46.6195 146.407 49.9956C146.025 53.2003 145.745 54.9495 142.636 55.1068L141.938 55.1722C141.62 55.1722 141.015 55.4895 140.952 56.1225C140.938 56.2261 140.944 56.3317 140.971 56.4328C140.998 56.534 141.045 56.6287 141.109 56.7114C141.173 56.7942 141.253 56.8632 141.344 56.9145C141.436 56.9658 141.536 56.9983 141.64 57.01L142.465 57.0125C148.366 57.0125 150.088 54.2161 150.563 50.1847ZM129.705 44.7912C129.705 44.7912 128.493 55.9769 128.463 56.1766C128.375 56.7259 127.95 57.0078 127.464 57.0078H124.348L125.77 44.7912H124.343C123.866 44.7912 123.516 44.3154 123.581 43.8059C123.643 43.2986 124.152 42.8556 124.659 42.8556H131.355C131.833 42.8556 132.182 43.2359 132.118 43.7127C132.052 44.22 131.514 44.7915 131.006 44.7915H129.705M122.221 47.3627C121.969 49.822 121.551 53.9734 121.225 56.0542C121.121 56.7293 120.67 57.0069 120.148 57.0069H117.017C117.585 52.4003 117.744 50.9486 117.975 48.5661C118.239 45.8617 117.217 44.7286 114.837 44.7286C113.442 44.6956 111.283 44.7286 111.283 44.7286C111.176 44.7284 111.07 44.7051 110.973 44.6603C110.875 44.6154 110.789 44.55 110.719 44.4687C110.649 44.3873 110.597 44.2918 110.568 44.1887C110.538 44.0856 110.531 43.9773 110.548 43.8712C110.608 43.3312 111.112 42.8556 111.619 42.8556H116.919C121.679 42.8554 122.487 44.7598 122.221 47.3627ZM109.195 47.331C108.862 50.2704 108.508 53.2073 108.132 56.1415C108.067 56.7722 107.772 57.0078 107.25 57.0078H103.897C104.085 55.4849 104.656 50.7888 104.975 48.5359C105.355 45.7115 104.023 44.7912 101.738 44.7912H99.2521L97.9297 57.0078H93.898L95.2975 44.7912H94.2141C93.7397 44.7912 93.3897 44.3154 93.4538 43.8398C93.518 43.2998 94.0265 42.8556 94.5338 42.8556H103.927C108.688 42.8554 109.482 44.7283 109.195 47.331ZM91.848 43.8059C91.757 44.5834 91.2636 49.5969 91.1707 50.3003C91.0938 50.8705 90.5816 51.0676 90.0987 51.0676H87.3677L88.0721 44.7903H85.9146C85.7993 44.7902 85.6853 44.7652 85.5805 44.7172C85.4757 44.6691 85.3824 44.5991 85.3071 44.5117C85.2317 44.4244 85.1761 44.3219 85.1439 44.2112C85.1116 44.1005 85.1037 43.9841 85.1204 43.87C85.1836 43.33 85.7234 42.8544 86.2621 42.8544H90.7926C91.5168 42.8551 91.9143 43.2483 91.848 43.8059Z" fill="#E0E0E0"/>
</g>
<defs>
<clipPath id="clip0_3293_299821">
<rect width="150" height="56.8293" fill="white" transform="translate(0.990234 0.584961)"/>
</clipPath>
</defs>
</svg>
