<svg width="104" height="48" viewBox="0 0 104 48" fill="none" xmlns="http://www.w3.org/2000/svg">
<g clip-path="url(#clip0_4137_61747)">
<path d="M0.0419922 46.9281L0.0471107 36.7332L3.74855 36.7346C4.46588 36.7346 5.05963 36.8541 5.5298 37.0916C5.99998 37.329 6.35242 37.6498 6.58568 38.0525C6.81894 38.4559 6.93594 38.9095 6.93521 39.4139C6.93521 39.8387 6.8577 40.1964 6.70268 40.4862C6.54766 40.7768 6.34146 41.0091 6.08334 41.1831C5.82521 41.3571 5.54077 41.484 5.23146 41.5636V41.6632C5.56709 41.6802 5.89541 41.7886 6.21569 41.9899C6.53669 42.1912 6.80212 42.4759 7.01272 42.8439C7.22331 43.2126 7.3286 43.6603 7.32787 44.1883C7.32787 44.7097 7.20649 45.1766 6.96446 45.5895C6.72242 46.0025 6.3495 46.3292 5.84642 46.5697C5.34261 46.8101 4.69913 46.9303 3.91673 46.9295L0.0419922 46.9281ZM1.56805 45.6095L3.76902 45.6102C4.49951 45.6102 5.02307 45.4679 5.33895 45.1832C5.65484 44.8978 5.81278 44.5416 5.81351 44.1131C5.81351 43.7916 5.73308 43.4958 5.57221 43.2267C5.41134 42.9575 5.18174 42.7436 4.88413 42.5843C4.58653 42.425 4.23335 42.3446 3.82533 42.3446L1.56951 42.3439L1.56805 45.6095ZM1.57024 41.1448L3.61327 41.1455C3.95548 41.1455 4.26406 41.0791 4.539 40.9464C4.81394 40.8144 5.03257 40.627 5.19563 40.3866C5.3587 40.1462 5.43986 39.8615 5.44059 39.5334C5.44059 39.1123 5.29435 38.7583 5.00186 38.4729C4.70937 38.1875 4.2604 38.0444 3.65495 38.0444L1.57244 38.0437L1.57024 41.1448Z" fill="#FBE54D"/>
<path d="M13.7726 36.7405L12.0111 36.739L8.36816 46.9317L9.98709 46.9332L10.9143 44.2348L14.8643 44.237L15.7864 46.9354L17.4053 46.9369L13.7726 36.7405ZM11.3589 42.9405L12.8535 38.5908H12.9324L14.4197 42.9427L11.3589 42.9405Z" fill="#FBE54D"/>
<path d="M27.0244 36.7464L27.0193 46.9413L25.6176 46.9406L20.4829 39.461H20.3893L20.3857 46.9376L18.8604 46.9369L18.8655 36.7419L20.2767 36.7427L25.4157 44.2318H25.5093L25.513 36.7449L27.0244 36.7464Z" fill="#FBE54D"/>
<path d="M29.2412 46.9422L29.2463 36.7473L30.7717 36.748L30.7695 41.6162H30.893L35.1348 36.7495L37.055 36.7503L32.9763 41.3381L37.0653 46.9452L35.2292 46.9444L31.9643 42.3883L30.7695 43.7718L30.768 46.943L29.2412 46.9422Z" fill="#FBE54D"/>
<path d="M40.0051 36.7524L39.9999 46.9474L38.4746 46.9466L38.4797 36.7517L40.0051 36.7524Z" fill="#FBE54D"/>
<path d="M42.2261 36.7537L44.0768 36.7544L47.2912 44.6808H47.4097L50.6314 36.7573L52.4822 36.7581L52.477 46.953L51.0263 46.9523L51.03 39.5753H50.9364L47.9515 46.936L46.7472 46.9353L43.7697 39.5664H43.6761L43.6724 46.9486L42.2217 46.9478L42.2261 36.7537Z" fill="#FBE54D"/>
<path d="M63.4811 41.8609C63.4804 42.9494 63.283 43.8845 62.8874 44.6655C62.4925 45.4465 61.9514 46.0476 61.2655 46.4664C60.5789 46.8861 59.8002 47.0955 58.9286 47.0948C58.0533 47.094 57.2723 46.8839 56.5872 46.4642C55.9013 46.0439 55.3609 45.4421 54.9668 44.6589C54.5727 43.8757 54.3752 42.9413 54.376 41.8557C54.3767 40.7672 54.5741 39.8321 54.9697 39.0511C55.3646 38.2701 55.9057 37.6698 56.5916 37.2502C57.2775 36.8305 58.0584 36.6211 58.9337 36.6218C59.8053 36.6218 60.5848 36.8327 61.2707 37.2524C61.9565 37.6727 62.4969 38.273 62.891 39.0555C63.2852 39.8372 63.4819 40.7731 63.4811 41.8609ZM61.9712 41.8601C61.9719 41.0305 61.8395 40.3313 61.5748 39.762C61.3101 39.1927 60.9482 38.7613 60.4897 38.467C60.0312 38.1735 59.5121 38.026 58.9329 38.026C58.3509 38.026 57.8303 38.1727 57.3733 38.4655C56.9155 38.759 56.5543 39.1905 56.2896 39.7591C56.0249 40.3277 55.8918 41.0275 55.8911 41.8572C55.8911 42.6869 56.0227 43.386 56.2874 43.9553C56.5521 44.5247 56.9126 44.9561 57.3703 45.2503C57.8273 45.5439 58.3472 45.6914 58.93 45.6914C59.5091 45.6914 60.0283 45.5446 60.4875 45.2518C60.9467 44.9583 61.3087 44.5269 61.5741 43.9583C61.8381 43.3897 61.9704 42.6905 61.9712 41.8601Z" fill="white"/>
<path d="M73.5381 36.7686L73.533 46.9635L72.1312 46.9628L66.9966 39.4832H66.903L66.8993 46.9598L65.374 46.9591L65.3791 36.7642L66.7904 36.7649L71.9294 44.254H72.023L72.0267 36.7671L73.5381 36.7686Z" fill="white"/>
<path d="M75.7539 46.9642L75.759 36.7693L77.2843 36.77L77.28 45.6404L81.8603 45.6426L81.8596 46.9672L75.7539 46.9642Z" fill="white"/>
<path d="M85.1261 36.7744L85.121 46.9693L83.5957 46.9686L83.6008 36.7737L85.1261 36.7744Z" fill="white"/>
<path d="M95.5059 36.7796L95.5008 46.9745L94.099 46.9738L88.9644 39.4942H88.8708L88.8671 46.9708L87.3418 46.9701L87.3469 36.7751L88.7582 36.7759L93.8972 44.265H93.9908L93.9944 36.7781L95.5059 36.7796Z" fill="white"/>
<path d="M97.7217 46.9752L97.7268 36.7803L104.064 36.7832L104.064 38.107L99.2514 38.1048L99.2499 41.2111L103.732 41.2133L103.731 42.5326L99.2492 42.5304L99.2477 45.6514L104.119 45.6536L104.118 46.9774L97.7217 46.9752Z" fill="white"/>
<path d="M104.137 29.8465L78.7393 0.5L43.5105 16.5859V19.5845L41.6949 22.0093V13.0711L35.4722 13.0976L35.2624 18.3477L18.5774 10.7738L0 29.8119L0.595945 29.817L18.2483 15.3882L30.761 29.8355H53.208L78.7466 5.37327L99.5549 27.5434L64.2531 29.8406L104.137 29.8465Z" fill="#FBE54D"/>
</g>
<defs>
<clipPath id="clip0_4137_61747">
<rect width="104" height="47" fill="white" transform="translate(0 0.5)"/>
</clipPath>
</defs>
</svg>
