<svg width="25" height="24" viewBox="0 0 25 24" fill="none" xmlns="http://www.w3.org/2000/svg">
<path d="M12.5 2.25C10.5716 2.25 8.68657 2.82183 7.08319 3.89317C5.47982 4.96452 4.23013 6.48726 3.49218 8.26884C2.75422 10.0504 2.56114 12.0108 2.93735 13.9021C3.31355 15.7934 4.24215 17.5307 5.60571 18.8943C6.96928 20.2579 8.70656 21.1865 10.5979 21.5627C12.4892 21.9389 14.4496 21.7458 16.2312 21.0078C18.0127 20.2699 19.5355 19.0202 20.6068 17.4168C21.6782 15.8134 22.25 13.9284 22.25 12C22.2473 9.41498 21.2192 6.93661 19.3913 5.10872C17.5634 3.28084 15.085 2.25273 12.5 2.25ZM12.5 20.25C10.8683 20.25 9.27326 19.7661 7.91655 18.8596C6.55984 17.9531 5.50242 16.6646 4.878 15.1571C4.25358 13.6496 4.0902 11.9908 4.40853 10.3905C4.72685 8.79016 5.51259 7.32015 6.66637 6.16637C7.82016 5.01259 9.29017 4.22685 10.8905 3.90852C12.4909 3.59019 14.1497 3.75357 15.6571 4.37799C17.1646 5.00242 18.4531 6.05984 19.3596 7.41655C20.2662 8.77325 20.75 10.3683 20.75 12C20.7475 14.1873 19.8775 16.2843 18.3309 17.8309C16.7843 19.3775 14.6873 20.2475 12.5 20.25ZM11.75 12.75V7.5C11.75 7.30109 11.829 7.11032 11.9697 6.96967C12.1103 6.82902 12.3011 6.75 12.5 6.75C12.6989 6.75 12.8897 6.82902 13.0303 6.96967C13.171 7.11032 13.25 7.30109 13.25 7.5V12.75C13.25 12.9489 13.171 13.1397 13.0303 13.2803C12.8897 13.421 12.6989 13.5 12.5 13.5C12.3011 13.5 12.1103 13.421 11.9697 13.2803C11.829 13.1397 11.75 12.9489 11.75 12.75ZM13.625 16.125C13.625 16.3475 13.559 16.565 13.4354 16.75C13.3118 16.935 13.1361 17.0792 12.9305 17.1644C12.725 17.2495 12.4988 17.2718 12.2805 17.2284C12.0623 17.185 11.8618 17.0778 11.7045 16.9205C11.5472 16.7632 11.44 16.5627 11.3966 16.3445C11.3532 16.1262 11.3755 15.9 11.4606 15.6945C11.5458 15.4889 11.69 15.3132 11.875 15.1896C12.06 15.066 12.2775 15 12.5 15C12.7984 15 13.0845 15.1185 13.2955 15.3295C13.5065 15.5405 13.625 15.8266 13.625 16.125Z" fill="#343330"/>
</svg>
