<svg width="71" height="1080" viewBox="0 0 71 1080" fill="none" xmlns="http://www.w3.org/2000/svg">
    <mask id="path-1-inside-1_588_119383" fill="white">
        <path fill-rule="evenodd" clip-rule="evenodd" d="M35 0H0V1080H35V650.086H66C68.7614 650.086 71 647.848 71 645.086V435.956C71 433.195 68.7614 430.956 66 430.956H35V0Z"/>
    </mask>
    <path fill-rule="evenodd" clip-rule="evenodd" d="M35 0H0V1080H35V650.086H66C68.7614 650.086 71 647.848 71 645.086V435.956C71 433.195 68.7614 430.956 66 430.956H35V0Z" fill="#242529"/>
    <path d="M0 0V-1H-1V0H0ZM35 0H36V-1H35V0ZM0 1080H-1V1081H0V1080ZM35 1080V1081H36V1080H35ZM35 650.086V649.086H34V650.086H35ZM35 430.956H34V431.956H35V430.956ZM0 1H35V-1H0V1ZM1 1080V0H-1V1080H1ZM35 1079H0V1081H35V1079ZM34 650.086V1080H36V650.086H34ZM66 649.086H35V651.086H66V649.086ZM70 645.086C70 647.296 68.2091 649.086 66 649.086V651.086C69.3137 651.086 72 648.4 72 645.086H70ZM70 435.956V645.086H72V435.956H70ZM66 431.956C68.2091 431.956 70 433.747 70 435.956H72C72 432.642 69.3137 429.956 66 429.956V431.956ZM35 431.956H66V429.956H35V431.956ZM34 0V430.956H36V0H34Z" fill="#242529" mask="url(#path-1-inside-1_588_119383)"/>
    <path d="M48 528C48.2652 528 48.5196 528.105 48.7071 528.293C48.8946 528.48 49 528.735 49 529L49 551C49 551.265 48.8946 551.52 48.7071 551.707C48.5196 551.895 48.2652 552 48 552C47.7348 552 47.4804 551.895 47.2929 551.707C47.1054 551.52 47 551.265 47 551L47 529C47 528.735 47.1054 528.48 47.2929 528.293C47.4804 528.105 47.7348 528 48 528ZM41 551L41 529C41 528.735 40.8946 528.48 40.7071 528.293C40.5196 528.105 40.2652 528 40 528C39.7348 528 39.4804 528.105 39.2929 528.293C39.1054 528.48 39 528.735 39 529L39 551C39 551.265 39.1054 551.52 39.2929 551.707C39.4804 551.895 39.7348 552 40 552C40.2652 552 40.5196 551.895 40.7071 551.707C40.8946 551.52 41 551.265 41 551ZM55 529L55 551C55 551.265 55.1054 551.52 55.2929 551.707C55.4804 551.895 55.7348 552 56 552C56.2652 552 56.5196 551.895 56.7071 551.707C56.8946 551.52 57 551.265 57 551L57 529C57 528.735 56.8946 528.48 56.7071 528.293C56.5196 528.105 56.2652 528 56 528C55.7348 528 55.4804 528.105 55.2929 528.293C55.1054 528.48 55 528.735 55 529Z" fill="white"/>
</svg>
