<svg width="32" height="33" viewBox="0 0 32 33" fill="none" xmlns="http://www.w3.org/2000/svg">
    <g clip-path="url(#clip0_8678_92164)">
        <path d="M16 32.5C24.8366 32.5 32 25.3366 32 16.5C32 7.66344 24.8366 0.5 16 0.5C7.16344 0.5 0 7.66344 0 16.5C0 25.3366 7.16344 32.5 16 32.5Z" fill="#F0F0F0"/>
        <path d="M31.0048 10.9346H16V5.07422H30.0059C30.9695 6.9321 31.6424 8.9084 31.9951 10.9346H31.0048ZM31.0048 15.6084H16V12.1084H31.0048V15.6084ZM31.0048 20.8909H16V17.3909H31.0048V20.8909ZM31.0048 26.1734H16V22.6734H31.0048V26.1734Z" fill="#D80027"/>
        <path d="M16 16.5H15.478V15.1695H16V16.5ZM16 13.3908H15.478V12.0603H16V13.3908ZM16 10.2817H15.478V8.95117H16V10.2817ZM16 7.17261H15.478V5.84205H16V7.17261ZM16 5.08417H0.995188C0.352063 6.8174 0 8.69208 0 10.6492H16V5.08417Z" fill="#0052B4"/>
        <g fill="#F0F0F0">
            <path d="M4.17391 7.5697L3.47826 8.00187L3.82609 8.70969L3.04348 8.36186L2.69565 9.06969L2.34783 8.36186L1.56522 8.70969L1.91304 8.00187L1.21739 7.5697L1.91304 7.13752L1.56522 6.42969L2.34783 6.77752L2.69565 6.06969L3.04348 6.77752L3.82609 6.42969L3.47826 7.13752L4.17391 7.5697Z"/>
            <path d="M9.04348 7.5697L8.34783 8.00187L8.69565 8.70969L7.91304 8.36186L7.56522 9.06969L7.21739 8.36186L6.43478 8.70969L6.78261 8.00187L6.08696 7.5697L6.78261 7.13752L6.43478 6.42969L7.21739 6.77752L7.56522 6.06969L7.91304 6.77752L8.69565 6.42969L8.34783 7.13752L9.04348 7.5697Z"/>
            <path d="M13.913 7.5697L13.2174 8.00187L13.5652 8.70969L12.7826 8.36186L12.4348 9.06969L12.087 8.36186L11.3043 8.70969L11.6522 8.00187L10.9565 7.5697L11.6522 7.13752L11.3043 6.42969L12.087 6.77752L12.4348 6.06969L12.7826 6.77752L13.5652 6.42969L13.2174 7.13752L13.913 7.5697Z"/>
            <path d="M6.6087 9.78243L5.91304 10.2146L6.26087 10.9224L5.47826 10.5746L5.13043 11.2824L4.78261 10.5746L4 10.9224L4.34783 10.2146L3.65217 9.78243L4.34783 9.35026L4 8.64243L4.78261 8.99026L5.13043 8.28243L5.47826 8.99026L6.26087 8.64243L5.91304 9.35026L6.6087 9.78243Z"/>
            <path d="M11.4783 9.78243L10.7826 10.2146L11.1304 10.9224L10.3478 10.5746L10 11.2824L9.65217 10.5746L8.86957 10.9224L9.21739 10.2146L8.52174 9.78243L9.21739 9.35026L8.86957 8.64243L9.65217 8.99026L10 8.28243L10.3478 8.99026L11.1304 8.64243L10.7826 9.35026L11.4783 9.78243Z"/>
            <path d="M4.17391 11.9951L3.47826 12.4273L3.82609 13.1351L3.04348 12.7873L2.69565 13.4951L2.34783 12.7873L1.56522 13.1351L1.91304 12.4273L1.21739 11.9951L1.91304 11.5629L1.56522 10.8551L2.34783 11.2029L2.69565 10.4951L3.04348 11.2029L3.82609 10.8551L3.47826 11.5629L4.17391 11.9951Z"/>
            <path d="M9.04348 11.9951L8.34783 12.4273L8.69565 13.1351L7.91304 12.7873L7.56522 13.4951L7.21739 12.7873L6.43478 13.1351L6.78261 12.4273L6.08696 11.9951L6.78261 11.5629L6.43478 10.8551L7.21739 11.2029L7.56522 10.4951L7.91304 11.2029L8.69565 10.8551L8.34783 11.5629L9.04348 11.9951Z"/>
            <path d="M13.913 11.9951L13.2174 12.4273L13.5652 13.1351L12.7826 12.7873L12.4348 13.4951L12.087 12.7873L11.3043 13.1351L11.6522 12.4273L10.9565 11.9951L11.6522 11.5629L11.3043 10.8551L12.087 11.2029L12.4348 10.4951L12.7826 11.2029L13.5652 10.8551L13.2174 11.5629L13.913 11.9951Z"/>
        </g>
    </g>
    <defs>
        <clipPath id="clip0_8678_92164">
            <rect width="32" height="32" fill="white" transform="translate(0 0.5)"/>
        </clipPath>
    </defs>
</svg>