<svg width="104" height="48" viewBox="0 0 104 48" fill="none" xmlns="http://www.w3.org/2000/svg">
<g clip-path="url(#clip0_3293_117161)">
<path d="M0.0429688 46.9283L0.0480873 36.7334L3.74953 36.7349C4.46685 36.7349 5.0606 36.8543 5.53078 37.0918C6.00095 37.3293 6.3534 37.6501 6.58666 38.0527C6.81992 38.4561 6.93691 38.9097 6.93618 39.4141C6.93618 39.8389 6.85867 40.1966 6.70366 40.4864C6.54864 40.777 6.34243 41.0093 6.08431 41.1833C5.82619 41.3574 5.54175 41.4842 5.23244 41.5639V41.6634C5.56807 41.6804 5.89639 41.7888 6.21666 41.9902C6.53767 42.1915 6.8031 42.4762 7.01369 42.8442C7.22428 43.2129 7.32958 43.6605 7.32885 44.1886C7.32885 44.71 7.20747 45.1768 6.96543 45.5898C6.7234 46.0028 6.35048 46.3295 5.8474 46.5699C5.34359 46.8103 4.70011 46.9305 3.91771 46.9298L0.0429688 46.9283ZM1.56903 45.6097L3.77 45.6104C4.50049 45.6104 5.02404 45.4681 5.33993 45.1834C5.65582 44.898 5.81376 44.5418 5.81449 44.1134C5.81449 43.7918 5.73406 43.4961 5.57319 43.2269C5.41232 42.9577 5.18272 42.7439 4.88511 42.5846C4.5875 42.4253 4.23432 42.3449 3.8263 42.3449L1.57049 42.3441L1.56903 45.6097ZM1.57122 41.145L3.61425 41.1457C3.95646 41.1457 4.26504 41.0794 4.53997 40.9466C4.81491 40.8146 5.03355 40.6273 5.19661 40.3869C5.35967 40.1465 5.44084 39.8618 5.44157 39.5336C5.44157 39.1125 5.29532 38.7585 5.00284 38.4731C4.71035 38.1877 4.26138 38.0446 3.65593 38.0446L1.57341 38.0439L1.57122 41.145Z" fill="#FBE54D"/>
<path d="M13.7736 36.7407L12.0121 36.7393L8.36914 46.932L9.98806 46.9334L10.9153 44.235L14.8653 44.2372L15.7874 46.9357L17.4063 46.9371L13.7736 36.7407ZM11.3598 42.9407L12.8544 38.5911H12.9334L14.4207 42.9429L11.3598 42.9407Z" fill="#FBE54D"/>
<path d="M27.0254 36.7466L27.0203 46.9415L25.6185 46.9408L20.4839 39.4613H20.3903L20.3867 46.9378L18.8613 46.9371L18.8664 36.7422L20.2777 36.7429L25.4167 44.232H25.5103L25.514 36.7451L27.0254 36.7466Z" fill="#FBE54D"/>
<path d="M29.2422 46.942L29.2473 36.7471L30.7726 36.7478L30.7704 41.6159H30.894L35.1358 36.7493L37.056 36.75L32.9773 41.3379L37.0662 46.9449L35.2302 46.9442L31.9653 42.3881L30.7704 43.7716L30.769 46.9427L29.2422 46.942Z" fill="#FBE54D"/>
<path d="M40.007 36.7527L40.0019 46.9476L38.4766 46.9469L38.4817 36.752L40.007 36.7527Z" fill="#FBE54D"/>
<path d="M42.227 36.7539L44.0778 36.7546L47.2922 44.6811H47.4107L50.6324 36.7576L52.4831 36.7583L52.478 46.9532L51.0273 46.9525L51.0309 39.5755H50.9373L47.9525 46.9363L46.7482 46.9355L43.7706 39.5667H43.6771L43.6734 46.9488L42.2227 46.9481L42.227 36.7539Z" fill="#FBE54D"/>
<path d="M63.4821 41.8611C63.4814 42.9496 63.284 43.8848 62.8884 44.6658C62.4935 45.4467 61.9524 46.0478 61.2665 46.4667C60.5799 46.8863 59.8011 47.0958 58.9295 47.095C58.0543 47.0943 57.2733 46.8841 56.5882 46.4645C55.9023 46.0441 55.3619 45.4423 54.9678 44.6591C54.5737 43.8759 54.3762 42.9415 54.377 41.856C54.3777 40.7674 54.5751 39.8323 54.9707 39.0513C55.3656 38.2703 55.9067 37.67 56.5926 37.2504C57.2784 36.8308 58.0594 36.6213 58.9347 36.6221C59.8063 36.6221 60.5857 36.833 61.2716 37.2526C61.9575 37.673 62.4979 38.2733 62.892 39.0558C63.2861 39.8375 63.4828 40.7733 63.4821 41.8611ZM61.9721 41.8604C61.9729 41.0307 61.8405 40.3316 61.5758 39.7623C61.3111 39.1929 60.9492 38.7615 60.4907 38.4672C60.0322 38.1737 59.513 38.0262 58.9339 38.0262C58.3519 38.0262 57.8312 38.173 57.3742 38.4658C56.9165 38.7593 56.5553 39.1907 56.2906 39.7593C56.0259 40.3279 55.8928 41.0278 55.892 41.8574C55.892 42.6871 56.0237 43.3862 56.2884 43.9556C56.5531 44.5249 56.9136 44.9563 57.3713 45.2506C57.8283 45.5441 58.3482 45.6916 58.931 45.6916C59.5101 45.6916 60.0293 45.5448 60.4885 45.2521C60.9477 44.9585 61.3097 44.5271 61.5751 43.9585C61.8391 43.3899 61.9714 42.6908 61.9721 41.8604Z" fill="white"/>
<path d="M73.5391 36.7691L73.534 46.964L72.1322 46.9633L66.9976 39.4837H66.904L66.9003 46.9603L65.375 46.9596L65.3801 36.7646L66.7914 36.7654L71.9304 44.2545H72.024L72.0276 36.7676L73.5391 36.7691Z" fill="white"/>
<path d="M87.4468 36.7759L87.4417 46.9708L83.542 46.9693L83.5442 45.6508L85.9215 45.6522L85.9251 36.7744L87.4468 36.7759Z" fill="white"/>
<path d="M89.5781 36.7774L89.573 46.9723L88.0477 46.9716L88.0528 36.7767L89.5781 36.7774Z" fill="white"/>
<path d="M99.6477 36.7819L99.6426 46.9768L98.2408 46.9761L93.1062 39.4965H93.0126L93.009 46.9731L91.4836 46.9724L91.4887 36.7775L92.9 36.7782L98.0389 44.2674H98.1326L98.1362 36.78L99.6477 36.7819Z" fill="white"/>
<path d="M103.923 36.7843L103.922 42.5089H103.925L103.924 45.6551L101.547 45.6537L101.548 42.5081H101.545L101.546 36.7828L103.923 36.7843Z" fill="white"/>
</g>
<defs>
<clipPath id="clip0_3293_117161">
<rect width="104" height="48" fill="white"/>
</clipPath>
</defs>
</svg>