<svg width="52" height="53" viewBox="0 0 52 53" fill="none" xmlns="http://www.w3.org/2000/svg">
    <circle cx="26" cy="26.5" r="26" fill="#3F444D"/>
    <path d="M30.5613 30.9387C30.7705 31.1487 30.9129 31.416 30.9703 31.7068C31.0278 31.9977 30.9978 32.299 30.8841 32.5728C30.7704 32.8466 30.5781 33.0805 30.3316 33.2451C30.085 33.4097 29.7952 33.4976 29.4988 33.4976C29.2023 33.4976 28.9125 33.4097 28.6659 33.2451C28.4194 33.0805 28.2271 32.8466 28.1134 32.5728C27.9998 32.299 27.9697 31.9977 28.0272 31.7068C28.0847 31.416 28.227 31.1487 28.4363 30.9387C28.5756 30.7989 28.7412 30.688 28.9235 30.6122C29.1059 30.5365 29.3013 30.4976 29.4988 30.4976C29.6962 30.4976 29.8917 30.5365 30.074 30.6122C30.2563 30.688 30.4219 30.7989 30.5613 30.9387ZM20.4363 29.9387C20.227 30.1487 20.0847 30.416 20.0272 30.7068C19.9697 30.9977 19.9998 31.299 20.1134 31.5728C20.2271 31.8466 20.4194 32.0805 20.6659 32.2451C20.9125 32.4097 21.2023 32.4976 21.4988 32.4976C21.7952 32.4976 22.085 32.4097 22.3316 32.2451C22.5781 32.0805 22.7704 31.8466 22.8841 31.5728C22.9978 31.299 23.0278 30.9977 22.9703 30.7068C22.9129 30.416 22.7705 30.1487 22.5613 29.9387C22.4219 29.7993 22.2565 29.6886 22.0744 29.6132C21.8923 29.5377 21.6971 29.4988 21.5 29.4988C21.3029 29.4988 21.1077 29.5377 20.9256 29.6132C20.7435 29.6886 20.5781 29.7993 20.4388 29.9387H20.4363ZM21.5613 25.0638C21.7705 24.8538 21.9129 24.5865 21.9703 24.2957C22.0278 24.0048 21.9978 23.7035 21.8841 23.4297C21.7704 23.1559 21.5781 22.922 21.3316 22.7574C21.085 22.5928 20.7952 22.5049 20.4988 22.5049C20.2023 22.5049 19.9125 22.5928 19.6659 22.7574C19.4194 22.922 19.2271 23.1559 19.1134 23.4297C18.9998 23.7035 18.9697 24.0048 19.0272 24.2957C19.0847 24.5865 19.227 24.8538 19.4363 25.0638C19.5758 25.2034 19.7415 25.3142 19.9239 25.3897C20.1063 25.4652 20.3019 25.5039 20.4993 25.5037C20.6967 25.5035 20.8921 25.4642 21.0744 25.3883C21.2566 25.3124 21.4221 25.2013 21.5613 25.0612V25.0638ZM27.5613 24.9388C27.3513 24.7295 27.084 24.5871 26.7932 24.5297C26.5023 24.4722 26.201 24.5022 25.9272 24.6159C25.6534 24.7296 25.4195 24.9219 25.2549 25.1684C25.0903 25.415 25.0024 25.7048 25.0024 26.0013C25.0024 26.2977 25.0903 26.5875 25.2549 26.8341C25.4195 27.0806 25.6534 27.2729 25.9272 27.3866C26.201 27.5003 26.5023 27.5303 26.7932 27.4728C27.084 27.4154 27.3513 27.273 27.5613 27.0637C27.7011 26.9244 27.812 26.7588 27.8878 26.5765C27.9635 26.3941 28.0024 26.1987 28.0024 26.0013C28.0024 25.8038 27.9635 25.6083 27.8878 25.426C27.812 25.2437 27.7011 25.0781 27.5613 24.9388ZM39 26.5C39 29.0712 38.2376 31.5846 36.8091 33.7224C35.3807 35.8603 33.3503 37.5265 30.9749 38.5104C28.5995 39.4944 25.9856 39.7518 23.4638 39.2502C20.9421 38.7486 18.6257 37.5105 16.8076 35.6924C14.9895 33.8743 13.7514 31.5579 13.2498 29.0362C12.7482 26.5144 13.0056 23.9006 13.9896 21.5251C14.9735 19.1497 16.6398 17.1194 18.7776 15.6909C20.9154 14.2624 23.4288 13.5 26 13.5C26.2652 13.5 26.5196 13.6054 26.7071 13.7929C26.8946 13.9804 27 14.2348 27 14.5C27 15.8261 27.5268 17.0979 28.4645 18.0355C29.4022 18.9732 30.6739 19.5 32 19.5C32.2652 19.5 32.5196 19.6054 32.7071 19.7929C32.8946 19.9804 33 20.2348 33 20.5C33 21.8261 33.5268 23.0979 34.4645 24.0355C35.4022 24.9732 36.6739 25.5 38 25.5C38.2652 25.5 38.5196 25.6054 38.7071 25.7929C38.8946 25.9804 39 26.2348 39 26.5ZM36.9613 27.4237C35.4636 27.1964 34.0797 26.4905 33.0164 25.4115C31.9532 24.3325 31.2677 22.9384 31.0625 21.4375C29.5616 21.2323 28.1675 20.5468 27.0885 19.4836C26.0095 18.4203 25.3036 17.0364 25.0763 15.5388C22.9868 15.7149 20.9912 16.4845 19.3246 17.7571C17.658 19.0296 16.3898 20.752 15.6695 22.7212C14.9492 24.6905 14.8068 26.8246 15.259 28.8722C15.7112 30.9197 16.7392 32.7953 18.2219 34.2781C19.7047 35.7608 21.5803 36.7888 23.6278 37.241C25.6754 37.6933 27.8095 37.5508 29.7788 36.8305C31.7481 36.1102 33.4704 34.842 34.743 33.1754C36.0155 31.5088 36.7851 29.5132 36.9613 27.4237Z" fill="white"/>
</svg>
