<svg width="16" height="12" viewBox="0 0 16 12" fill="none" xmlns="http://www.w3.org/2000/svg">
    <path d="M15.4425 1.06754L5.44254 11.0675C5.38449 11.1256 5.31556 11.1717 5.23969 11.2032C5.16381 11.2347 5.08248 11.2508 5.00035 11.2508C4.91821 11.2508 4.83688 11.2347 4.76101 11.2032C4.68514 11.1717 4.61621 11.1256 4.55816 11.0675L0.18316 6.69254C0.0658846 6.57526 0 6.4162 0 6.25035C0 6.0845 0.0658846 5.92544 0.18316 5.80816C0.300435 5.69088 0.459495 5.625 0.625347 5.625C0.7912 5.625 0.95026 5.69088 1.06753 5.80816L5.00035 9.74175L14.5582 0.18316C14.6754 0.0658843 14.8345 -1.2357e-09 15.0003 0C15.1662 1.2357e-09 15.3253 0.0658843 15.4425 0.18316C15.5598 0.300435 15.6257 0.459495 15.6257 0.625347C15.6257 0.7912 15.5598 0.95026 15.4425 1.06754Z" fill="white"/>
</svg>