<svg width="16" height="17" viewBox="0 0 16 17" fill="none" xmlns="http://www.w3.org/2000/svg">
<path d="M13.8981 10.4036L10.9538 9.08425L10.9456 9.0805C10.7928 9.01512 10.626 8.98888 10.4605 9.00416C10.2949 9.01944 10.1358 9.07575 9.99751 9.168C9.98122 9.17875 9.96557 9.19044 9.95063 9.203L8.42938 10.4999C7.46563 10.0317 6.47063 9.04425 6.00251 8.093L7.30126 6.54862C7.31376 6.533 7.32563 6.51737 7.33688 6.5005C7.42715 6.36256 7.48192 6.20445 7.49631 6.04023C7.5107 5.87601 7.48428 5.71078 7.41938 5.55925V5.55175L6.09626 2.60237C6.01047 2.40441 5.86296 2.23951 5.67575 2.13227C5.48854 2.02504 5.27166 1.98122 5.05751 2.00737C4.21061 2.11882 3.43324 2.53473 2.87059 3.17743C2.30794 3.82014 1.99847 4.64568 2.00001 5.49987C2.00001 10.4624 6.03751 14.4999 11 14.4999C11.8542 14.5014 12.6797 14.1919 13.3224 13.6293C13.9651 13.0666 14.3811 12.2893 14.4925 11.4424C14.5187 11.2283 14.475 11.0115 14.3679 10.8243C14.2607 10.6371 14.096 10.4895 13.8981 10.4036ZM11 13.4999C8.87898 13.4976 6.8455 12.654 5.34571 11.1542C3.84592 9.65438 3.00232 7.62089 3.00001 5.49987C2.99765 4.88955 3.21754 4.29925 3.61859 3.83919C4.01964 3.37913 4.57444 3.08079 5.17938 2.99987C5.17913 3.00237 5.17913 3.00488 5.17938 3.00737L6.49188 5.94487L5.20001 7.49112C5.18689 7.50621 5.17498 7.5223 5.16438 7.53925C5.07033 7.68357 5.01515 7.84975 5.0042 8.02166C4.99325 8.19358 5.0269 8.36541 5.10188 8.5205C5.66813 9.67862 6.83501 10.8367 8.00563 11.4024C8.16186 11.4767 8.33468 11.5091 8.50722 11.4966C8.67976 11.4842 8.8461 11.4271 8.99001 11.3311C9.00605 11.3203 9.02149 11.3086 9.03626 11.2961L10.5556 9.99987L13.4931 11.3155C13.4931 11.3155 13.4981 11.3155 13.5 11.3155C13.4201 11.9213 13.1222 12.4772 12.662 12.8793C12.2019 13.2813 11.611 13.5019 11 13.4999Z" fill="#D0D0D0"/>
</svg>
