<svg width="21" height="20" viewBox="0 0 21 20" fill="none" xmlns="http://www.w3.org/2000/svg">
<path d="M10.5 1.875C8.89303 1.875 7.32214 2.35152 5.986 3.24431C4.64985 4.1371 3.60844 5.40605 2.99348 6.8907C2.37852 8.37535 2.21762 10.009 2.53112 11.5851C2.84463 13.1612 3.61846 14.6089 4.75476 15.7452C5.89106 16.8815 7.3388 17.6554 8.91489 17.9689C10.491 18.2824 12.1247 18.1215 13.6093 17.5065C15.094 16.8916 16.3629 15.8502 17.2557 14.514C18.1485 13.1779 18.625 11.607 18.625 10C18.6227 7.84581 17.766 5.78051 16.2427 4.25727C14.7195 2.73403 12.6542 1.87727 10.5 1.875ZM10.5 16.875C9.14026 16.875 7.81105 16.4718 6.68046 15.7164C5.54987 14.9609 4.66868 13.8872 4.14833 12.6309C3.62798 11.3747 3.49183 9.99237 3.7571 8.65875C4.02238 7.32513 4.67716 6.10013 5.63864 5.13864C6.60013 4.17715 7.82514 3.52237 9.15876 3.2571C10.4924 2.99183 11.8747 3.12798 13.131 3.64833C14.3872 4.16868 15.4609 5.04987 16.2164 6.18045C16.9718 7.31104 17.375 8.64025 17.375 10C17.3729 11.8227 16.6479 13.5702 15.3591 14.8591C14.0702 16.1479 12.3227 16.8729 10.5 16.875ZM11.75 13.75C11.75 13.9158 11.6842 14.0747 11.5669 14.1919C11.4497 14.3092 11.2908 14.375 11.125 14.375C10.7935 14.375 10.4755 14.2433 10.2411 14.0089C10.0067 13.7745 9.875 13.4565 9.875 13.125V10C9.70924 10 9.55027 9.93415 9.43306 9.81694C9.31585 9.69973 9.25 9.54076 9.25 9.375C9.25 9.20924 9.31585 9.05027 9.43306 8.93306C9.55027 8.81585 9.70924 8.75 9.875 8.75C10.2065 8.75 10.5245 8.8817 10.7589 9.11612C10.9933 9.35054 11.125 9.66848 11.125 10V13.125C11.2908 13.125 11.4497 13.1908 11.5669 13.3081C11.6842 13.4253 11.75 13.5842 11.75 13.75ZM9.25 6.5625C9.25 6.37708 9.30499 6.19582 9.408 6.04165C9.51101 5.88748 9.65743 5.76732 9.82874 5.69636C10 5.62541 10.1885 5.60684 10.3704 5.64301C10.5523 5.67919 10.7193 5.76848 10.8504 5.89959C10.9815 6.0307 11.0708 6.19775 11.107 6.3796C11.1432 6.56146 11.1246 6.74996 11.0536 6.92127C10.9827 7.09257 10.8625 7.23899 10.7084 7.342C10.5542 7.44502 10.3729 7.5 10.1875 7.5C9.93886 7.5 9.70041 7.40123 9.52459 7.22541C9.34878 7.0496 9.25 6.81114 9.25 6.5625Z" fill="#D0D0D0"/>
</svg>
