<svg width="19" height="20" viewBox="0 0 19 20" fill="none" xmlns="http://www.w3.org/2000/svg">
    <path d="M17 0.75H2C1.60218 0.75 1.22064 0.908035 0.93934 1.18934C0.658035 1.47064 0.5 1.85218 0.5 2.25V7.76062C0.5 16.1616 7.60812 18.9487 9.03125 19.4222C9.3352 19.5256 9.6648 19.5256 9.96875 19.4222C11.3938 18.9487 18.5 16.1616 18.5 7.76062V2.25C18.5 1.85218 18.342 1.47064 18.0607 1.18934C17.7794 0.908035 17.3978 0.75 17 0.75ZM17 7.76156C17 15.1134 10.7797 17.5697 9.5 17.9972C8.23156 17.5744 2 15.12 2 7.76156V2.25H17V7.76156ZM5.21937 10.2806C5.07864 10.1399 4.99958 9.94902 4.99958 9.75C4.99958 9.55098 5.07864 9.36011 5.21937 9.21937C5.36011 9.07864 5.55098 8.99958 5.75 8.99958C5.94902 8.99958 6.13989 9.07864 6.28063 9.21937L8 10.9387L12.7194 6.21937C12.7891 6.14969 12.8718 6.09442 12.9628 6.0567C13.0539 6.01899 13.1515 5.99958 13.25 5.99958C13.3485 5.99958 13.4461 6.01899 13.5372 6.0567C13.6282 6.09442 13.7109 6.14969 13.7806 6.21937C13.8503 6.28906 13.9056 6.37178 13.9433 6.46283C13.981 6.55387 14.0004 6.65145 14.0004 6.75C14.0004 6.84855 13.981 6.94613 13.9433 7.03717C13.9056 7.12822 13.8503 7.21094 13.7806 7.28063L8.53063 12.5306C8.46097 12.6004 8.37825 12.6557 8.28721 12.6934C8.19616 12.7312 8.09856 12.7506 8 12.7506C7.90144 12.7506 7.80384 12.7312 7.71279 12.6934C7.62175 12.6557 7.53903 12.6004 7.46937 12.5306L5.21937 10.2806Z" fill="#46A08F"/>
</svg>
