<svg width="68" height="68" viewBox="0 0 68 68" fill="none" xmlns="http://www.w3.org/2000/svg">
<circle cx="34" cy="34" r="34" fill="#35373F"/>
<path d="M44 23H24C23.4696 23 22.9609 23.2107 22.5858 23.5858C22.2107 23.9609 22 24.4696 22 25V32.3475C22 43.5487 31.4775 47.265 33.375 47.8962C33.7803 48.0341 34.2197 48.0341 34.625 47.8962C36.525 47.265 46 43.5487 46 32.3475V25C46 24.4696 45.7893 23.9609 45.4142 23.5858C45.0391 23.2107 44.5304 23 44 23ZM44 32.3488C44 42.1512 35.7062 45.4263 34 45.9963C32.3088 45.4325 24 42.16 24 32.3488V25H44V32.3488ZM28.2925 35.7075C28.1049 35.5199 27.9994 35.2654 27.9994 35C27.9994 34.7346 28.1049 34.4801 28.2925 34.2925C28.4801 34.1049 28.7346 33.9994 29 33.9994C29.2654 33.9994 29.5199 34.1049 29.7075 34.2925L32 36.585L38.2925 30.2925C38.3854 30.1996 38.4957 30.1259 38.6171 30.0756C38.7385 30.0253 38.8686 29.9994 39 29.9994C39.1314 29.9994 39.2615 30.0253 39.3829 30.0756C39.5043 30.1259 39.6146 30.1996 39.7075 30.2925C39.8004 30.3854 39.8741 30.4957 39.9244 30.6171C39.9747 30.7385 40.0006 30.8686 40.0006 31C40.0006 31.1314 39.9747 31.2615 39.9244 31.3829C39.8741 31.5043 39.8004 31.6146 39.7075 31.7075L32.7075 38.7075C32.6146 38.8005 32.5043 38.8742 32.3829 38.9246C32.2615 38.9749 32.1314 39.0008 32 39.0008C31.8686 39.0008 31.7385 38.9749 31.6171 38.9246C31.4957 38.8742 31.3854 38.8005 31.2925 38.7075L28.2925 35.7075Z" fill="white"/>
</svg>
