<svg width="151" height="28" viewBox="0 0 151 28" fill="none" xmlns="http://www.w3.org/2000/svg">
<g clip-path="url(#clip0_3293_290892)">
<path d="M106.286 19.5381H98.6035L98.9088 17.8031H103.379L104.791 9.82265C104.976 8.77299 104.07 8.45326 103.152 8.45326C102.774 8.45326 102.386 8.49187 101.87 8.5721L101.669 7.4428C102.985 6.97166 104.014 6.77742 105.332 6.77681C106.719 6.77621 107.705 7.06155 108.336 7.54717C108.948 8.0165 109.186 8.67284 109.023 9.58798L107.437 18.5198C107.311 19.1128 107.062 19.5381 106.286 19.5381Z" fill="#E0E0E0"/>
<path d="M120.838 19.54H108.484L108.793 17.8051H114.806L116.224 9.82279C116.291 9.45058 116.327 8.93842 115.816 8.73874C114.551 8.24347 112.236 8.70495 110.704 9.04881L110.501 7.89237C111.384 7.57989 113.858 6.77695 116.78 6.77695C118.168 6.77695 119.154 7.06229 119.785 7.54731C120.397 8.01724 120.625 8.67238 120.461 9.58873L119.003 17.8051H121.144L120.838 19.54Z" fill="#E0E0E0"/>
<path d="M98.32 16.7029C98.0087 17.6741 97.4465 18.4457 96.5096 19.0163C95.5746 19.5876 94.3789 19.8911 92.9118 19.8911C91.5255 19.8911 90.7491 19.4278 90.4095 19.1587L89.5348 24.1006H85.4121L87.4577 12.5126H91.5822L90.5953 18.1042C90.7431 18.217 91.2136 18.5048 92.177 18.5048C93.1139 18.5048 93.7238 18.0614 94.0097 17.1692C94.0809 16.949 95.4268 9.13621 95.4268 9.13621L88.0532 9.13682L88.4061 7.13522L100.007 7.13581C100.007 7.13581 98.478 16.2094 98.32 16.7029Z" fill="#E0E0E0"/>
<path d="M134.508 1.58543C135.689 0.145458 136.579 -0.525961 138.644 0.664263L148.869 6.47724C151.235 7.85025 151.481 10.2048 150.297 11.8709L140.24 26.4408C138.48 28.9799 136.617 27.853 135.343 26.3998L125.636 15.4483C124.684 14.3431 124.446 13.5197 125.437 12.324L134.508 1.58543Z" fill="#ACACAC"/>
<path fill-rule="evenodd" clip-rule="evenodd" d="M65.5205 16.4057C65.3341 17.4843 64.7357 18.3289 63.7096 18.9448C62.6792 19.5638 61.3557 19.8672 59.7287 19.8672C56.0247 19.8672 53.8379 19.2965 53.8379 19.2965L54.0894 17.6864C54.0894 17.6864 55.8739 18.3156 58.5921 18.3156C59.3028 18.3156 60.0816 18.2722 60.5292 17.9832C60.9792 17.6918 61.2646 17.2955 61.3533 16.7864L62.6834 9.25833C62.6834 9.25833 63.2372 8.05905 61.2133 8.05905C59.6907 8.05905 59.6955 8.5115 59.3432 10.4745C58.6302 14.4494 59.1369 14.2997 60.1214 14.377L59.9422 15.6589L58.9885 15.8417C58.3702 15.9605 54.0587 16.504 55.3285 10.7514L55.9439 7.42986C55.9439 7.42986 57.7554 6.77653 61.5167 6.77653C65.0536 6.77653 67.0438 7.78698 66.5974 10.3122L65.5205 16.4057Z" fill="#E0E0E0"/>
<path d="M30.9479 16.4217C30.7591 17.4979 30.1492 18.3213 29.1327 18.9632C27.475 20.0105 25.2472 20.1058 22.9047 19.4512L23.172 17.9582C24.6837 18.4498 26.4881 18.1916 26.7408 16.6648L28.0698 9.13615H21.6445L22.7998 2.57936H26.9767L26.1798 7.13636H32.5749L30.9479 16.4217Z" fill="#E0E0E0"/>
<path d="M78.4409 19.5391H74.346L76.0291 9.99193C76.1196 9.47916 75.9754 9.04 75.5857 8.71303C75.2913 8.4663 74.2399 8.30281 73.1685 8.263C72.3185 8.23163 71.8057 8.27024 70.8882 8.42468C70.2734 8.52844 69.9236 8.62254 69.1641 8.85057L69.415 7.42508C70.4297 7.18076 70.94 7.07519 71.8962 6.95152C73.2734 6.77356 74.3846 6.79528 75.3251 6.79528C76.9678 6.79528 78.4494 7.11681 79.2306 7.71162C79.9919 8.29135 80.2839 9.08947 80.0939 10.1645L78.4409 19.5391Z" fill="#E0E0E0"/>
<path d="M18.3725 13.4238L15.2266 13.4232L16.3353 7.13247H20.493L19.5555 12.4128C19.4409 12.9575 19.2696 13.4238 18.3725 13.4238Z" fill="#E0E0E0"/>
<path d="M50.5611 19.54H47.3457L49.5319 7.13649H53.7155L51.7115 18.5229C51.5902 19.1455 51.2771 19.54 50.5611 19.54Z" fill="#E0E0E0"/>
<path d="M45.6165 15.4089C45.3221 17.0811 44.3394 19.8682 37.4882 19.8682C33.9737 19.8682 32.1663 19.4634 31.3809 19.2293L31.6656 17.6204C32.2592 17.729 33.0211 17.9812 34.3253 18.0307L36.2491 7.13706H40.2934L38.3394 18.2002C38.9433 18.199 40.9087 18.1634 41.1162 16.9882L42.856 7.13706H47.039L45.6165 15.4089Z" fill="#E0E0E0"/>
<path fill-rule="evenodd" clip-rule="evenodd" d="M11.5171 19.54H0.990234L3.13481 7.4152C4.10123 7.1739 4.67372 7.05566 5.65702 6.9332C6.97755 6.76972 8.14606 6.77695 9.08653 6.77695C10.7401 6.77695 12.6138 7.11779 13.3908 7.70898C14.1533 8.28871 14.4507 9.08742 14.2595 10.1618L12.7766 18.5296C12.6325 19.1799 12.3948 19.54 11.5171 19.54ZM9.73021 8.72124C9.35197 8.40393 8.77767 8.21391 7.07407 8.40876L5.37711 17.9848H8.75776L10.1736 10.0008C10.2641 9.48738 10.1199 9.04821 9.73021 8.72124Z" fill="#E0E0E0"/>
<path d="M70.3583 19.5391H67.3203L68.5679 12.4611H72.5867L71.5226 18.522C71.3935 19.1789 71.087 19.5391 70.3583 19.5391Z" fill="#E0E0E0"/>
</g>
<defs>
<clipPath id="clip0_3293_290892">
<rect width="150" height="27.8966" fill="white" transform="translate(0.990234 0.0517578)"/>
</clipPath>
</defs>
</svg>
