<svg width="19" height="20" viewBox="0 0 19 20" fill="none" xmlns="http://www.w3.org/2000/svg">
    <path d="M17 2H14.75V1.25C14.75 1.05109 14.671 0.860322 14.5303 0.71967C14.3897 0.579018 14.1989 0.5 14 0.5C13.8011 0.5 13.6103 0.579018 13.4697 0.71967C13.329 0.860322 13.25 1.05109 13.25 1.25V2H5.75V1.25C5.75 1.05109 5.67098 0.860322 5.53033 0.71967C5.38968 0.579018 5.19891 0.5 5 0.5C4.80109 0.5 4.61032 0.579018 4.46967 0.71967C4.32902 0.860322 4.25 1.05109 4.25 1.25V2H2C1.60218 2 1.22064 2.15804 0.93934 2.43934C0.658035 2.72064 0.5 3.10218 0.5 3.5V18.5C0.5 18.8978 0.658035 19.2794 0.93934 19.5607C1.22064 19.842 1.60218 20 2 20H17C17.3978 20 17.7794 19.842 18.0607 19.5607C18.342 19.2794 18.5 18.8978 18.5 18.5V3.5C18.5 3.10218 18.342 2.72064 18.0607 2.43934C17.7794 2.15804 17.3978 2 17 2ZM4.25 3.5V4.25C4.25 4.44891 4.32902 4.63968 4.46967 4.78033C4.61032 4.92098 4.80109 5 5 5C5.19891 5 5.38968 4.92098 5.53033 4.78033C5.67098 4.63968 5.75 4.44891 5.75 4.25V3.5H13.25V4.25C13.25 4.44891 13.329 4.63968 13.4697 4.78033C13.6103 4.92098 13.8011 5 14 5C14.1989 5 14.3897 4.92098 14.5303 4.78033C14.671 4.63968 14.75 4.44891 14.75 4.25V3.5H17V6.5H2V3.5H4.25ZM17 18.5H2V8H17V18.5Z" fill="white"/>
</svg>