<svg width="31" height="31" viewBox="0 0 31 31" fill="none" xmlns="http://www.w3.org/2000/svg">
<circle cx="15.5" cy="15.5" r="15.5" fill="#FBE54D"/>
<path d="M24.1633 12.2881L14.1633 22.2882C14.0762 22.3756 13.9727 22.4449 13.8588 22.4922C13.7448 22.5395 13.6226 22.5639 13.4992 22.5639C13.3759 22.5639 13.2537 22.5395 13.1397 22.4922C13.0258 22.4449 12.9223 22.3756 12.8352 22.2882L8.46018 17.9132C8.37298 17.8259 8.3038 17.7224 8.25661 17.6085C8.20941 17.4945 8.18512 17.3724 8.18512 17.2491C8.18512 17.1258 8.20941 17.0036 8.25661 16.8897C8.3038 16.7758 8.37298 16.6722 8.46018 16.585C8.54739 16.4978 8.65092 16.4286 8.76486 16.3814C8.8788 16.3343 9.00092 16.31 9.12425 16.31C9.24757 16.31 9.36969 16.3343 9.48363 16.3814C9.59757 16.4286 9.7011 16.4978 9.78831 16.585L13.5 20.2967L22.8367 10.9616C23.0129 10.7855 23.2517 10.6865 23.5008 10.6865C23.7499 10.6865 23.9887 10.7855 24.1649 10.9616C24.341 11.1377 24.4399 11.3766 24.4399 11.6256C24.4399 11.8747 24.341 12.1136 24.1649 12.2897L24.1633 12.2881Z" fill="#161616"/>
</svg>