<svg width="32" height="32" viewBox="0 0 32 32" fill="none" xmlns="http://www.w3.org/2000/svg">
<path d="M26.6007 10.5583C26.6169 10.7934 26.6169 11.0285 26.6169 11.2658C26.6169 18.495 21.1135 26.8324 11.0503 26.8324V26.8281C8.07756 26.8324 5.1666 25.9809 2.66406 24.3754C3.09632 24.4274 3.53074 24.4534 3.96625 24.4545C6.42979 24.4566 8.82291 23.6301 10.761 22.1079C8.4199 22.0635 6.36695 20.5371 5.64978 18.3086C6.46987 18.4668 7.31489 18.4343 8.11981 18.2144C5.56744 17.6987 3.73116 15.4562 3.73116 12.8518C3.73116 12.828 3.73116 12.8052 3.73116 12.7825C4.49167 13.2061 5.34319 13.4411 6.2142 13.4671C3.81025 11.8605 3.06924 8.66248 4.52092 6.16211C7.29864 9.58008 11.3969 11.6579 15.7964 11.8779C15.3555 9.97767 15.9579 7.98647 17.3792 6.6507C19.5827 4.57934 23.0484 4.68551 25.1197 6.88796C26.345 6.64637 27.5194 6.19678 28.5941 5.55977C28.1856 6.82621 27.3309 7.90197 26.189 8.58557C27.2734 8.45773 28.333 8.16739 29.3307 7.7243C28.5962 8.82499 27.671 9.78375 26.6007 10.5583Z" fill="white"/>
</svg>
