<svg width="32" height="32" viewBox="0 0 32 32" fill="none" xmlns="http://www.w3.org/2000/svg">
<path fill-rule="evenodd" clip-rule="evenodd" d="M26.3868 7.22107C27.5336 7.52916 28.4407 8.43631 28.7488 9.58307C29.3136 11.6712 29.3307 16.0016 29.3307 16.0016C29.3307 16.0016 29.3307 20.349 28.7659 22.42C28.4578 23.5668 27.5507 24.474 26.4039 24.7821C24.3329 25.3469 15.9974 25.3469 15.9974 25.3469C15.9974 25.3469 7.66192 25.3469 5.59089 24.7821C4.44412 24.474 3.53698 23.5668 3.22889 22.42C2.66406 20.3319 2.66406 16.0016 2.66406 16.0016C2.66406 16.0016 2.66406 11.6712 3.21177 9.6002C3.51986 8.45343 4.42701 7.54628 5.57378 7.2382C7.64481 6.67336 15.9803 6.65625 15.9803 6.65625C15.9803 6.65625 24.3158 6.65625 26.3868 7.22107ZM20.2422 16.0016L13.3273 20.0067L13.3273 11.9964L20.2422 16.0016Z" fill="white"/>
</svg>
