<svg width="68" height="68" viewBox="0 0 68 68" fill="none" xmlns="http://www.w3.org/2000/svg">
<circle cx="34" cy="34" r="34" fill="#35373F"/>
<path d="M21 31H24V39H22C21.7348 39 21.4804 39.1054 21.2929 39.2929C21.1054 39.4804 21 39.7348 21 40C21 40.2652 21.1054 40.5196 21.2929 40.7071C21.4804 40.8946 21.7348 41 22 41H46C46.2652 41 46.5196 40.8946 46.7071 40.7071C46.8946 40.5196 47 40.2652 47 40C47 39.7348 46.8946 39.4804 46.7071 39.2929C46.5196 39.1054 46.2652 39 46 39H44V31H47C47.2176 30.9998 47.4292 30.9286 47.6026 30.7973C47.7761 30.6659 47.902 30.4816 47.9612 30.2722C48.0205 30.0629 48.0098 29.8399 47.9308 29.6372C47.8519 29.4344 47.709 29.2629 47.5238 29.1488L34.5238 21.1488C34.3662 21.0519 34.1849 21.0006 34 21.0006C33.8151 21.0006 33.6338 21.0519 33.4762 21.1488L20.4762 29.1488C20.291 29.2629 20.1481 29.4344 20.0692 29.6372C19.9902 29.8399 19.9795 30.0629 20.0388 30.2722C20.098 30.4816 20.2239 30.6659 20.3974 30.7973C20.5708 30.9286 20.7824 30.9998 21 31ZM26 31H30V39H26V31ZM36 31V39H32V31H36ZM42 39H38V31H42V39ZM34 23.1738L43.4675 29H24.5325L34 23.1738ZM49 44C49 44.2652 48.8946 44.5196 48.7071 44.7071C48.5196 44.8946 48.2652 45 48 45H20C19.7348 45 19.4804 44.8946 19.2929 44.7071C19.1054 44.5196 19 44.2652 19 44C19 43.7348 19.1054 43.4804 19.2929 43.2929C19.4804 43.1054 19.7348 43 20 43H48C48.2652 43 48.5196 43.1054 48.7071 43.2929C48.8946 43.4804 49 43.7348 49 44Z" fill="white"/>
</svg>
