<svg width="55" height="54" viewBox="0 0 55 54" fill="none" xmlns="http://www.w3.org/2000/svg">
<path d="M27.5 5.0625C23.1612 5.0625 18.9198 6.34911 15.3122 8.75964C11.7046 11.1702 8.8928 14.5963 7.2324 18.6049C5.57201 22.6134 5.13757 27.0243 5.98403 31.2798C6.8305 35.5353 8.91984 39.4441 11.9879 42.5122C15.0559 45.5802 18.9648 47.6695 23.2202 48.516C27.4757 49.3624 31.8866 48.928 35.8951 47.2676C39.9037 45.6072 43.3298 42.7954 45.7404 39.1878C48.1509 35.5802 49.4375 31.3388 49.4375 27C49.4303 21.184 47.1167 15.6084 43.0041 11.4959C38.8916 7.38335 33.316 5.06976 27.5 5.0625ZM35.1866 28.4048L25.0616 35.1548C24.7839 35.3389 24.4582 35.4372 24.125 35.4375C23.6775 35.4375 23.2482 35.2597 22.9318 34.9432C22.6153 34.6268 22.4375 34.1976 22.4375 33.75V20.25C22.4373 19.9444 22.5201 19.6445 22.677 19.3823C22.8339 19.1201 23.0591 18.9054 23.3285 18.7612C23.5979 18.617 23.9014 18.5486 24.2067 18.5634C24.5119 18.5782 24.8074 18.6756 25.0616 18.8452L35.1866 25.5952C35.418 25.7492 35.6079 25.958 35.7392 26.2031C35.8705 26.4482 35.9392 26.722 35.9392 27C35.9392 27.278 35.8705 27.5518 35.7392 27.7969C35.6079 28.042 35.418 28.2508 35.1866 28.4048Z" fill="white"/>
</svg>
