<svg width="69" height="68" viewBox="0 0 69 68" fill="none" xmlns="http://www.w3.org/2000/svg">
<circle cx="34.5" cy="34" r="34" fill="#35373F"/>
<path d="M46.2337 28.395C47.6214 31.2973 47.8848 34.6107 46.9732 37.6957C46.0616 40.7808 44.0395 43.4188 41.2972 45.1006C38.5549 46.7825 35.2868 47.3889 32.1237 46.8029C28.9606 46.2169 26.1267 44.48 24.1689 41.9274C22.2111 39.3748 21.2682 36.1874 21.5223 32.9805C21.7763 29.7737 23.2092 26.7745 25.5445 24.562C27.8797 22.3495 30.9518 21.0804 34.1677 20.9997C37.3836 20.919 40.5155 22.0324 42.9587 24.125L45.7925 21.29C45.9801 21.1024 46.2346 20.997 46.5 20.997C46.7654 20.997 47.0199 21.1024 47.2075 21.29C47.3951 21.4776 47.5006 21.7321 47.5006 21.9975C47.5006 22.2629 47.3951 22.5174 47.2075 22.705L35.2075 34.705C35.0199 34.8927 34.7654 34.9981 34.5 34.9981C34.2346 34.9981 33.9801 34.8927 33.7925 34.705C33.6049 34.5174 33.4994 34.2629 33.4994 33.9975C33.4994 33.7321 33.6049 33.4777 33.7925 33.29L37.2575 29.825C36.3184 29.204 35.1973 28.918 34.0755 29.0134C32.9537 29.1089 31.8969 29.5801 31.0763 30.3509C30.2556 31.1217 29.7191 32.1469 29.5536 33.2605C29.3882 34.3741 29.6033 35.511 30.1644 36.4871C30.7254 37.4632 31.5995 38.2214 32.6451 38.6389C33.6906 39.0564 34.8465 39.1089 35.9256 38.7877C37.0047 38.4666 37.9438 37.7906 38.5909 36.8693C39.238 35.948 39.5552 34.8353 39.4912 33.7113C39.4839 33.5799 39.5024 33.4484 39.5458 33.3243C39.5893 33.2001 39.6567 33.0858 39.7444 32.9877C39.832 32.8896 39.9381 32.8097 40.0566 32.7527C40.1751 32.6956 40.3037 32.6624 40.435 32.655C40.7002 32.6401 40.9605 32.7311 41.1586 32.9081C41.2567 32.9958 41.3365 33.1019 41.3936 33.2204C41.4507 33.3389 41.4839 33.4674 41.4912 33.5988C41.5824 35.1897 41.128 36.7642 40.2031 38.0619C39.2782 39.3596 37.9382 40.3029 36.4046 40.7359C34.8709 41.1689 33.2355 41.0656 31.7685 40.4431C30.3015 39.8207 29.0908 38.7163 28.3365 37.3125C27.5822 35.9088 27.3295 34.2897 27.6201 32.7228C27.9107 31.1559 28.7272 29.7351 29.9347 28.6952C31.1422 27.6552 32.6683 27.0584 34.261 27.0034C35.8536 26.9484 37.4174 27.4384 38.6938 28.3925L41.5375 25.5488C39.4535 23.8185 36.8037 22.9192 34.0971 23.0236C31.3904 23.128 28.8178 24.2287 26.8732 26.1143C24.9287 28 23.7494 30.5376 23.5618 33.2397C23.3742 35.9419 24.1916 38.6181 25.8569 40.7543C27.5223 42.8905 29.9182 44.3361 32.5844 44.8135C35.2507 45.2909 37.9993 44.7663 40.3024 43.3406C42.6055 41.9149 44.3006 39.6886 45.0622 37.0892C45.8239 34.4898 45.5983 31.7007 44.4287 29.2575C44.3144 29.0182 44.2998 28.7432 44.3881 28.493C44.4765 28.2429 44.6606 28.0381 44.9 27.9238C45.1394 27.8094 45.4143 27.7948 45.6645 27.8832C45.9146 27.9715 46.1194 28.1557 46.2337 28.395Z" fill="white"/>
</svg>
