<svg width="68" height="68" viewBox="0 0 68 68" fill="none" xmlns="http://www.w3.org/2000/svg">
<circle cx="34" cy="34" r="34" fill="#35373F"/>
<path d="M46.7913 35.6325C46.4191 35.3462 45.986 35.1496 45.5255 35.0578C45.0651 34.9661 44.5897 34.9819 44.1362 35.1038L38.9062 36.3063C39.0279 35.7922 39.0317 35.2574 38.9172 34.7417C38.8028 34.226 38.5731 33.7429 38.2454 33.3287C37.9177 32.9144 37.5005 32.5797 37.0251 32.3495C36.5496 32.1194 36.0282 31.9999 35.5 32H29.2425C28.717 31.9987 28.1964 32.1015 27.7109 32.3025C27.2254 32.5036 26.7845 32.7988 26.4137 33.1713L23.5862 36H20C19.4696 36 18.9609 36.2107 18.5858 36.5858C18.2107 36.9609 18 37.4696 18 38V43C18 43.5304 18.2107 44.0391 18.5858 44.4142C18.9609 44.7893 19.4696 45 20 45H33C33.0818 45 33.1632 44.99 33.2425 44.97L41.2425 42.97C41.2935 42.9579 41.3433 42.9411 41.3913 42.92L46.25 40.8525L46.305 40.8275C46.772 40.5942 47.1718 40.2458 47.4669 39.8152C47.7621 39.3846 47.9427 38.886 47.9918 38.3663C48.041 37.8466 47.957 37.3229 47.7478 36.8447C47.5387 36.3664 47.2112 35.9492 46.7962 35.6325H46.7913ZM20 38H23V43H20V38ZM45.4287 39.0263L40.6787 41.0488L32.875 43H25V37.4138L27.8287 34.5863C28.0138 34.3997 28.2341 34.2518 28.4768 34.1512C28.7195 34.0506 28.9798 33.9992 29.2425 34H35.5C35.8978 34 36.2794 34.158 36.5607 34.4393C36.842 34.7206 37 35.1022 37 35.5C37 35.8978 36.842 36.2794 36.5607 36.5607C36.2794 36.842 35.8978 37 35.5 37H32C31.7348 37 31.4804 37.1054 31.2929 37.2929C31.1054 37.4804 31 37.7348 31 38C31 38.2652 31.1054 38.5196 31.2929 38.7071C31.4804 38.8946 31.7348 39 32 39H36C36.0753 38.9998 36.1503 38.9914 36.2237 38.975L44.5987 37.0488L44.6375 37.0388C44.8932 36.9678 45.166 36.9939 45.4036 37.112C45.6412 37.2301 45.8267 37.4319 45.9245 37.6786C46.0222 37.9253 46.0253 38.1994 45.9331 38.4482C45.8409 38.697 45.6599 38.9029 45.425 39.0263H45.4287ZM38.5 30C38.7471 30.0003 38.9937 29.9802 39.2375 29.94C39.5117 30.7544 40.0133 31.4733 40.6832 32.0117C41.353 32.55 42.1629 32.8854 43.0173 32.978C43.8716 33.0706 44.7346 32.9167 45.5042 32.5344C46.2739 32.1521 46.9179 31.5574 47.3603 30.8206C47.8026 30.0839 48.0248 29.2359 48.0005 28.3769C47.9762 27.5179 47.7064 26.6838 47.2231 25.9732C46.7398 25.2627 46.0631 24.7054 45.2731 24.3672C44.4831 24.0291 43.6127 23.9242 42.765 24.065C42.501 23.2803 42.0256 22.5837 41.3912 22.0517C40.7568 21.5198 39.9879 21.1732 39.1692 21.05C38.3505 20.9269 37.5137 21.032 36.7509 21.3538C35.988 21.6756 35.3288 22.2016 34.8456 22.874C34.3625 23.5463 34.0742 24.3389 34.0125 25.1645C33.9507 25.9901 34.118 26.8167 34.4958 27.5534C34.8735 28.2901 35.4472 28.9083 36.1537 29.34C36.8602 29.7716 37.6721 30 38.5 30ZM46 28.5C46 28.9945 45.8534 29.4778 45.5787 29.8889C45.304 30.3001 44.9135 30.6205 44.4567 30.8097C43.9999 30.9989 43.4972 31.0484 43.0123 30.952C42.5273 30.8555 42.0819 30.6174 41.7322 30.2678C41.3826 29.9181 41.1445 29.4727 41.048 28.9877C40.9516 28.5028 41.0011 28.0001 41.1903 27.5433C41.3795 27.0865 41.7 26.696 42.1111 26.4213C42.5222 26.1466 43.0055 26 43.5 26C44.163 26 44.7989 26.2634 45.2678 26.7322C45.7366 27.2011 46 27.837 46 28.5ZM38.5 23C39.0454 23.0003 39.5757 23.1789 40.0101 23.5086C40.4446 23.8383 40.7593 24.301 40.9062 24.8263C40.3941 25.1866 39.9628 25.6499 39.6399 26.1865C39.3171 26.7231 39.1097 27.3212 39.0312 27.9425C38.8567 27.9802 38.6786 27.9995 38.5 28C37.837 28 37.2011 27.7366 36.7322 27.2678C36.2634 26.7989 36 26.163 36 25.5C36 24.837 36.2634 24.2011 36.7322 23.7322C37.2011 23.2634 37.837 23 38.5 23Z" fill="white"/>
</svg>
