<svg width="68" height="68" viewBox="0 0 68 68" fill="none" xmlns="http://www.w3.org/2000/svg">
<circle cx="34" cy="34" r="34" fill="#35373F"/>
<path d="M41.5 29C40.9171 28.9994 40.3433 29.1451 39.8312 29.4237C39.6781 28.9497 39.4256 28.5138 39.0905 28.1452C38.7554 27.7766 38.3455 27.4837 37.8882 27.2863C37.4309 27.0888 36.9366 26.9912 36.4386 27C35.9405 27.0089 35.45 27.1239 35 27.3375V23.5C35 22.5717 34.6312 21.6815 33.9749 21.0251C33.3185 20.3687 32.4283 20 31.5 20C30.5717 20 29.6815 20.3687 29.0251 21.0251C28.3687 21.6815 28 22.5717 28 23.5V33.5L27.5225 32.7338C27.2916 32.3361 26.9847 31.9878 26.6192 31.7088C26.2537 31.4297 25.8368 31.2254 25.3924 31.1075C24.4948 30.8693 23.5394 30.9975 22.7362 31.4637C21.9331 31.93 21.3482 32.6963 21.11 33.5938C20.8718 34.4914 21 35.4469 21.4662 36.25L22.05 37.2787C26.3512 44.8612 28.1312 48 34 48C36.9164 47.9967 39.7123 46.8367 41.7745 44.7745C43.8367 42.7123 44.9967 39.9164 45 37V32.5C45 31.5717 44.6313 30.6815 43.9749 30.0251C43.3185 29.3687 42.4283 29 41.5 29ZM43 37C42.9974 39.3861 42.0483 41.6738 40.361 43.361C38.6738 45.0483 36.3861 45.9974 34 46C29.2962 46 28.02 43.75 23.79 36.29L23.2037 35.2563V35.25C23.0047 34.9058 22.9504 34.4967 23.0528 34.1126C23.1553 33.7284 23.406 33.4006 23.75 33.2013C23.9778 33.0693 24.2367 33.0002 24.5 33.0013C24.7637 33.0009 25.0228 33.07 25.2513 33.2017C25.4797 33.3333 25.6694 33.5229 25.8012 33.7513C25.8063 33.7613 25.8122 33.7709 25.8187 33.78L28.1525 37.53C28.2677 37.7139 28.4395 37.8553 28.6422 37.933C28.8448 38.0106 29.0672 38.0203 29.2758 37.9604C29.4843 37.9006 29.6678 37.7745 29.7984 37.6013C29.9291 37.428 29.9998 37.217 30 37V23.5C30 23.1022 30.158 22.7206 30.4393 22.4393C30.7206 22.158 31.1022 22 31.5 22C31.8978 22 32.2794 22.158 32.5607 22.4393C32.842 22.7206 33 23.1022 33 23.5V32C33 32.2652 33.1054 32.5196 33.2929 32.7071C33.4804 32.8946 33.7348 33 34 33C34.2652 33 34.5196 32.8946 34.7071 32.7071C34.8946 32.5196 35 32.2652 35 32V30.5C35 30.1022 35.158 29.7206 35.4393 29.4393C35.7206 29.158 36.1022 29 36.5 29C36.8978 29 37.2794 29.158 37.5607 29.4393C37.842 29.7206 38 30.1022 38 30.5V33C38 33.2652 38.1054 33.5196 38.2929 33.7071C38.4804 33.8946 38.7348 34 39 34C39.2652 34 39.5196 33.8946 39.7071 33.7071C39.8946 33.5196 40 33.2652 40 33V32.5C40 32.1022 40.158 31.7206 40.4393 31.4393C40.7206 31.158 41.1022 31 41.5 31C41.8978 31 42.2794 31.158 42.5607 31.4393C42.842 31.7206 43 32.1022 43 32.5V37Z" fill="white"/>
</svg>
