<svg width="65" height="29" viewBox="0 0 65 29" fill="none" xmlns="http://www.w3.org/2000/svg">
<g clip-path="url(#clip0_35221_40711)">
<path d="M0.0234375 28.6499L0.0266366 22.3594L2.34004 22.3603C2.78836 22.3603 3.15946 22.434 3.45332 22.5805C3.74718 22.727 3.96746 22.925 4.11324 23.1734C4.25903 23.4223 4.33215 23.7022 4.3317 24.0134C4.3317 24.2756 4.28325 24.4962 4.18637 24.6751C4.08948 24.8544 3.9606 24.9977 3.79928 25.1051C3.63795 25.2125 3.46017 25.2907 3.26686 25.3399V25.4013C3.47663 25.4118 3.68182 25.4787 3.882 25.6029C4.08262 25.7271 4.24852 25.9028 4.38014 26.1298C4.51176 26.3574 4.57757 26.6336 4.57711 26.9594C4.57711 27.2811 4.50125 27.5691 4.34998 27.824C4.19871 28.0788 3.96563 28.2804 3.6512 28.4287C3.33632 28.5771 2.93415 28.6512 2.44515 28.6508L0.0234375 28.6499ZM0.977223 27.8362L2.35283 27.8367C2.80939 27.8367 3.13661 27.7489 3.33404 27.5732C3.53147 27.3971 3.63018 27.1773 3.63064 26.913C3.63064 26.7146 3.58037 26.5321 3.47983 26.366C3.37928 26.1999 3.23578 26.068 3.04978 25.9697C2.86377 25.8714 2.64303 25.8218 2.38802 25.8218L0.978137 25.8213L0.977223 27.8362ZM0.978594 25.0814L2.25549 25.0819C2.46937 25.0819 2.66223 25.0409 2.83407 24.959C3.0059 24.8776 3.14255 24.762 3.24446 24.6136C3.34638 24.4653 3.39711 24.2897 3.39756 24.0872C3.39756 23.8273 3.30616 23.6089 3.12336 23.4328C2.94055 23.2567 2.65994 23.1684 2.28154 23.1684L0.979965 23.168L0.978594 25.0814Z" fill="#FBE54D"/>
<path d="M8.60434 22.3603L7.5034 22.3594L5.22656 28.6485L6.23839 28.6494L6.81788 26.9844L9.28666 26.9858L9.86296 28.6508L10.8748 28.6517L8.60434 22.3603ZM7.09575 26.1858L8.02988 23.502H8.07924L9.0088 26.1872L7.09575 26.1858Z" fill="#FBE54D"/>
<path d="M16.8838 22.366L16.8806 28.6565L16.0045 28.656L12.7954 24.041H12.7369L12.7346 28.6542L11.7812 28.6538L11.7844 22.3633L12.6665 22.3637L15.8784 26.9847H15.9369L15.9392 22.3651L16.8838 22.366Z" fill="#FBE54D"/>
<path d="M18.2734 28.6577L18.2766 22.3672L19.23 22.3676L19.2286 25.3714H19.3058L21.957 22.3686L23.1571 22.369L20.6079 25.1998L23.1635 28.6595L22.0159 28.659L19.9754 25.8478L19.2286 26.7014L19.2277 28.6581L18.2734 28.6577Z" fill="#FBE54D"/>
<path d="M25.0034 22.3676L25.0002 28.6581L24.0469 28.6577L24.0501 22.3672L25.0034 22.3676Z" fill="#FBE54D"/>
<path d="M26.3856 22.3711L27.5423 22.3715L29.5513 27.2623H29.6253L31.6389 22.3734L32.7956 22.3738L32.7924 28.6643L31.8857 28.6638L31.888 24.1121H31.8295L29.964 28.6538L29.2113 28.6534L27.3503 24.1066H27.2918L27.2895 28.6616L26.3828 28.6611L26.3856 22.3711Z" fill="#FBE54D"/>
<path d="M39.6751 25.5217C39.6746 26.1933 39.5513 26.7703 39.304 27.2522C39.0572 27.7341 38.719 28.1049 38.2904 28.3634C37.8612 28.6223 37.3745 28.7516 36.8297 28.7511C36.2827 28.7506 35.7946 28.621 35.3664 28.362C34.9377 28.1027 34.6 27.7313 34.3536 27.2481C34.1073 26.7648 33.9839 26.1883 33.9844 25.5185C33.9848 24.8468 34.1082 24.2699 34.3555 23.788C34.6023 23.3061 34.9404 22.9357 35.3691 22.6768C35.7978 22.4178 36.2859 22.2886 36.8329 22.2891C37.3777 22.2891 37.8649 22.4192 38.2935 22.6781C38.7222 22.9375 39.06 23.3079 39.3063 23.7907C39.5526 24.273 39.6756 24.8505 39.6751 25.5217ZM38.7314 25.5212C38.7318 25.0093 38.6491 24.5779 38.4837 24.2266C38.3182 23.8753 38.092 23.6091 37.8055 23.4276C37.5189 23.2465 37.1944 23.1555 36.8325 23.1555C36.4687 23.1555 36.1433 23.246 35.8577 23.4267C35.5716 23.6078 35.3458 23.874 35.1804 24.2248C35.0149 24.5756 34.9318 25.0075 34.9313 25.5194C34.9313 26.0313 35.0136 26.4627 35.179 26.814C35.3444 27.1653 35.5698 27.4315 35.8558 27.613C36.1415 27.7941 36.4664 27.8852 36.8307 27.8852C37.1926 27.8852 37.5171 27.7946 37.8041 27.614C38.0911 27.4328 38.3173 27.1666 38.4832 26.8158C38.6482 26.465 38.7309 26.0336 38.7314 25.5212Z" fill="white"/>
<path d="M45.9619 22.3777L45.9587 28.6682L45.0826 28.6678L41.8735 24.0527H41.815L41.8127 28.6659L40.8594 28.6655L40.8626 22.375L41.7446 22.3755L44.9565 26.9964H45.015L45.0173 22.3768L45.9619 22.3777Z" fill="white"/>
<path d="M47.3438 28.6694L47.3469 22.3789L48.3003 22.3794L48.2975 27.8526L51.1603 27.854L51.1598 28.6712L47.3438 28.6694Z" fill="white"/>
<path d="M53.1987 22.3833L53.1955 28.6737L52.2422 28.6733L52.2454 22.3828L53.1987 22.3833Z" fill="white"/>
<path d="M59.6885 22.3855L59.6853 28.676L58.8092 28.6756L55.6 24.0605H55.5416L55.5393 28.6737L54.5859 28.6733L54.5891 22.3828L55.4712 22.3833L58.6831 27.0042H58.7416L58.7438 22.3846L59.6885 22.3855Z" fill="white"/>
<path d="M61.0781 28.6772L61.0813 22.3867L65.0423 22.3885L65.0418 23.2053L62.0342 23.204L62.0333 25.1206L64.8343 25.122L64.8339 25.936L62.0328 25.9347L62.0319 27.8604L65.0765 27.8618L65.0761 28.6786L61.0781 28.6772Z" fill="white"/>
<path d="M65.0859 18.1074L49.212 0L27.1941 9.92535V11.7755L26.0593 13.2717V7.75662L22.1701 7.773L22.039 11.0124L11.6109 6.33917L0 18.086L0.372465 18.0892L11.4052 9.18636L19.2256 18.1006H33.255L49.2166 3.00691L62.2218 16.6863L40.1582 18.1038L65.0859 18.1074Z" fill="#FBE54D"/>
</g>
<defs>
<clipPath id="clip0_35221_40711">
<rect width="65" height="29" fill="white"/>
</clipPath>
</defs>
</svg>
