<svg width="68" height="68" viewBox="0 0 68 68" fill="none" xmlns="http://www.w3.org/2000/svg">
<circle cx="34" cy="34" r="34" fill="#35373F"/>
<path d="M44.9738 32.7712C44.9359 32.611 44.859 32.4625 44.75 32.3391C44.641 32.2157 44.5031 32.1211 44.3488 32.0637L37.1475 29.3625L38.98 20.1962C39.0215 19.9833 38.9926 19.7626 38.8977 19.5675C38.8027 19.3724 38.6469 19.2134 38.4537 19.1146C38.2605 19.0159 38.0405 18.9826 37.8267 19.0199C37.613 19.0571 37.4171 19.1629 37.2688 19.3212L23.2688 34.3212C23.1551 34.4411 23.0728 34.5872 23.0293 34.7465C22.9859 34.9059 22.9826 35.0735 23.0197 35.2345C23.0569 35.3954 23.1333 35.5447 23.2422 35.6689C23.3511 35.7931 23.4891 35.8884 23.6438 35.9462L30.8475 38.6475L29.02 47.8037C28.9785 48.0167 29.0074 48.2374 29.1024 48.4325C29.1973 48.6276 29.3531 48.7866 29.5463 48.8853C29.7395 48.9841 29.9596 49.0174 30.1733 48.9801C30.3871 48.9429 30.5829 48.8371 30.7313 48.6787L44.7313 33.6787C44.8429 33.5589 44.9234 33.4135 44.9657 33.2552C45.008 33.097 45.0108 32.9308 44.9738 32.7712ZM31.6713 44.75L32.98 38.2025C33.0269 37.9703 32.9897 37.729 32.8753 37.5216C32.7608 37.3142 32.5764 37.1542 32.355 37.07L25.75 34.5887L36.3275 23.2562L35.02 29.8037C34.9732 30.036 35.0103 30.2773 35.1247 30.4847C35.2392 30.6921 35.4236 30.8521 35.645 30.9362L42.245 33.4112L31.6713 44.75Z" fill="white"/>
</svg>
