<svg width="24" height="24" viewBox="0 0 24 24" fill="none" xmlns="http://www.w3.org/2000/svg">
<path d="M11.4694 17.0306L3.96938 9.53063C3.8997 9.46094 3.84443 9.37822 3.80672 9.28717C3.769 9.19613 3.74959 9.09855 3.74959 9C3.74959 8.90145 3.769 8.80387 3.80672 8.71283C3.84443 8.62178 3.8997 8.53906 3.96938 8.46938C4.03907 8.39969 4.12179 8.34442 4.21284 8.30671C4.30388 8.26899 4.40146 8.24958 4.50001 8.24958C4.59856 8.24958 4.69614 8.26899 4.78718 8.30671C4.87823 8.34442 4.96095 8.39969 5.03063 8.46938L12 15.4397L18.9694 8.46937C19.1101 8.32864 19.301 8.24958 19.5 8.24958C19.699 8.24958 19.8899 8.32864 20.0306 8.46937C20.1714 8.61011 20.2504 8.80098 20.2504 9C20.2504 9.19902 20.1714 9.3899 20.0306 9.53063L12.5306 17.0306C12.461 17.1004 12.3783 17.1557 12.2872 17.1934C12.1962 17.2312 12.0986 17.2506 12 17.2506C11.9014 17.2506 11.8039 17.2312 11.7128 17.1934C11.6218 17.1557 11.539 17.1004 11.4694 17.0306Z" fill="white"/>
</svg>
