<svg width="32" height="33" viewBox="0 0 32 33" fill="none" xmlns="http://www.w3.org/2000/svg">
    <g clip-path="url(#clip0_8678_92153)">
        <path d="M16 32.5C24.8366 32.5 32 25.3366 32 16.5C32 7.66344 24.8366 0.5 16 0.5C7.16344 0.5 0 7.66344 0 16.5C0 25.3366 7.16344 32.5 16 32.5Z" fill="#F0F0F0"/>
        <path d="M31.0048 22.0649C31.648 20.3316 32 18.4569 32 16.4998C32 14.5426 31.648 12.6679 31.0048 10.9346H0.995188C0.352063 12.6679 0 14.5426 0 16.4998C0 18.4569 0.352063 20.3316 0.995188 22.0649L16 23.4563L31.0048 22.0649Z" fill="#0052B4"/>
        <path d="M16.0009 32.5002C22.8803 32.5002 28.745 28.1582 31.0057 22.0654H0.996094C3.25678 28.1582 9.12147 32.5002 16.0009 32.5002Z" fill="#D80027"/>
    </g>
    <defs>
        <clipPath id="clip0_8678_92153">
            <rect width="32" height="32" fill="white" transform="translate(0 0.5)"/>
        </clipPath>
    </defs>
</svg>
