<svg width="75" height="76" viewBox="0 0 75 76" fill="none" xmlns="http://www.w3.org/2000/svg">
<g clip-path="url(#clip0_3293_290919)">
<path d="M12.0273 36.7204H64.8934M12.2783 34.4727H64.5795M12.0273 38.969H64.7681M12.2783 41.2148H64.5174M13.2829 45.7127H63.6381M14.0971 47.9612H62.7607M15.1637 50.209H61.6944M16.4176 52.4579H60.4414M18.2984 54.7051H58.6225M20.3674 56.9523H56.5528M23.0644 59.2018H53.856M26.8275 61.4501H49.9055M33.7257 63.6987H43.1954M12.7173 43.4643H64.2031" stroke="#E0E0E0" stroke-width="2" stroke-miterlimit="2.613"/>
<mask id="mask0_3293_290919" style="mask-type:luminance" maskUnits="userSpaceOnUse" x="0" y="0" width="75" height="76">
<path d="M74.9902 0.5H0.990234V75.4994H74.9902V0.5Z" fill="white"/>
</mask>
<g mask="url(#mask0_3293_290919)">
<path d="M8.13885 41.34V38.9042H7.95181C7.8879 39.5936 7.82575 39.9046 6.57196 39.9046H3.06V39.8433L8.13885 35.8464V34.0352H7.95181C7.95181 34.41 7.8879 34.5967 7.38678 35.0332H2.68357C1.55468 35.0332 1.36647 34.8454 1.30431 34.0352H1.11688V36.4709H1.30431C1.36705 35.7214 1.61781 35.4705 2.68357 35.4705H6.82292V35.533L0.990234 40.1539V40.3431H6.57196C7.82575 40.3431 7.88771 40.716 7.95181 41.34H8.13885Z" fill="#E0E0E0"/>
</g>
<mask id="mask1_3293_290919" style="mask-type:luminance" maskUnits="userSpaceOnUse" x="0" y="0" width="75" height="76">
<path d="M74.9902 0.5H0.990234V75.4994H74.9902V0.5Z" fill="white"/>
</mask>
<g mask="url(#mask1_3293_290919)">
<path d="M9.01704 46.0249C9.14252 46.5245 9.14252 46.7736 8.89156 46.8374C8.51533 46.8993 8.20047 46.6494 5.56821 44.8388L7.7011 44.3392C8.45318 44.1519 8.57846 44.2767 8.82941 45.0881L9.01762 45.0262L8.32673 42.0908L8.13851 42.1533C8.26516 42.8421 8.20125 43.0908 7.44918 43.2769L2.93419 44.2767C2.05624 44.5266 1.93077 44.4016 1.67982 43.5891L1.49219 43.651L2.18153 46.5875L2.36974 46.525C2.18153 45.7119 2.36974 45.5258 3.06025 45.4026L5.00454 44.9632L5.25549 45.1517L4.43951 46.5252C4.18914 46.963 3.3112 48.149 2.99712 48.2115C2.80891 48.274 2.74617 48.149 2.62069 47.5869L2.36974 47.6488L3.1224 50.7728L3.31061 50.7098C3.18514 50.1471 3.49863 49.7094 4.06152 48.8361L6.13226 45.837L8.51553 47.3366C9.39405 47.8982 9.45698 48.1492 9.64442 48.7107H9.89537L9.20428 45.9616L9.01704 46.0249Z" fill="#E0E0E0"/>
</g>
<mask id="mask2_3293_290919" style="mask-type:luminance" maskUnits="userSpaceOnUse" x="0" y="0" width="75" height="76">
<path d="M74.9902 0.5H0.990234V75.4994H74.9902V0.5Z" fill="white"/>
</mask>
<g mask="url(#mask2_3293_290919)">
<path d="M6.57279 57.5781C7.63894 59.2013 9.58323 59.8265 11.5267 58.6387C13.5965 57.327 13.7218 55.2048 12.7805 53.7683C11.9024 52.27 9.89673 51.4586 7.82696 52.769C5.9456 53.9563 5.56917 55.9543 6.57279 57.5781ZM6.88511 57.3907C6.25793 56.3915 6.50868 55.0162 8.5163 53.7683C10.5227 52.5205 11.9018 53.0201 12.467 53.9563C13.0313 54.83 12.9687 56.3296 10.8992 57.5787C8.89331 58.8272 7.51347 58.3893 6.88511 57.3907Z" fill="#E0E0E0"/>
</g>
<mask id="mask3_3293_290919" style="mask-type:luminance" maskUnits="userSpaceOnUse" x="0" y="0" width="75" height="76">
<path d="M74.9902 0.5H0.990234V75.4994H74.9902V0.5Z" fill="white"/>
</mask>
<g mask="url(#mask3_3293_290919)">
<path d="M14.9131 63.8228L16.7319 62.1365L16.5437 61.9491C15.9159 62.3851 15.6036 62.3851 15.0384 61.7611L13.9722 60.6375L15.7283 59.0762C15.9159 58.8263 16.0418 58.8876 16.2294 59.0762L17.1707 60.1379C17.9855 60.9493 18.0469 61.2615 17.4842 62.0104L17.6735 62.2613L18.7393 61.1984L14.9137 57.0771L14.7254 57.2031C15.1644 57.7009 15.2899 57.952 14.6621 58.5141L11.3395 61.6369C10.6485 62.2615 10.4614 62.2615 9.89696 61.6988L9.77148 61.8238L11.7777 64.0108L11.9671 63.8849C11.4648 63.3222 11.4027 63.074 11.9671 62.512L13.6605 60.9501L14.726 62.0748C15.2277 62.6994 15.3532 62.9491 14.7888 63.635L14.9131 63.8228Z" fill="#E0E0E0"/>
</g>
<mask id="mask4_3293_290919" style="mask-type:luminance" maskUnits="userSpaceOnUse" x="0" y="0" width="75" height="76">
<path d="M74.9902 0.5H0.990234V75.4994H74.9902V0.5Z" fill="white"/>
</mask>
<g mask="url(#mask4_3293_290919)">
<path d="M17.3574 68.8182L20.0536 70.4414L20.1797 70.3165C19.4897 69.8799 19.3643 69.63 19.8026 68.9443L22.3106 64.947C22.7504 64.2594 23.0011 64.3231 23.691 64.696L23.8165 64.5093L21.1197 62.8848L20.9943 63.0109C21.7467 63.5105 21.8106 63.6991 21.3705 64.383L18.8616 68.3805C18.4863 69.0062 18.2356 69.0693 17.4835 68.6302L17.3574 68.8182Z" fill="#E0E0E0"/>
</g>
<mask id="mask5_3293_290919" style="mask-type:luminance" maskUnits="userSpaceOnUse" x="0" y="0" width="75" height="76">
<path d="M74.9902 0.5H0.990234V75.4994H74.9902V0.5Z" fill="white"/>
</mask>
<g mask="url(#mask5_3293_290919)">
<path d="M28.4586 66.5074L28.2077 66.4451C28.1446 66.5074 28.0191 66.759 27.7062 66.6331C27.518 66.5079 27.1421 65.9466 26.5151 65.6961C25.6364 65.3226 24.5075 65.4464 24.0052 66.5712C23.6294 67.5074 24.0685 68.1944 24.6957 69.1317C25.7621 70.5683 25.7621 71.0042 25.5111 71.5044C25.3235 72.0669 24.6342 72.4418 23.8811 72.0669C22.5646 71.5044 22.6273 70.006 22.6273 69.5081L22.4379 69.3822L21.8125 71.5683L22.0001 71.6926C22.1256 71.5046 22.2509 71.3799 22.5018 71.5046C22.7526 71.6296 23.0667 72.1286 23.8182 72.5044C25.1986 73.129 26.2644 72.442 26.641 71.6294C27.5185 69.6313 24.3832 68.0064 25.0098 66.5712C25.3247 66.0097 25.9511 65.8836 26.3896 66.1335C27.4558 66.5712 27.644 67.6948 27.4558 68.5704L27.7068 68.6948L28.4586 66.5074Z" fill="#E0E0E0"/>
</g>
<mask id="mask6_3293_290919" style="mask-type:luminance" maskUnits="userSpaceOnUse" x="0" y="0" width="75" height="76">
<path d="M74.9902 0.5H0.990234V75.4994H74.9902V0.5Z" fill="white"/>
</mask>
<g mask="url(#mask6_3293_290919)">
<path d="M35.0428 75.1889C34.6025 75.064 34.4162 74.8756 34.2274 74.5007L32.5968 71.5024C33.1617 71.5024 34.5411 71.5024 34.7919 70.1295C35.1048 68.5063 33.4754 67.9437 32.5341 67.7564L29.6491 67.1943L29.5864 67.4437C30.3383 67.6303 30.4645 67.7564 30.2763 68.5059L29.4609 73.0028C29.2721 73.8135 29.21 74.0013 28.332 73.8765V74.0634L31.2158 74.626V74.4392C30.4016 74.2512 30.3389 74.0013 30.4649 73.3139L30.8406 71.3158L31.468 71.3775L33.2854 75.0636L34.9799 75.3748L35.0428 75.1889ZM31.4685 68.3183C31.4685 68.0686 31.594 68.005 32.1577 68.0686C32.5974 68.1936 33.9771 68.5063 33.6636 69.8798C33.4117 71.3162 31.8448 71.0671 30.9668 70.8785L31.4685 68.3183Z" fill="#E0E0E0"/>
</g>
<mask id="mask7_3293_290919" style="mask-type:luminance" maskUnits="userSpaceOnUse" x="0" y="0" width="75" height="76">
<path d="M74.9902 0.5H0.990234V75.4994H74.9902V0.5Z" fill="white"/>
</mask>
<g mask="url(#mask7_3293_290919)">
<path d="M43.3839 75.1263C42.9447 75.1263 42.7573 75.0011 42.4432 74.2512L39.6829 68.3174H39.4947L37.3624 73.5025C37.1742 74.0013 36.8607 74.7516 36.6111 75.0638C36.4217 75.2518 36.2347 75.2518 36.0449 75.2518V75.4998L38.1778 75.4386V75.2512C37.9271 75.2512 37.4265 75.2512 37.4265 74.8147C37.4265 74.6874 37.4887 74.5636 37.4887 74.4386L37.9904 73.1899L40.7499 73.1276L41.1889 74.1263C41.2522 74.2512 41.4398 74.6251 41.4398 74.8151C41.4398 75.1885 41.0634 75.1885 40.6871 75.1885V75.3766H43.3841V75.1263H43.3839ZM38.1786 72.753L39.3075 69.8176L40.6246 72.6899L38.1786 72.753Z" fill="#E0E0E0"/>
</g>
<mask id="mask8_3293_290919" style="mask-type:luminance" maskUnits="userSpaceOnUse" x="0" y="0" width="75" height="76">
<path d="M74.9902 0.5H0.990234V75.4994H74.9902V0.5Z" fill="white"/>
</mask>
<g mask="url(#mask8_3293_290919)">
<path d="M50.2801 71.9409L50.0294 72.0033C49.7798 73.1269 49.3401 73.5635 48.0851 73.8763C46.517 74.2511 46.517 74.2511 46.4557 73.8132L45.8285 71.3157L47.3963 70.9409C48.2745 70.6929 48.4633 70.8165 48.7762 71.6273L49.0269 71.5654L48.3998 69.1912L48.1482 69.254C48.211 70.0035 48.211 70.2527 47.2709 70.5028L45.7028 70.8788L45.1389 68.6308C45.0135 68.2562 45.1389 68.1931 45.3885 68.1931L46.769 67.8182C47.8973 67.5685 48.2102 67.6296 48.5878 68.5059L48.8385 68.4428L48.4623 67.0059L43.0059 68.3198L43.0692 68.5695C43.6964 68.4428 43.9465 68.4428 44.1975 69.2554L45.3264 73.814C45.5152 74.5645 45.2642 74.7513 44.6365 74.9387L44.6992 75.1256L50.2798 73.7527V71.9409H50.2801Z" fill="#E0E0E0"/>
</g>
<mask id="mask9_3293_290919" style="mask-type:luminance" maskUnits="userSpaceOnUse" x="0" y="0" width="75" height="76">
<path d="M74.9902 0.5H0.990234V75.4994H74.9902V0.5Z" fill="white"/>
</mask>
<g mask="url(#mask9_3293_290919)">
<path d="M52.2239 65.3838L49.5898 66.7579L49.6524 66.9453C50.2804 66.6966 50.5311 66.6318 50.9073 67.383L53.0396 71.5675C53.4153 72.255 53.291 72.4412 52.6632 72.8167L52.7887 73.0041L57.8687 70.3809L57.4911 68.5072L57.2415 68.6323C57.3043 70.1942 56.7398 70.5047 55.2972 71.2548C54.5448 71.6308 54.3566 71.6933 54.1683 71.3178L51.9106 66.8836C51.5341 66.1343 51.7218 65.948 52.3501 65.572L52.2239 65.3838Z" fill="#E0E0E0"/>
</g>
<mask id="mask10_3293_290919" style="mask-type:luminance" maskUnits="userSpaceOnUse" x="0" y="0" width="75" height="76">
<path d="M74.9902 0.5H0.990234V75.4994H74.9902V0.5Z" fill="white"/>
</mask>
<g mask="url(#mask10_3293_290919)">
<path d="M12.9062 12.9881C13.2203 12.6759 13.6589 12.5509 14.0978 12.9881C14.5362 13.3635 15.1012 13.8631 15.2261 14.4857C15.6032 15.9857 14.5356 17.1113 14.5356 17.1113L15.3516 18.7327C15.3516 18.7327 15.7906 17.5484 15.9161 16.7349C16.1043 15.8612 16.1043 15.2378 15.8539 14.4252C15.6032 13.5515 15.3516 12.8625 14.7244 12.3004C14.2227 11.8645 13.8477 11.4268 13.2826 11.4268C12.9062 11.4898 12.3408 11.9264 11.9655 12.3643L10.4602 13.9262L9.33189 12.8627C9.14309 12.6755 9.08094 12.6142 8.89233 12.4881C8.70295 12.3643 8.39062 12.3006 8.39062 12.3006L8.64138 13.6759C8.64138 13.6759 8.83018 13.6759 8.89233 13.7378C9.58284 14.0513 10.5218 14.9863 10.6472 15.0488C10.7727 15.2374 11.0246 15.0488 11.0874 14.9238L12.9062 12.9881Z" fill="#E0E0E0"/>
</g>
<mask id="mask11_3293_290919" style="mask-type:luminance" maskUnits="userSpaceOnUse" x="0" y="0" width="75" height="76">
<path d="M74.9902 0.5H0.990234V75.4994H74.9902V0.5Z" fill="white"/>
</mask>
<g mask="url(#mask11_3293_290919)">
<path d="M15.4766 9.74119L17.6089 9.86614C17.6089 9.86614 17.4834 11.2396 17.6722 12.052C17.9226 12.8634 18.7999 14.0505 18.7999 14.0505L18.8627 14.8006L20.368 13.7383L20.117 12.4273L19.4271 12.9263C19.4271 12.9263 18.5492 12.1157 18.2982 11.5528C18.0467 10.9901 18.11 9.93017 18.11 9.93017C18.11 9.93017 19.991 10.305 21.1193 10.6166C22.374 10.9294 24.3183 11.5534 24.3183 11.5534L24.1295 10.2418L21.5588 9.55434C21.5588 9.55434 21.6847 7.74429 21.3081 6.99362C20.7436 5.74507 19.9288 5.62012 19.9288 5.62012L19.7406 7.18201C19.7406 7.18201 20.4915 7.61857 20.7434 8.0557C21.0569 8.494 21.0569 9.4292 21.0569 9.4292C21.0569 9.4292 19.1126 8.99265 17.921 8.80464C17.0431 8.68027 15.5379 8.55531 15.5379 8.55531L15.4766 9.74119Z" fill="#E0E0E0"/>
</g>
<mask id="mask12_3293_290919" style="mask-type:luminance" maskUnits="userSpaceOnUse" x="0" y="0" width="75" height="76">
<path d="M74.9902 0.5H0.990234V75.4994H74.9902V0.5Z" fill="white"/>
</mask>
<g mask="url(#mask12_3293_290919)">
<path d="M26.4513 4.30822C27.0157 4.12021 27.3288 4.30822 27.5796 4.55812C27.8931 4.80802 27.956 5.12137 28.2068 5.68346L29.5239 9.42968L30.0879 8.0556L28.8347 4.55812C28.6465 3.99661 28.2697 3.56122 27.8933 3.31016C27.3924 3.06142 26.765 2.99778 26.1378 3.2471L24.7581 3.74555L24.4439 3.24652C24.4439 3.24652 24.0676 3.8705 23.9435 4.24516C23.8179 4.68288 23.6914 5.3705 23.6914 5.30764L26.4513 4.30822Z" fill="#E0E0E0"/>
</g>
<mask id="mask13_3293_290919" style="mask-type:luminance" maskUnits="userSpaceOnUse" x="0" y="0" width="75" height="76">
<path d="M74.9902 0.5H0.990234V75.4994H74.9902V0.5Z" fill="white"/>
</mask>
<g mask="url(#mask13_3293_290919)">
<path d="M31.4687 1.24952L30.7148 2.4969C30.7148 2.4969 31.2805 3.56093 31.5941 4.24622C32.158 5.36981 32.7858 7.05782 32.9113 7.30637C33.162 7.86904 33.2248 8.42938 34.0401 8.30462C35.2939 8.18025 36.0466 7.43074 36.7985 6.4321C37.7403 5.18355 38.0538 4.05937 37.8652 2.4969C37.8033 1.68743 37.3004 0.5 37.3004 0.5L36.3609 1.81219C36.3609 1.81219 37.3004 3.74719 37.0494 4.74583C36.611 6.24408 34.6034 7.18161 33.8515 7.18161C33.7267 7.18161 33.6639 7.05782 33.6639 6.93171L33.3498 5.93423C33.3498 5.93423 34.3533 5.0586 34.6675 4.37098C34.981 3.68452 35.1053 3.18433 35.0434 2.43481C34.9806 1.81199 34.5417 0.874471 34.5417 0.874471L33.7263 1.93695C33.7263 1.93695 34.4168 3.43345 34.0403 4.18355C33.851 4.68258 33.1622 5.30831 33.1622 5.30831C33.1622 5.30831 32.2215 2.62146 32.0333 2.24855C31.7194 1.6236 31.4687 1.24952 31.4687 1.24952Z" fill="#E0E0E0"/>
</g>
<mask id="mask14_3293_290919" style="mask-type:luminance" maskUnits="userSpaceOnUse" x="0" y="0" width="75" height="76">
<path d="M74.9902 0.5H0.990234V75.4994H74.9902V0.5Z" fill="white"/>
</mask>
<g mask="url(#mask14_3293_290919)">
<path d="M41.439 0.75L40.4355 1.74689C40.4355 1.74689 41.188 2.24767 41.5644 2.56121C41.8779 2.87282 42.2549 3.18577 42.3169 3.49679C42.3796 4.05946 42.0661 4.43296 41.7521 4.87184C41.3762 5.3084 40.8745 6.05733 40.8745 6.05733C40.8745 6.05733 41.1255 6.05733 41.3135 5.86874C41.5644 5.68306 42.0034 5.24534 42.3169 4.93316C42.6927 4.55849 43.3197 3.93393 43.3197 3.37184C43.3825 2.74844 43.0062 2.37146 42.5679 1.87301C42.1914 1.43626 41.439 0.75 41.439 0.75Z" fill="#E0E0E0"/>
</g>
<mask id="mask15_3293_290919" style="mask-type:luminance" maskUnits="userSpaceOnUse" x="0" y="0" width="75" height="76">
<path d="M74.9902 0.5H0.990234V75.4994H74.9902V0.5Z" fill="white"/>
</mask>
<g mask="url(#mask15_3293_290919)">
<path d="M49.7779 4.8079L48.3988 5.80829L46.4551 11.4916L47.6473 10.6168L49.7779 4.8079ZM48.7756 3.43382L53.2281 5.43304C53.667 5.61989 53.9184 5.8696 53.6043 6.55722C53.4161 7.05741 53.2281 7.80518 52.6636 8.17984C51.3471 8.92877 49.9672 8.36843 49.9672 8.36843L48.7125 9.6164C48.7125 9.6164 49.9672 9.67946 50.7834 9.5545C51.6602 9.36591 52.2246 9.17868 52.9773 8.67907C53.7298 8.18004 54.2317 7.68043 54.6079 6.93149C54.8589 6.36882 55.1096 5.74426 54.9214 5.30693C54.7959 4.93227 54.1689 4.55819 53.6043 4.30829L50.6566 3.06091L50.7832 2.49707C50.7832 2.49707 50.0927 2.62202 49.7169 2.80984L48.7756 3.43382Z" fill="#E0E0E0"/>
</g>
<mask id="mask16_3293_290919" style="mask-type:luminance" maskUnits="userSpaceOnUse" x="0" y="0" width="75" height="76">
<path d="M74.9902 0.5H0.990234V75.4994H74.9902V0.5Z" fill="white"/>
</mask>
<g mask="url(#mask16_3293_290919)">
<path d="M59.5 9.92926C59.5633 9.80431 59.751 9.49096 59.751 9.24164C59.751 8.86756 59.6888 8.68014 59.5633 8.36795L59.0605 6.80664L57.6818 7.18091L58.3084 8.61786C58.434 8.86776 58.4978 8.99271 58.4978 9.24184C58.4978 9.49116 58.4346 9.67955 58.247 9.86582C58.247 9.86582 56.5537 12.3028 56.5537 12.3652L55.174 11.366L54.0449 11.9906L56.0525 13.3635L57.4318 12.7401L59.5 9.92926Z" fill="#E0E0E0"/>
</g>
<mask id="mask17_3293_290919" style="mask-type:luminance" maskUnits="userSpaceOnUse" x="0" y="0" width="75" height="76">
<path d="M74.9902 0.5H0.990234V75.4994H74.9902V0.5Z" fill="white"/>
</mask>
<g mask="url(#mask17_3293_290919)">
<path d="M64.2037 13.1142C64.3304 13.3022 64.518 13.4883 64.518 13.7382C64.518 13.9268 64.0783 14.3008 64.0157 14.361C63.8275 14.5502 61.5703 16.7354 61.5703 16.7354L59.2509 14.361L57.8711 14.5502L61.4454 18.2325L62.8886 18.1082L62.5121 17.7347C62.3855 17.6097 62.4488 17.297 62.5741 17.172L64.8321 14.9231C65.0203 14.7993 65.7094 14.1753 65.7094 13.737C65.8351 13.113 65.3338 12.6134 65.0195 12.3004L63.7651 10.9883L64.1416 10.4268C64.1416 10.4268 63.1397 10.4887 62.9505 10.5517C62.7617 10.5517 61.8216 10.6767 61.8216 10.6767L64.2037 13.1142Z" fill="#E0E0E0"/>
</g>
<mask id="mask18_3293_290919" style="mask-type:luminance" maskUnits="userSpaceOnUse" x="0" y="0" width="75" height="76">
<path d="M74.9902 0.5H0.990234V75.4994H74.9902V0.5Z" fill="white"/>
</mask>
<g mask="url(#mask18_3293_290919)">
<path d="M12.6545 21.0447C12.2789 21.7943 12.0913 21.9192 11.3388 21.5444L7.13554 19.4834C6.4462 19.1718 6.32014 18.9838 6.69716 18.1712L6.50777 18.0469L5.00381 21.2326C3.93766 23.3554 5.19125 24.1668 5.50552 24.3542C6.50777 24.8538 7.38649 24.2917 7.95152 23.5428V23.6053C7.82605 24.043 7.63725 24.9799 8.70282 25.479C10.2087 26.2279 11.1482 24.6028 11.5251 23.7927L12.8414 21.1691L12.6545 21.0447ZM8.70341 21.4821C8.26502 22.3558 8.07564 22.6681 7.82663 22.9192C7.4504 23.3558 6.88537 23.6679 6.13271 23.2933C4.8156 22.6681 5.31731 21.4821 5.63158 20.8569C5.88254 20.2948 6.00801 20.1699 6.32092 20.2948L8.70341 21.4821ZM11.2753 22.7298C11.4647 22.7929 11.5888 22.856 11.4647 23.0445C11.4013 23.1695 11.3392 23.2944 11.2753 23.4811C10.9612 24.1681 10.2724 25.0424 9.14238 24.4797C8.01465 23.9807 8.51636 22.7935 8.64184 22.5436L9.08022 21.6699L11.2753 22.7298Z" fill="#E0E0E0"/>
</g>
<mask id="mask19_3293_290919" style="mask-type:luminance" maskUnits="userSpaceOnUse" x="0" y="0" width="75" height="76">
<path d="M74.9902 0.5H0.990234V75.4994H74.9902V0.5Z" fill="white"/>
</mask>
<g mask="url(#mask19_3293_290919)">
<path d="M1.55544 32.6609C1.67975 32.2243 1.80503 32.0982 2.62043 31.9114L9.14303 30.7247V30.5381L4.56394 27.1667C4.18771 26.9168 3.49778 26.4172 3.31015 26.1037C3.12136 25.8538 3.18409 25.6648 3.18409 25.541L2.99588 25.4785L2.49417 27.5383L2.68297 27.6013C2.74571 27.3516 2.87118 26.8512 3.31015 26.9762C3.43563 26.9762 3.56111 27.0404 3.68639 27.1648L4.75254 27.9125L4.12536 30.598L3.0592 30.7878C2.93431 30.7878 2.55749 30.8497 2.3687 30.8497C1.99363 30.7247 2.0552 30.4131 2.11891 30.0371L1.92953 29.9746L1.30273 32.599L1.55544 32.6609ZM5.19171 28.1642L7.70084 29.9754L4.62785 30.5387L5.19171 28.1642Z" fill="#E0E0E0"/>
</g>
<path d="M12.7793 32.2233H64.2024M13.2183 29.9749H63.7007M14.0976 27.7266H62.8861M15.1624 25.4782H61.8197M16.5422 23.231H60.5032M18.1101 20.9819H58.7471M20.3053 18.7347H56.5515M23.0015 16.4858H53.9181M26.8268 14.238H50.1555M33.4109 11.9902H43.4461" stroke="#E0E0E0" stroke-width="2" stroke-miterlimit="2.613"/>
<mask id="mask20_3293_290919" style="mask-type:luminance" maskUnits="userSpaceOnUse" x="0" y="0" width="75" height="76">
<path d="M74.9902 0.5H0.990234V75.4994H74.9902V0.5Z" fill="white"/>
</mask>
<g mask="url(#mask20_3293_290919)">
<path d="M58.7474 18.8589C59.4987 19.1725 60.3141 19.4835 61.1934 19.3599C61.5069 19.2338 61.7579 18.9839 62.0702 19.047C62.8229 19.1719 63.5122 19.7959 64.3282 19.6085C64.7677 19.6085 64.893 20.0456 65.2061 20.2324C65.958 20.2324 67.0877 19.8584 67.7137 20.4204C68.4673 21.17 69.4082 20.4204 70.285 20.7326C70.7253 21.1704 71.227 21.6702 71.2878 22.2939C71.5392 23.1696 72.6067 23.4187 73.2321 24.0427C73.4837 24.4798 74.1734 24.6048 73.9226 25.2305C73.9226 26.416 74.0481 27.6643 73.7344 28.9129C73.8593 29.9115 73.5456 30.7872 73.8593 31.7233C73.9852 32.1605 74.0481 32.4723 74.2989 32.8481L74.4245 33.7218C74.6753 34.3457 75.2405 35.034 74.8635 35.7202C74.4245 35.9076 74.4877 36.4073 74.551 36.72C75.0527 37.2179 74.8635 37.9055 74.9896 38.4676C74.8019 38.7175 74.8635 39.2171 74.8635 39.5918L74.9268 39.6542C74.9268 40.0908 74.6133 40.5279 74.5516 40.9016C74.2363 41.6511 73.6097 42.3393 73.6097 43.1506C73.4842 43.9007 73.673 44.6488 72.9825 45.3364L72.7327 45.5863C72.7327 45.773 72.4181 45.9604 72.3565 46.1478C71.9162 46.773 71.4145 47.5848 71.5399 48.3968C71.4145 48.8952 70.6632 49.1463 70.5993 49.6471C70.0354 50.1449 69.5337 50.8326 69.5958 51.5821C69.7219 51.955 69.4084 52.0799 69.3451 52.3941C69.4084 53.3304 69.7852 54.1422 69.7852 55.0167C69.3451 55.5175 68.3428 55.8281 68.0921 56.5786C68.2803 57.9515 67.4022 59.0138 66.3987 59.8875C65.8337 60.3871 64.9564 60.2623 64.4545 60.825C64.1404 61.7612 63.2007 62.3221 62.4474 62.7612C61.4446 62.5731 60.4412 62.8849 59.7501 63.6348C59.1866 63.8834 58.4336 63.6973 58.0577 64.1345C57.5554 64.4461 57.0549 64.1345 56.553 64.383C54.7342 64.759 53.48 63.3838 51.7865 63.2606C50.2813 63.3213 48.7774 63.5722 47.3975 63.448C47.0213 63.2606 46.5812 62.9484 46.1428 63.1358C45.4534 62.5731 44.7643 61.8236 44.2626 61.0747C44.1369 60.9497 43.9477 61.0122 43.8861 60.7617C43.4472 60.5118 43.0707 60.1372 42.5063 60.1991C42.3181 60.0741 42.0046 60.1366 41.8791 59.9492C40.9384 59.7617 39.9983 59.5745 39.3084 58.7631C38.7434 58.3254 37.9286 58.389 37.2388 58.3254C36.7991 58.3254 36.2354 58.2635 35.8602 58.0126C35.42 57.1389 34.5419 56.6391 34.1035 55.7643C33.9786 55.7643 33.8533 55.6393 33.7894 55.5163C33.7273 55.3277 33.4769 55.1403 33.4136 55.0155C33.1007 54.6407 32.5988 54.7656 32.2225 54.454C31.909 54.3915 31.5954 54.2029 31.3446 53.953C30.6547 53.6403 29.6513 53.7031 29.4636 52.7664C29.1495 52.5803 28.6476 52.2668 28.7112 51.8289C28.8994 51.1436 28.3971 50.5196 28.0212 50.0188C27.4562 49.0202 26.4534 48.3326 25.8262 47.4587C25.8262 47.0215 26.0142 46.6467 26.0142 46.2095L25.8887 46.0846C25.9521 45.7099 25.8887 45.3359 25.8262 45.0229C25.9521 44.773 25.7634 44.4614 25.638 44.1486C25.5758 43.4616 25.3239 42.962 25.1363 42.2749C24.6965 41.4647 24.1323 40.6517 23.8197 39.9028C23.6304 39.1541 24.1948 38.5912 24.3203 37.9666C24.4458 37.6544 24.8232 37.5925 25.01 37.4045C25.5762 37.2159 26.2644 37.4664 26.7033 36.9674C27.2684 36.4047 28.021 36.1548 28.7729 36.2173C29.1493 36.0301 29.5889 35.5933 29.8399 35.2187C29.9026 34.6572 30.2163 34.0945 30.1534 33.5324C30.4043 32.9703 30.4043 32.2833 30.5917 31.7214C30.9066 31.1593 30.6551 30.4092 30.9066 29.8489C30.8433 29.5347 31.0321 29.3492 31.0946 29.0982C31.0321 28.4106 31.2203 27.7866 31.722 27.4131C31.6593 26.914 32.2237 26.7255 32.4745 26.3508C32.7874 25.6019 33.4779 25.0392 34.3547 25.0392C34.7938 24.5382 35.5475 24.5382 36.0474 24.04C36.6124 23.7278 37.0514 22.9783 37.8035 23.0413C38.1799 22.917 38.6816 22.8533 38.9951 22.4787H40.124C40.5636 22.2288 41.1274 22.4787 41.567 22.5411C42.0681 22.9172 42.5073 22.0421 43.1345 22.4162C43.5107 22.4162 43.7616 22.0421 44.2 22.2912C44.9527 22.2288 45.5793 21.7922 46.3323 21.9172C47.2116 21.8547 47.5246 20.5431 48.4652 20.5431C49.4687 20.6055 50.0964 19.7322 50.7232 19.1065C51.3504 19.2945 52.4164 19.4814 53.0435 19.1065C53.608 19.044 53.9844 18.4191 54.4859 18.2939C55.8611 18.6723 57.3049 18.8589 58.7474 18.8589Z" fill="#ACACAC"/>
</g>
<mask id="mask21_3293_290919" style="mask-type:luminance" maskUnits="userSpaceOnUse" x="0" y="0" width="75" height="76">
<path d="M74.9902 0.5H0.990234V75.4994H74.9902V0.5Z" fill="white"/>
</mask>
<g mask="url(#mask21_3293_290919)">
<path d="M57.8056 25.7919C58.0559 26.3546 57.6162 26.9155 57.3041 27.3532C57.179 28.4762 57.3041 29.5379 57.3041 30.7246C57.1158 30.9745 57.3041 31.3491 57.3041 31.6621C57.2413 32.599 57.3666 33.5352 57.2413 34.4725C57.3668 34.6598 57.6164 34.5975 57.743 34.7219C58.6204 34.5975 59.1221 33.5983 59.4979 32.8482C59.8126 31.9745 59.9997 31.1613 59.8126 30.2257C59.8748 29.7261 59.9383 29.1004 59.8748 28.5395C59.8748 28.1648 59.686 27.9149 59.686 27.4784C59.4977 27.2285 59.1854 27.0406 59.0599 26.6664C58.9972 26.354 58.7465 25.9157 59.1225 25.6033C59.4983 25.1668 60.1253 25.4784 60.6278 25.2286C61.1923 25.1037 61.7567 25.2286 62.2584 25.542L62.5713 26.0404C62.5094 26.6662 62.2584 27.1646 61.8189 27.6029C61.8822 28.7271 62.259 29.7876 62.0082 30.9743C62.1959 31.7238 61.9449 32.4733 61.8828 33.2221C61.6934 34.4099 60.8152 35.283 60.2516 36.2836C59.4995 37.3441 58.2451 37.0942 57.2417 37.595L57.179 37.7199C57.4293 38.6569 56.8649 39.6561 57.5542 40.4054C59.1227 40.4679 60.6278 39.6559 61.6936 38.5317C62.7597 37.7822 63.0726 36.5333 63.7004 35.5327C63.7004 34.9087 64.1402 34.4721 64.0768 33.9101C64.3903 33.5979 64.1396 33.0969 64.3903 32.7859C64.2021 32.0988 64.6413 31.3495 64.5164 30.725C64.7666 30.101 64.3288 29.4145 64.5164 28.7277C64.3288 28.2267 64.2021 27.5387 63.7004 27.2286C63.5118 27.0406 63.5749 26.7296 63.6379 26.5404C63.8886 26.1669 64.0768 25.8546 64.4533 25.6035C65.2057 25.3536 66.2088 25.2288 66.8363 25.666C67.1506 25.666 67.4014 25.9799 67.7145 26.0406C67.8399 26.4167 68.3417 26.6664 68.0909 27.1035C67.9652 27.5389 67.6511 27.7269 67.2755 27.9766C66.8991 28.8522 67.1498 29.9139 66.8991 30.7865C67.0873 31.9737 66.5226 32.9723 66.6475 34.0971C66.5226 34.7836 66.3974 35.5955 66.1464 36.2832C65.7069 37.1569 65.5816 38.1555 65.0803 39.03C64.3897 40.093 63.7631 41.2783 62.5101 41.8404C61.9445 42.1526 61.3179 42.2775 60.8156 42.5269C60.3151 42.5911 59.9389 42.841 59.3738 42.7768C58.9974 43.0897 58.4326 42.8404 57.9946 43.0261C57.7438 43.0891 57.4917 43.151 57.3674 43.4021C57.2419 43.9642 57.3048 44.7131 57.2419 45.2752C57.4301 45.4632 57.4915 45.7748 57.7436 45.7748C58.12 45.7748 58.3708 46.0247 58.6831 45.8373C60.0641 45.7124 61.0676 44.9617 62.3213 44.5876C62.8864 44.0886 63.5122 43.8387 64.0768 43.3391C65.0175 42.8406 65.7069 42.0905 66.3346 41.2143C66.5234 40.6528 67.0873 40.3423 67.2128 39.7803C67.5892 39.4661 67.15 39.2176 67.4016 38.9035C67.5259 38.7178 67.5259 38.4687 67.7151 38.3437C67.6517 38.2176 67.9039 38.1551 67.9039 38.0309C68.2174 37.2803 68.9702 36.5944 68.5938 35.6576C68.782 35.5952 68.6552 35.3447 68.7193 35.2199C69.0327 34.6578 69.2825 33.9083 69.1582 33.2207C69.0957 32.7217 69.0327 32.0977 69.2215 31.5981C69.2829 31.3482 69.4098 31.036 69.4717 30.7855C69.4717 30.7855 69.5345 30.7855 69.5345 30.848C69.409 30.6607 69.6599 30.5988 69.7227 30.4739C69.7227 29.7865 70.0991 29.1631 69.9115 28.5377C69.7227 28.1631 69.5966 27.7882 69.2829 27.4766C69.2829 27.288 69.2829 27.102 69.1588 26.9139C69.1588 26.4149 69.5972 25.9141 70.0995 25.7267C70.852 25.6018 71.6046 25.5401 72.1691 25.7898C72.7341 25.7267 73.046 26.4143 73.2968 26.7271C73.234 27.413 72.6696 27.9126 72.4192 28.5371C72.4192 29.3478 72.043 30.0985 72.2318 30.9093C71.9177 31.8472 71.8554 32.9704 71.792 33.972C71.4158 34.9064 71.5407 36.0317 71.101 36.9056C70.9133 38.0298 70.6626 39.1534 70.2242 40.2145C70.036 40.277 69.9732 40.4654 69.9732 40.6516C69.5962 41.2762 69.2821 41.9019 68.9071 42.524C68.2172 43.2122 67.6527 44.1489 66.7748 44.6487C66.586 45.0234 66.1476 45.2102 65.8335 45.5862C64.8926 46.7098 63.5755 46.9595 62.3858 47.5847C61.8202 48.0224 61.1936 48.3973 60.4415 48.3973C59.6877 48.3973 58.8729 48.6466 58.121 48.6466L57.9955 48.8334C57.9322 49.8951 57.9955 51.0829 58.3085 52.081C58.3085 52.768 58.9362 53.3301 59.2497 53.9547C59.6267 54.3288 59.9402 54.7034 60.2526 55.1402C61.3809 56.0158 62.5731 56.7645 64.0776 56.8895C64.5793 57.2023 65.332 57.0144 65.7076 57.5769C66.1474 57.8893 65.8964 58.3883 65.8333 58.8255C65.7706 59.0754 65.5824 59.2632 65.3941 59.2632C64.3292 59.3881 63.3871 59.1371 62.3215 59.1371C61.7577 59.2632 61.3187 59.0752 60.8162 59.0752C60.0649 58.7616 59.1868 58.7003 58.4332 58.6369C57.2421 58.8868 55.8623 58.8255 54.6706 58.9502C53.292 58.5119 51.7229 58.8872 50.4064 58.9502C48.9017 58.5119 47.3965 58.6369 45.7653 58.7616C45.2648 58.6997 44.6376 58.8247 44.3235 58.387C44.449 57.8885 44.449 57.264 45.0748 57.0141C45.9541 56.7642 46.8937 56.8255 47.6463 56.2663C47.8351 56.2038 48.0865 56.2038 48.2747 56.0154C50.0935 56.0154 51.472 54.8901 52.8518 53.8293C53.292 53.3297 53.6043 52.704 53.6678 52.0806C53.9813 51.7684 53.918 51.3323 54.1068 51.0189C54.1695 50.769 54.1695 50.5824 54.1068 50.2706C54.1695 49.8334 54.1068 49.3963 54.3577 48.9578C54.2944 48.6462 53.9813 48.4593 53.7305 48.2719C53.4796 48.147 53.1661 48.2719 52.8524 48.2094C51.9748 47.8346 50.846 48.022 50.0941 47.4599C49.6539 47.3975 49.3402 47.0851 48.964 46.9603C48.5887 46.8973 48.3996 46.4607 48.0245 46.2733C47.2707 46.086 46.769 45.4002 46.0802 45.0241C45.7653 44.4002 45.0754 43.9017 44.5749 43.4009C44.0104 43.2129 43.7595 42.7133 43.5715 42.2768C43.0698 41.4648 42.5051 40.7149 41.9414 39.9659C41.6274 38.4689 40.938 37.2168 40.7498 35.5954C40.3736 35.1571 40.6865 34.4087 40.3108 33.9733C40.1854 32.66 39.7458 31.4104 39.7458 30.1C39.7458 29.4743 39.4323 28.9753 39.3694 28.4137C39.4951 27.6023 38.178 27.4145 38.6175 26.4787C38.931 26.0399 39.0567 25.4165 39.6839 25.3534C40.6245 25.1668 41.8789 25.1043 42.631 25.7919C42.8806 26.0404 42.8806 26.4165 42.819 26.7894C42.3181 27.2283 42.38 27.8528 42.2547 28.4137C42.2547 30.6621 42.819 32.7226 43.3209 34.9085C44.1369 36.1582 44.0114 37.8433 45.1397 38.9681C45.5161 39.5926 46.0812 40.0304 46.3319 40.7156C46.5196 40.8416 46.5196 41.2147 46.7084 41.2147C46.8333 41.653 47.084 41.904 47.335 42.2777C48.3378 42.7768 49.0899 43.6518 50.1572 44.089C50.5328 44.588 51.2234 44.4017 51.599 44.8371C52.2887 45.1507 52.9161 45.775 53.6686 45.7127C53.9189 45.6503 54.484 45.8377 54.6093 45.4628C54.4212 44.5878 54.9857 43.6516 54.233 42.964C53.6056 42.2151 52.5397 42.7141 51.787 42.3412C50.7218 41.9035 49.9066 40.9667 48.9024 40.405C48.2758 39.7805 47.3979 39.2178 47.1469 38.4052C46.6452 37.6571 46.2063 36.9075 45.7671 36.0955C45.6416 35.7834 45.8293 35.4073 45.6416 35.1576C45.7671 33.66 44.9505 32.4733 45.015 31.0987C44.9511 30.4116 44.7637 29.8513 45.015 29.2244C44.8892 28.852 45.2032 28.3522 44.8892 27.9764C44.5757 27.8526 44.3247 27.7265 44.0738 27.478C43.8855 26.729 44.2626 26.1045 44.7009 25.6037C45.327 25.5418 46.1433 25.6662 46.7694 25.4169C47.0215 25.6656 47.522 25.6656 47.6475 25.9795C48.0251 26.4167 48.338 26.9772 48.0251 27.5385C47.8357 27.8532 47.4601 27.977 47.5847 28.2903C47.3973 28.8524 47.4599 29.6008 47.2707 30.1629C47.5847 30.9116 47.3973 31.7867 47.5847 32.6609C47.5847 33.2224 47.8357 33.7851 48.0251 34.3478C47.8996 34.4727 48.0876 34.66 48.0251 34.9093C48.2758 35.0342 48.2125 35.347 48.338 35.5333C48.4635 35.6594 48.5262 35.8466 48.5262 35.9716C48.715 36.3462 49.0285 36.7203 49.154 37.0952C49.3416 37.1576 49.2789 37.4079 49.4047 37.5954C49.7812 37.97 50.2823 38.3449 50.7226 38.6571C51.4739 38.905 51.8509 39.7812 52.5401 39.9673C52.9165 40.2172 53.4176 40.3433 53.8572 40.4683C54.1707 40.4683 54.3589 40.2172 54.6098 40.1547C54.5465 39.5302 54.4842 38.8437 54.6724 38.2186C54.6098 37.782 54.296 37.469 53.9825 37.281C53.6062 37.0325 53.1045 37.0325 52.6648 36.9075C52.2258 36.1588 50.972 36.0955 50.972 35.0963C50.8471 34.7836 50.7224 34.4723 50.5328 34.2226C50.4074 33.0354 49.968 31.8487 49.968 30.6627C49.7804 29.7884 49.9053 29.225 50.0945 28.4143C49.968 27.9766 50.0945 27.4782 49.6543 27.1658H49.7169C49.404 27.0408 49.2779 26.7292 49.2152 26.4793C49.2152 25.9797 49.4661 25.6656 49.7808 25.3546C50.3458 24.9799 51.2232 25.1671 51.8505 25.1047C52.038 25.3546 52.4144 25.2296 52.5397 25.5424C52.4142 25.9159 52.8532 26.23 52.6646 26.6666C52.7906 26.9159 52.602 27.1656 52.602 27.4149C51.6612 27.6648 52.2883 28.6635 52.0376 29.2892C51.8494 30.4122 52.0376 31.4108 52.2883 32.4731C52.7902 33.2863 52.8528 34.3468 53.8564 34.7834C53.9819 34.8458 54.1074 34.9083 54.2954 34.9083C54.9859 33.7847 54.4842 32.1609 54.6096 30.8487C54.7351 29.787 54.7977 29.0387 54.6722 28.0401L54.7977 27.852C54.6096 27.1644 53.5439 26.6654 53.9823 25.7911C54.2958 25.2915 54.8598 25.1666 55.4876 25.1035C56.363 24.9793 57.179 25.1673 57.8056 25.7919Z" fill="#E0E0E0"/>
</g>
</g>
<defs>
<clipPath id="clip0_3293_290919">
<rect width="74" height="75" fill="white" transform="translate(0.990234 0.5)"/>
</clipPath>
</defs>
</svg>
