<svg width="33" height="34" viewBox="0 0 33 34" fill="none" xmlns="http://www.w3.org/2000/svg">
    <path d="M10.0263 16.3963L19.8705 6.24283C19.9619 6.1485 20.0711 6.0731 20.1917 6.02095C20.3123 5.96879 20.442 5.9409 20.5733 5.93887C20.7047 5.93684 20.8352 5.9607 20.9574 6.0091C21.0795 6.0575 21.1909 6.12948 21.2853 6.22095C21.3796 6.31241 21.455 6.42156 21.5072 6.54216C21.5593 6.66276 21.5872 6.79245 21.5892 6.92383C21.5913 7.05521 21.5674 7.1857 21.519 7.30786C21.4706 7.43002 21.3986 7.54144 21.3072 7.63578L12.1583 17.0709L21.5946 26.2186C21.7851 26.4033 21.8945 26.6561 21.8986 26.9214C21.9027 27.1868 21.8012 27.4429 21.6165 27.6334C21.4318 27.8239 21.179 27.9332 20.9136 27.9374C20.6483 27.9415 20.3922 27.84 20.2017 27.6553L10.0482 17.8111C9.9538 17.7197 9.87835 17.6106 9.82615 17.49C9.77395 17.3694 9.74604 17.2397 9.74401 17.1083C9.74198 16.9769 9.76586 16.8463 9.8143 16.7242C9.86274 16.602 9.93479 16.4906 10.0263 16.3963Z" fill="white"/>
</svg>
